<svg width="80" height="80" viewBox="0 0 80 80" fill="none" xmlns="http://www.w3.org/2000/svg">
<mask id="mask0_2062_6149" style="mask-type:luminance" maskUnits="userSpaceOnUse" x="4" y="4" width="72" height="72">
<path d="M76 4H4V76H76V4Z" fill="white"/>
</mask>
<g mask="url(#mask0_2062_6149)">
<path d="M41.2436 40.8354C31.9442 40.8354 22.6449 40.8354 13.3455 40.8354C8.14372 40.8354 4.10438 36.8178 4.10438 31.5774C4.10438 28.1419 4.13342 24.6774 4.07534 21.242C4.04615 19.4078 4.22054 17.632 4.77274 15.8851C5.29575 14.1092 5.67356 12.2751 6.22577 10.4992C7.44633 6.65612 10.9627 4.1232 14.973 4.09416C20.9595 4.06497 26.9458 4.06497 32.9323 4.09416C36.4486 4.1232 39.1512 5.66631 40.924 8.66494C42.4061 11.1979 43.9172 13.7016 45.8932 15.9143C49.2061 19.5825 53.3327 22.0572 57.7791 24.0369C61.7021 25.7837 65.7706 27.0939 69.8682 28.3166C71.0015 28.666 71.2049 28.899 71.2049 30.0925C71.2049 33.1203 71.2049 36.1774 71.2049 39.205C71.2049 40.4279 70.8271 40.8064 69.5775 40.8064M68.8511 38.5646C68.8511 36.0609 68.822 33.6444 68.8801 31.228C68.8801 30.6166 68.6477 30.4129 68.1245 30.2382C64.8116 29.1027 61.4406 28.0546 58.1858 26.7445C53.449 24.8812 49.0609 22.3774 45.3992 18.7674C42.8129 16.2055 40.8077 13.2359 39.0349 10.0624C37.7272 7.73336 35.693 6.45238 33.0486 6.42319C27.004 6.36495 20.9595 6.36495 14.9439 6.42319C11.7764 6.45238 9.24797 8.49024 8.34715 11.5181C7.96934 12.7408 7.64975 13.9345 7.38809 15.1865C7.01044 16.8168 6.51631 18.4471 6.42919 20.0774C6.28384 23.8331 6.37112 27.5888 6.40016 31.3444C6.40016 31.9849 6.45823 32.6545 6.60358 33.2658C7.38809 36.5266 10.1199 38.5646 13.6653 38.5646H68.0374H68.8511Z" fill="black"/>
<path d="M71.841 72.9273C71.7498 73.4247 71.7498 73.8637 71.6283 74.3026C71.3856 75.2976 70.4746 75.9706 69.412 76C68.8959 76 68.41 76 67.9242 76C66.2543 76 65.2828 75.0927 65.2525 73.4833C65.222 73.3078 65.222 73.1613 65.222 72.9273H51.6201C51.6201 73.2199 51.6201 73.4833 51.6201 73.7758C51.5593 75.0342 50.5878 75.9706 49.2821 76C48.766 76 48.2196 76 47.7034 76C46.1549 76 45.1833 75.0927 45.153 73.6004C45.1226 73.3955 45.1226 73.1907 45.1226 72.9859C43.8474 72.6346 43.6956 72.4298 43.6956 71.1422V55.9255V55.0183C43.4527 54.9889 43.2705 54.9597 43.058 54.9597C41.6614 54.9012 40.872 54.1404 40.8416 52.765C40.8416 51.8285 40.9023 50.8921 40.8416 49.9557C40.7506 48.5219 41.7221 47.3806 43.2705 47.5563C43.392 47.5563 43.4832 47.5269 43.6956 47.5269V46.3271C43.6956 43.9569 45.2138 42.4644 47.7034 42.4644C51.5289 42.4644 55.3242 42.4644 59.1497 42.4644C62.3984 42.4644 65.6472 42.5229 68.8959 42.4352C71.4463 42.3766 73.4197 43.9569 73.2072 46.5905C73.1769 46.8831 73.2072 47.1758 73.2072 47.4977C73.4501 47.5269 73.6323 47.5563 73.8145 47.5563C75.2718 47.6147 76.0005 48.3171 76.0005 49.7217C76.0005 50.7458 76.0005 51.7994 76.0005 52.8235C76.0005 54.1696 75.2718 54.9012 73.8448 54.9597C73.6323 54.9597 73.4501 54.9889 73.1769 55.0183V55.8961C73.1769 61.0758 73.1769 66.2261 73.1769 71.4056C73.1769 72.4298 72.9035 72.6931 71.841 72.9273ZM70.748 60.6953H46.1853V70.4985H70.748V60.6953ZM46.0941 58.2664H57.1458V44.8348C54.0186 44.8348 50.952 44.8348 47.8855 44.8348C46.4585 44.8348 46.0941 45.1859 46.0941 46.5905C46.0941 50.2191 46.0941 53.8478 46.0941 57.4764V58.2664ZM70.7783 58.2372C70.7783 54.1111 70.7783 50.102 70.748 46.0637C70.748 45.2444 70.2318 44.8348 69.3513 44.8348C66.5884 44.8348 63.8254 44.8348 61.0625 44.8348H59.757V58.2372H70.7783ZM47.6123 73.6589H49.1911V72.898H47.6123V73.6589ZM69.2601 72.898H67.7422V73.6589H69.2601V72.898ZM73.5411 49.9265C73.4501 49.9265 73.3894 49.9265 73.2679 49.8972C73.025 50.7458 73.1769 51.6531 73.2072 52.5016C73.2072 52.5309 73.4197 52.5601 73.5411 52.5895V49.9265ZM43.4224 52.6187H43.6045V49.9265C43.5437 49.9265 43.4832 49.9265 43.4224 49.9265V52.6187Z" fill="black"/>
<path d="M15.3354 45.2147H27.8253C27.8253 44.7673 27.7955 44.3197 27.8253 43.9041C27.855 42.8812 28.2713 42.4336 29.2229 42.4336C30.9477 42.4336 32.6428 42.4336 34.3676 42.4336C35.3192 42.4336 35.7354 42.8492 35.7652 43.9041C35.7949 44.3197 35.7652 44.7353 35.7652 45.2788C36.4492 45.2788 37.0438 45.2788 37.6981 45.2788C38.739 45.2788 39.2147 45.7582 39.2147 46.8451C39.2445 48.0599 39.2445 49.2747 39.2147 50.4576C39.2147 51.5125 38.739 52.024 37.7873 52.024C27.0224 52.024 16.2573 52.024 5.49223 52.024C4.51101 52.024 4.09463 51.5444 4.09463 50.4895C4.06481 49.2427 4.06481 47.9641 4.09463 46.7173C4.09463 45.7902 4.54067 45.3108 5.40309 45.3108C6.05724 45.2788 6.71154 45.3108 7.48466 45.3108C7.48466 44.8312 7.455 44.3837 7.48466 43.9681C7.51448 42.945 7.9307 42.4656 8.88242 42.4656C10.6071 42.4656 12.3023 42.4656 13.9973 42.4656C14.9785 42.4656 15.3652 42.8812 15.3949 43.9361C15.3354 44.2877 15.3354 44.7033 15.3354 45.2147ZM30.234 44.959V45.8861C30.234 47.4206 29.9069 47.8042 28.4795 47.8042H20.5097C18.5173 47.8042 16.4952 47.8042 14.5028 47.8042C13.3728 47.8042 12.9861 47.3566 12.9861 46.1738C12.9564 45.7582 12.9861 45.3746 12.9861 44.959H9.80416C9.80416 45.4066 9.83398 45.8222 9.80416 46.2378C9.7745 47.3247 9.35812 47.7722 8.3769 47.7722C7.72259 47.7722 7.06844 47.7722 6.38447 47.7722V49.3067H36.7168V47.9C36.6276 47.8362 36.5978 47.8042 36.5383 47.8042C35.9436 47.8042 35.3488 47.8042 34.7838 47.7722C33.7431 47.7402 33.3564 47.2927 33.3564 46.1738C33.3267 45.7582 33.3564 45.3746 33.3564 44.927H30.234V44.959Z" fill="black"/>
<path d="M21.6483 20.0248C18.2142 20.0248 14.8084 20.0248 11.3744 20.0248C9.47283 20.0248 8.50784 18.6494 8.99025 16.5701C9.35933 14.9707 9.72824 13.3712 10.1256 11.8039C10.8351 9.08488 12.8502 7.32554 15.3193 7.29353C19.7467 7.26153 24.1742 7.26153 28.6017 7.29353C31.2979 7.32554 33.3414 9.46878 33.7671 12.4437C33.9657 13.8831 34.1644 15.3226 34.3914 16.794C34.6753 18.7132 33.7387 20.0568 31.979 20.0568C28.545 20.0248 25.1108 20.0248 21.6483 20.0248ZM11.1756 17.3698H32.1778C31.9222 15.6745 31.752 14.043 31.4398 12.4437C31.2979 11.8359 30.9574 11.2281 30.5883 10.7804C29.9071 10.0126 29.0274 9.82068 28.0908 9.82068H16.0573C13.7584 9.82068 12.7366 10.6843 12.1406 13.1793C11.8 14.5229 11.4879 15.9304 11.1756 17.3698Z" fill="black"/>
<path d="M39.2363 23.0664C39.2363 21.5026 39.2696 19.9387 39.2363 18.3459C39.2363 17.7088 39.4021 17.1585 40.1649 16.9268C40.8945 16.6951 41.3588 17.1006 41.8562 17.535C43.3817 18.8961 44.9733 20.1704 46.4988 21.5605C46.8304 21.879 47.1953 22.4003 47.1953 22.8348C47.2284 25.1805 47.2284 27.5553 47.2284 29.901C47.2284 31.0304 46.3661 31.5228 45.1724 31.0883C43.5475 30.5091 41.9888 29.901 40.3638 29.2927C39.5679 29.0031 39.2363 28.5399 39.2363 27.8158C39.2696 26.2231 39.2363 24.6592 39.2363 23.0664ZM41.9557 21.126C41.9557 23.1823 41.9557 25.0935 41.9888 26.976C41.9888 27.1498 42.1215 27.3813 42.2873 27.4683C43.0168 27.7868 43.7464 28.0475 44.6086 28.3662C44.6086 26.6574 44.6417 25.0646 44.6086 23.4429C44.6086 23.298 44.509 23.1244 44.3765 23.0085C43.6137 22.4293 42.851 21.8211 41.9557 21.126Z" fill="black"/>
<path d="M47.2557 27.9964C47.2557 26.9029 47.2557 25.7779 47.2831 24.6844C47.3105 23.4345 48.1063 22.9032 49.0668 23.497C50.329 24.3094 51.5913 25.1219 52.881 25.903C53.4023 26.2154 53.6218 26.6528 53.6218 27.309C53.5945 29.2151 53.6218 31.0898 53.5944 32.9959C53.5944 34.152 52.9633 34.6833 52.0028 34.3395C50.6857 33.8708 49.396 33.3397 48.1063 32.8396C47.5026 32.5897 47.2283 32.121 47.2283 31.3711C47.2831 30.2463 47.2557 29.1213 47.2557 27.9964ZM51.4265 31.496C51.4265 30.3399 51.4265 29.3401 51.3992 28.309C51.3992 28.1215 51.3168 27.8715 51.207 27.8091C50.6308 27.4341 50.0545 27.1217 49.396 26.7154C49.396 27.9653 49.3685 29.09 49.396 30.2151C49.4235 30.4338 49.6155 30.7462 49.8076 30.8399C50.329 31.0898 50.8503 31.2773 51.4265 31.496Z" fill="black"/>
<path d="M30.4183 31.2459C28.1923 31.2459 26.4492 29.4699 26.4492 27.2364C26.4492 25.0031 28.2192 23.2539 30.4987 23.2539C32.671 23.2539 34.4678 25.1107 34.4409 27.2903C34.3872 29.4969 32.6173 31.2459 30.4183 31.2459ZM32.2687 27.2364C32.2687 26.214 31.4105 25.3798 30.445 25.3798C29.4797 25.3798 28.5946 26.2677 28.5946 27.2634C28.6215 28.2859 29.4528 29.1202 30.4719 29.1202C31.4642 29.0932 32.2687 28.2859 32.2687 27.2364Z" fill="black"/>
<path d="M12.0645 23.2539C14.7535 23.2539 16.8595 24.9761 16.8595 27.2096C16.8919 29.4699 14.7535 31.2459 12.0645 31.2459C9.3753 31.2459 7.26953 29.4699 7.26953 27.2634C7.26953 25.0299 9.3753 23.2539 12.0645 23.2539ZM12.032 29.0932C13.2632 29.0932 14.3 28.2859 14.3323 27.2634C14.3648 26.2677 13.2957 25.3798 12.1293 25.3528C10.9306 25.326 9.89378 26.187 9.86131 27.1827C9.82899 28.2322 10.8333 29.0932 12.032 29.0932Z" fill="black"/>
<path d="M55.2331 30.6519C55.2331 29.7534 55.2047 28.8551 55.2331 27.9566C55.2615 26.6731 55.9705 26.1598 57.0197 26.609C58.2108 27.1224 59.402 27.6678 60.5931 28.1491C61.3022 28.4379 61.6141 28.9192 61.6141 29.7214C61.5857 31.3257 61.6141 32.93 61.5857 34.5343C61.5857 35.7536 60.9618 36.267 59.8841 35.9461C58.6931 35.5611 57.4734 35.176 56.2824 34.8232C55.545 34.5985 55.2331 34.1172 55.2331 33.283C55.2331 32.4487 55.2331 31.5504 55.2331 30.6519ZM57.5585 29.6572V32.6092C58.1259 32.8017 58.6931 32.962 59.2885 33.1547C59.2885 32.2882 59.3169 31.5182 59.2603 30.7802C59.2603 30.6199 59.1183 30.3631 58.9482 30.2669C58.5229 30.0422 58.069 29.8817 57.5585 29.6572Z" fill="black"/>
<path d="M68.0084 34.2514C68.0084 34.9374 68.0084 35.6235 68.0084 36.3095C67.9494 37.2937 67.3307 37.8008 66.3879 37.5921C65.1504 37.3236 63.913 37.0254 62.6459 36.727C61.9979 36.5779 61.6147 36.1305 61.6147 35.4147C61.6443 33.9234 61.6147 32.4321 61.6443 30.9407C61.6443 29.9565 62.2925 29.4494 63.2058 29.7178C64.4727 30.0758 65.7396 30.4934 67.0066 30.881C67.6843 31.0899 67.9789 31.567 67.9789 32.253C68.0084 32.8794 68.0084 33.5654 68.0084 34.2514ZM64.0014 32.4917C63.8245 34.6094 63.9424 34.8181 65.5334 34.8181C65.6513 32.5812 65.8575 32.8794 64.0014 32.4917Z" fill="black"/>
<path d="M50.3957 61.6152C52.2011 61.6152 53.6218 63.0294 53.6218 64.797C53.6218 66.5353 52.1716 67.9789 50.4253 68.0084C48.7086 68.0379 47.2287 66.5943 47.2287 64.856C47.1991 63.0294 48.5606 61.6447 50.3957 61.6152ZM50.2773 65.7398L50.6029 65.7105C50.81 65.3864 51.1357 65.0918 51.1949 64.7676C51.254 64.2963 50.8989 63.9722 50.3957 63.9722C49.9222 63.9722 49.419 64.4435 49.567 64.856C49.715 65.1801 50.0405 65.4452 50.2773 65.7398Z" fill="black"/>
<path d="M66.4387 61.6152C68.1984 61.6152 69.6061 63.0294 69.6061 64.7972C69.6061 66.5648 68.1105 68.0379 66.38 68.0084C64.6497 67.9789 63.2126 66.5353 63.2126 64.7972C63.2126 63.0589 64.6789 61.6152 66.4387 61.6152ZM65.6175 64.5319C65.6175 65.3273 65.8814 65.6219 66.4094 65.6219C66.9079 65.6219 67.2306 65.3569 67.2306 64.8265C67.2599 64.2963 66.9372 63.9427 66.4387 64.0017C66.116 64.0311 65.7935 64.3847 65.6175 64.5319Z" fill="black"/>
<path d="M58.333 66.3911C57.6824 66.3911 57.0319 66.4109 56.4097 66.3911C55.6742 66.3713 55.25 66.0745 55.2218 65.6191C55.1935 65.1638 55.6177 64.8274 56.353 64.8274C57.7108 64.8075 59.0967 64.8075 60.4544 64.8274C61.1614 64.8472 61.614 65.1836 61.614 65.6191C61.614 66.0348 61.1332 66.3911 60.4544 66.4109C59.7473 66.4109 59.0401 66.3911 58.333 66.3911Z" fill="black"/>
</g>
</svg>
