<svg width="80" height="80" viewBox="0 0 80 80" fill="none" xmlns="http://www.w3.org/2000/svg">
<path fill-rule="evenodd" clip-rule="evenodd" d="M10.7024 11.0785V11.6327H7.14072C7.14072 13.6707 8.89389 27.4902 9.13379 31.0121C9.18916 31.906 9.41061 32.9608 9.42907 33.7832H5V36H37V5.00005H34.7117V33.7832H32.4233V20.5H27.1453L27.7728 13.921C27.8651 13.2595 27.9942 12.2763 27.9942 11.6505H24.4141C24.4141 7.8426 21.1476 5.00005 18.1211 5.00005C16.6263 5.00005 15.8881 4.98217 14.504 5.64364C12.4187 6.62692 10.7024 8.91528 10.7024 11.0785ZM12.9908 11.9008C12.8247 11.0785 13.4152 9.50524 14.2457 8.68287C17.143 5.76881 21.7013 7.52082 22.1073 11.3824C22.1626 11.8472 21.9596 12.8484 21.7935 13.2238C21.5905 13.7422 21.2399 14.1892 20.8893 14.5646C19.6344 15.816 17.752 16.4239 15.9066 15.7267C14.3379 15.1367 13.4521 13.8674 13.12 12.3299C13.0277 11.8651 13.0461 12.1869 12.9908 11.9008ZM9.70588 13.8495H11.1269C11.2561 15.4406 14.2088 18.2832 16.9769 18.2832C18.9885 18.2832 20.1511 18.1938 21.7935 16.8708C22.4579 16.3345 22.5317 16.2987 23.0669 15.6194C23.4175 15.1724 23.9158 14.4395 23.9712 13.8674H25.3922C25.3552 15.2976 24.6724 19.2665 24.6724 20.5179H18.6747V33.801H11.6805C11.6805 30.8334 10.2411 20.4642 9.96424 16.3703C9.94579 15.6015 9.72434 14.5646 9.70588 13.8495ZM21 22.699H30.1349V33.7653H21V22.699Z" fill="black"/>
<path fill-rule="evenodd" clip-rule="evenodd" d="M44 36H75V33.7832H72.7832V20.5H63.9337V7.21686H48.4337V33.7832H46.2168V5H44V36ZM57.2832 33.7832H50.6326V9.43368H61.699V20.5H57.2832V33.7832ZM59.5 22.7168H70.5663V33.7832H59.5V22.7168Z" fill="black"/>
<path fill-rule="evenodd" clip-rule="evenodd" d="M48 63.7709H55.1549V72.7506H48.5517V75H75V72.7506H67.2933V68.2517H74.4483C74.2347 67.3265 68.6816 54.0294 68.468 53.7029C67.5247 52.2879 65.4779 52.1065 64.2854 53.2494C63.5557 53.9387 63.2175 55.263 62.7904 56.2244C62.5056 56.8775 62.4166 57.4399 62.0606 57.712L58.8036 49.6575C57.7357 47.4806 55.1371 47.6076 54.0514 49.1133C53.6599 49.6575 51.791 54.3922 51.4173 55.2811L48.8721 61.5396C48.5873 62.1927 48.1424 63.136 48 63.7709ZM63.4311 60.8322L65.1753 56.4421C65.3889 55.9523 65.6559 55.4444 65.7627 54.9364H66.5814C66.7772 55.8072 70.9242 65.2766 70.9954 66.0204H61.3487C61.3843 65.5487 61.9717 64.1882 62.1674 63.7709H64.5168C64.3744 63.0997 63.4311 61.2494 63.4311 60.8322ZM55.849 50.4376H56.6678L61.0817 61.5215H51.4351C51.5063 60.7233 55.6177 51.4534 55.849 50.4376ZM57.9136 68.2698H65.0686V72.7687H57.3619V63.7891H59.7113L57.9136 68.2698Z" fill="black"/>
<path fill-rule="evenodd" clip-rule="evenodd" d="M8 56.5073V59.5281H10.1834V71H29.8166V59.5281H32V56.5073C31.4365 56.3405 27.4042 52.8934 26.7351 52.3003C26.4182 52.0223 21.6816 48.0378 21.3823 48.0378C18.3537 48.0378 18.8467 47.7042 17.2796 49.02L9.47909 55.4324C9.0565 55.7474 8.36977 56.3961 8 56.5073ZM19.7095 50.3358C20.7484 50.3358 20.6604 50.3173 21.5055 51.0401C21.8929 51.3551 22.2098 51.6146 22.5796 51.9111L27.9325 56.322C28.267 56.6185 28.7601 56.915 28.9714 57.2301H10.9934L15.2546 53.6903C16.0118 53.0972 16.6809 52.5042 17.4028 51.9297C18.0895 51.3551 19.0932 50.3358 19.7095 50.3358ZM14.5327 68.7019H12.3493V59.5281H27.6155V68.7019H25.4321V61.8077H14.5327V68.7019ZM16.7161 64.1058H23.2663V68.7019H16.7161V64.1058Z" fill="black"/>
<path fill-rule="evenodd" clip-rule="evenodd" d="M5 46.2002H34.7117V75H37V44H5V46.2002Z" fill="black"/>
<path fill-rule="evenodd" clip-rule="evenodd" d="M44 75H46.2168V46.2002H75V44H44V75Z" fill="black"/>
<path fill-rule="evenodd" clip-rule="evenodd" d="M16.3333 11H14V13H16.3333V15H18.6666V13H21V11H18.6666V9H16.3333V11Z" fill="black"/>
<path d="M28 26H23V27H28V26Z" fill="black"/>
<path d="M28 30H23V32H28V30Z" fill="black"/>
<path d="M56 11H53V14H56V11Z" fill="black"/>
<path d="M59 11H57V14H59V11Z" fill="black"/>
<path d="M56 17H53V18H56V17Z" fill="black"/>
<path d="M59 17H57V18H59V17Z" fill="black"/>
<path d="M17 21H14V23H17V21Z" fill="black"/>
<path d="M56 21H53V23H56V21Z" fill="black"/>
<path d="M17 26H14V27H17V26Z" fill="black"/>
<path d="M56 26H53V27H56V26Z" fill="black"/>
<path d="M63 26H62V27H63V26Z" fill="black"/>
<path d="M69 26H66V27H69V26Z" fill="black"/>
<path d="M17 30H14V32H17V30Z" fill="black"/>
<path d="M56 30H53V32H56V30Z" fill="black"/>
<path d="M63 30H62V32H63V30Z" fill="black"/>
<path d="M69 30H66V32H69V30Z" fill="black"/>
</svg>
