<svg width="80" height="80" viewBox="0 0 80 80" fill="none" xmlns="http://www.w3.org/2000/svg">
<path d="M58.2211 72.5415C58.0455 72.5486 57.8688 72.5504 57.6917 72.5504C53.4687 72.5504 49.2457 72.5508 45.0228 72.5512C36.5768 72.552 28.131 72.5528 19.6851 72.5504C16.4325 72.5504 13.8562 70.5112 13.3565 67.4351C13.195 66.4386 13.2503 65.4017 13.3067 64.3444C13.319 64.1141 13.3313 63.883 13.3415 63.651C13.5291 59.3728 13.7351 55.0946 13.9412 50.8158C13.9927 49.746 14.0442 48.6761 14.0955 47.6062C14.178 45.8833 14.2581 44.1604 14.3383 42.4376C14.5561 37.7555 14.7738 33.0744 15.0388 28.3967L15.0388 28.3966C15.2097 25.3692 17.8879 22.8915 20.9297 22.8257L20.9298 22.8257C21.9971 22.8024 23.0622 22.8083 24.1676 22.8145C24.6859 22.8174 25.213 22.8203 25.7534 22.8203H25.857L25.9302 22.7471L25.932 22.7453L26.0119 22.6654L58.2311 72.7913M58.2211 72.5415L58.2311 72.7913M58.2211 72.5415C58.2211 72.5415 58.221 72.5415 58.221 72.5415L58.2311 72.7913M58.2211 72.5415C60.9743 72.4303 63.4468 70.4491 63.9381 67.7606M58.2311 72.7913C61.0903 72.6759 63.6699 70.6194 64.184 67.8053M63.9381 67.7606L64.184 67.8053M63.9381 67.7606C64.1629 66.5238 64.1039 65.2167 64.0447 63.9057C64.041 63.8221 64.0372 63.7384 64.0335 63.6547L64.0335 63.6545C63.7762 57.7397 63.4927 51.8249 63.2091 45.9095C63.1446 44.5659 63.0802 43.2223 63.0161 41.8787C62.9621 40.7432 62.91 39.608 62.858 38.473C62.7049 35.1357 62.552 31.8008 62.3488 28.4681L62.3488 28.468C62.1808 25.6896 60.1112 23.3767 57.3566 22.9582M63.9381 67.7606C63.9381 67.7605 63.9381 67.7605 63.9381 67.7604L64.184 67.8053M64.184 67.8053L57.3566 22.9582M57.3566 22.9582L57.3941 22.711C60.2677 23.1476 62.4234 25.5594 62.5984 28.4529C62.8017 31.7875 62.9547 35.1251 63.1078 38.4627C63.1598 39.5975 63.2118 40.7322 63.2658 41.8668C63.33 43.2106 63.3944 44.5544 63.4588 45.8982C63.7424 51.8133 64.026 57.7285 64.2832 63.6437L57.3566 22.9582ZM25.5048 22.5701C25.0538 22.5694 24.6107 22.567 24.1733 22.5645C23.0659 22.5584 21.9951 22.5524 20.9243 22.5757C17.7585 22.6443 14.9678 25.2185 14.7892 28.3825L25.5048 22.5701ZM25.5048 22.5701C25.5051 22.5749 25.5054 22.5797 25.5057 22.5845L25.7271 22.5703" fill="#000" stroke="white" stroke-width="0.5"/>
<path d="M38.823 44.0727C44.1389 44.0338 48.7932 40.8456 50.6736 35.9214L50.6738 35.921C50.9259 35.2641 51.1336 34.5833 51.2564 33.9009C51.4383 32.8837 50.7834 31.9436 49.8401 31.7379L49.84 31.7379C48.7893 31.5083 47.8441 32.0413 47.5171 33.0415L47.5167 33.0429C47.463 33.2039 47.4234 33.3621 47.3813 33.5303C47.359 33.6195 47.336 33.7115 47.3098 33.8082L38.823 44.0727ZM38.823 44.0727L38.8216 44.0713L38.7183 44.0713C32.7743 44.0677 27.6939 40.0627 26.3049 34.2961L26.3049 34.2961C26.1963 33.8455 26.1765 33.4387 26.2657 33.079C26.3538 32.7241 26.5519 32.3983 26.9095 32.1105L26.9098 32.1103C27.5216 31.6163 28.2137 31.56 28.9432 31.8666L38.823 44.0727ZM30.0973 33.47L30.0973 33.4699C29.8958 32.7113 29.6056 32.1452 28.9433 31.8666L30.0973 33.47ZM30.0973 33.47C30.5659 35.2327 31.3625 36.6905 32.4982 37.8122M30.0973 33.47L32.4982 37.8122M32.4982 37.8122C33.6342 38.9343 35.0981 39.7087 36.8831 40.1218M32.4982 37.8122L36.8831 40.1218M36.8831 40.1218C41.4489 41.1791 46.0955 38.33 47.3098 33.8085L36.8831 40.1218Z" fill="#000" stroke="white" stroke-width="0.5"/>
</svg>
