<svg width="80" height="80" viewBox="0 0 80 80" fill="none" xmlns="http://www.w3.org/2000/svg">
<path d="M4.04869 64.012C4.46248 63.4966 5.02228 63.3985 5.65513 63.3985C11.0587 63.423 16.4622 63.423 21.8658 63.423H22.7421C21.2086 57.1657 22.8881 52.2336 28.7054 49.3379C32.7216 47.3503 36.7378 47.9392 40.194 50.7611C44.2102 54.0493 45.2568 58.3681 43.8208 63.3249C45.4272 63.3249 47.0337 63.374 48.6158 63.3004C49.3217 63.2513 49.8571 62.6869 50.0762 61.9998C51.1228 58.7852 52.1451 55.5461 53.1918 52.209C52.0235 52.209 50.9038 52.209 49.7842 52.209C47.3501 52.209 45.5246 50.4176 45.549 48.0619C45.5733 45.7308 47.3745 43.9885 49.7842 43.9885C51.6584 43.9885 53.5082 43.9885 55.5041 43.9885C55.285 43.5714 55.139 43.2033 54.9199 42.9089C54.4087 42.2463 53.8977 41.6083 53.3135 41.0194C53.0945 40.7986 52.7293 40.6513 52.3885 40.6022C47.2527 39.7679 42.7985 37.5595 38.9283 34.1241C37.6628 32.9953 36.4456 31.7438 35.2773 30.4923C33.8413 28.9219 34.0116 26.4925 35.5937 24.9221C37.3706 23.1798 39.1474 21.4622 40.8999 19.7199C41.0703 19.5727 41.2407 19.4255 41.3381 19.2538C41.7762 18.6647 41.4597 17.904 40.7296 17.8059C40.5105 17.7814 40.2671 17.8059 40.0237 17.8059C28.5107 17.8059 16.9977 17.8059 5.50909 17.8059C4.85189 17.8059 4.3651 17.6587 4.02433 17.0943V16.2354C4.41377 15.7937 4.90058 15.6465 5.50909 15.6465C17.1194 15.6711 28.7054 15.6711 40.2914 15.6711C42.2387 15.6711 43.4313 16.628 43.6504 18.3703C43.7721 19.3519 43.4557 20.1862 42.7985 20.8733C42.1413 21.5603 41.4841 22.2229 40.8025 22.9345C41.7519 24.0388 42.7011 25.1675 43.6504 26.2963C44.2102 26.9588 44.2102 27.5968 43.7233 28.0384C43.1879 28.5047 42.6038 28.382 42.0196 27.695C41.0947 26.6152 40.1698 25.5111 39.0745 24.2596C38.3198 25.0939 37.5897 25.8545 36.8838 26.6643C36.2753 27.3759 36.2509 28.3575 36.8838 29.0691C40.5591 33.2161 44.8187 36.4797 50.2709 37.9275C50.3683 37.952 50.49 37.9766 50.7578 38.0256C49.6381 36.7005 48.6158 35.4981 47.6179 34.3203C46.9363 33.5106 46.2305 32.7009 45.5733 31.891C45.0378 31.253 45.0378 30.6395 45.549 30.1979C46.06 29.7562 46.6443 29.8298 47.1797 30.4923C50.2953 34.1486 53.4352 37.8048 56.5264 41.4857C57.6217 42.7861 57.9138 44.3321 57.4026 45.9516C55.6501 51.4974 53.922 57.0185 52.1208 62.5397C51.5123 64.4291 49.9059 65.558 47.9099 65.558C46.3765 65.558 44.843 65.5825 43.3097 65.558C42.8228 65.5333 42.5307 65.6806 42.2143 66.0977C37.76 72.257 28.7054 72.2323 24.2511 66.0732C23.9834 65.6806 23.6913 65.558 23.2288 65.558C17.3141 65.5825 11.3995 65.558 5.48476 65.5825C4.85191 65.5825 4.34077 65.4352 4 64.8709M33.2814 50.4422C28.2916 50.4667 24.2998 54.5156 24.3242 59.5951C24.3485 64.5273 28.4133 68.5516 33.3544 68.5516C38.2469 68.5516 42.2629 64.4782 42.2629 59.4968C42.2629 54.491 38.2469 50.4422 33.2814 50.4422ZM55.1634 46.148C53.2161 46.148 51.3906 46.0988 49.5894 46.1725C48.4454 46.2216 47.7153 47.0804 47.7153 48.1355C47.7153 49.1907 48.494 50.025 49.6381 50.0742C51.0498 50.1231 52.4373 50.0986 53.8977 50.0986C54.2871 48.7982 54.7252 47.522 55.1634 46.148Z" fill="black"/>
<path d="M4.07231 39.4719C4.48206 38.9347 5.0364 38.8579 5.66308 38.8579C12.6529 38.8835 19.6187 38.8835 26.5845 38.8579C27.0184 38.8579 27.5246 38.7812 27.9102 38.5509C28.6815 38.1415 28.9708 37.0415 28.4886 36.2483C26.4158 32.7687 24.0778 29.5707 20.3659 27.8821C18.4377 26.9866 16.4131 26.4493 14.3161 26.4237C11.3755 26.3981 8.45905 26.3981 5.51846 26.4237C4.86768 26.4237 4.38562 26.2446 4.04818 25.6817V24.7862C4.38562 24.3513 4.7954 24.1211 5.34976 24.1211C8.43496 24.1467 11.5443 24.0698 14.6053 24.1723C20.4142 24.4024 24.9937 27.1656 28.3923 32.1291C28.9708 32.9733 29.5492 33.8432 30.1036 34.7387C30.9712 36.0948 31.0677 37.5531 30.3205 38.9859C29.5974 40.393 28.3923 41.0582 26.8737 41.0582C19.7152 41.0582 12.5806 41.0582 5.39794 41.0582C4.77126 41.0582 4.33744 40.8792 4 40.3163" fill="black"/>
<path d="M65.0727 34.4334V62.423C65.6467 62.423 66.1967 62.423 66.7228 62.423C68.9947 62.4473 70.4295 63.9333 70.4535 66.2232C70.4535 67.1732 70.4535 68.1476 70.4535 69.122C70.4295 70.1451 69.9033 70.7054 68.9228 70.7054C65.6465 70.7054 62.3704 70.7054 59.0941 70.7054C58.0897 70.7054 57.5875 70.1451 57.5875 69.0976C57.5636 68.0989 57.5875 67.1244 57.5875 66.1256C57.5875 63.9577 59.0224 62.4473 61.1507 62.3986C61.7247 62.3743 62.2985 62.3986 62.9203 62.3986V34.4091C59.1419 33.922 56.1287 32.1679 54.0003 28.9282C52.3741 26.4678 51.7524 23.7394 52.0871 20.8162C52.8285 14.58 57.8745 10.0491 63.9487 10.0004C69.8078 9.95169 75.021 14.3853 75.8341 20.1098C76.3602 23.6419 75.6428 26.8331 73.4905 29.6588C71.3621 32.4847 68.5164 34.0192 65.0727 34.4334ZM64.0205 12.1685C58.568 12.1685 54.1199 16.6994 54.1199 22.2534C54.1199 27.7831 58.6158 32.3385 64.0205 32.3385C69.4251 32.3385 73.921 27.7588 73.921 22.2292C73.921 16.6994 69.4491 12.1441 64.0205 12.1685ZM59.6681 68.5373H68.325C68.349 68.3181 68.349 68.1232 68.349 67.9526C68.349 67.2706 68.3728 66.5885 68.325 65.9064C68.2533 65.0538 67.751 64.6154 66.8902 64.6154C64.977 64.6154 63.0639 64.6154 61.1507 64.6154C60.218 64.6154 59.6919 65.1269 59.6681 66.0769C59.6441 66.8808 59.6681 67.6603 59.6681 68.5373Z" fill="black"/>
<path d="M16.6585 46.6921C16.0842 46.6921 15.5101 46.7242 14.936 46.6921C14.29 46.66 13.8593 46.0518 13.8833 45.2834C13.9072 44.5472 14.3617 43.9388 14.9838 43.9069C16.1321 43.8748 17.2805 43.8748 18.4289 43.9069C19.0987 43.9069 19.5294 44.4832 19.5294 45.3155C19.5055 46.1158 19.1227 46.6602 18.4527 46.6602C17.8547 46.7242 17.2566 46.6921 16.6585 46.6921Z" fill="black"/>
<path d="M32.8999 53.7656C35.4682 53.885 37.6975 55.8184 37.867 58.2294C38.0609 60.8553 36.3164 63.1469 33.8206 63.5765C31.2038 64.0061 28.708 62.4545 28.0779 59.9959C27.86 59.1126 28.1022 58.5159 28.7322 58.3489C29.4348 58.1578 29.9195 58.5159 30.1617 59.399C30.6222 61.3326 32.7787 62.192 34.4506 61.1417C35.6137 60.4017 36.074 58.9456 35.5167 57.6805C34.9595 56.3913 33.5298 55.7469 32.1729 56.1049C31.9791 56.1527 31.7852 56.2242 31.5672 56.2958C30.9856 56.4391 30.4767 56.1765 30.283 55.6275C30.0649 55.0546 30.3072 54.5772 30.816 54.3624C31.4702 54.0759 32.1971 53.9565 32.8999 53.7656Z" fill="black"/>
<path d="M62.2859 23.5156C62.2859 24.7245 62.2859 25.8578 62.2859 26.9912C62.2653 27.8979 61.9557 28.3765 61.3365 28.3514C60.7793 28.3261 60.4903 27.8728 60.4697 26.9912C60.4697 23.7674 60.4697 20.5438 60.4903 17.32C60.4903 16.1614 60.9031 15.6828 61.8319 15.6577C62.6367 15.6577 63.421 15.6325 64.2053 15.6577C66.1041 15.6828 67.5075 17.3703 67.5282 19.5615C67.5488 21.7275 66.1041 23.4653 64.2467 23.5408C63.6068 23.5408 62.9876 23.5156 62.2859 23.5156ZM62.3271 21.2489C63.0496 21.2489 63.7306 21.274 64.4118 21.2489C65.134 21.1985 65.6501 20.5186 65.6707 19.637C65.6914 18.7556 65.2167 17.9747 64.515 17.8992C63.7926 17.8237 63.0496 17.8741 62.3271 17.8741V21.2489Z" fill="black"/>
</svg>
