<svg width="80" height="80" viewBox="0 0 80 80" fill="none" xmlns="http://www.w3.org/2000/svg">
<mask id="mask0_2384_1561" style="mask-type:luminance" maskUnits="userSpaceOnUse" x="4" y="4" width="72" height="72">
<path d="M4.5 4.5H75.5V75.5H4.5V4.5Z" fill="white" stroke="white"/>
</mask>
<g mask="url(#mask0_2384_1561)">
<mask id="path-2-inside-1_2384_1561" fill="white">
<path d="M64.6888 58.6865C69.427 58.3509 73.3754 54.3827 73.6913 49.7037C74.2046 42.1227 66.4064 36.8318 59.5756 40.109C59.3584 40.2077 59.1215 40.5039 59.082 40.7408C58.4898 43.9785 56.8117 46.545 54.3636 48.6772C54.1465 48.8548 53.9885 49.2694 54.0083 49.5458C54.2057 52.6651 55.6272 55.1329 58.1542 56.9492C59.5559 57.956 61.1352 58.5483 62.9318 58.6865C62.9318 58.3706 62.9318 58.1139 62.9318 57.877C62.9318 54.4024 62.9318 50.9475 62.9318 47.4729C62.9318 47.2162 62.8528 46.9003 62.991 46.7227C63.2082 46.4265 63.5833 46.0317 63.8597 46.0317C64.1558 46.0514 64.4519 46.4858 64.6691 46.7819C64.7678 46.9201 64.7086 47.1767 64.7086 47.3939C64.7086 49.3286 64.7086 51.2831 64.7086 53.2179C64.7086 53.3758 64.7481 53.5535 64.7678 53.7114C64.8468 53.7707 64.9258 53.8299 65.0245 53.8891C65.7549 53.0797 66.4459 52.2505 67.1961 51.4608C67.7094 50.9278 68.2622 50.8883 68.657 51.2831C69.0519 51.678 68.9729 52.211 68.4399 52.7243C67.3343 53.8101 66.209 54.8762 65.1034 55.962C64.9455 56.12 64.7481 56.3174 64.7481 56.5148C64.6494 57.2453 64.6888 57.9758 64.6888 58.6865ZM44.3938 73.6708H62.8726V60.5422C56.8907 59.5946 53.3173 56.1989 52.1525 50.1776C49.744 51.5595 47.1775 52.2505 44.3938 52.4282V73.6708ZM20.1306 48.6772C20.407 48.4205 20.6044 48.2823 20.7821 48.1046C21.8087 47.1175 22.8353 46.0909 23.8816 45.1235C24.4739 44.5708 25.3228 44.7287 25.4018 45.4197C25.4412 45.775 25.2438 46.2291 24.9872 46.4858C23.546 47.9467 22.0456 49.3681 20.5649 50.7896C20.407 50.9475 20.1503 51.1252 20.1503 51.3029C20.1108 52.3887 20.1306 53.4943 20.1306 54.5801C26.5271 54.2642 32.3905 48.7759 32.1931 41.4712C31.9957 34.0679 25.5597 28.3031 17.9983 29.0139C11.2662 29.6456 5.7384 35.5288 6.35041 42.8729C7.0019 50.5329 13.655 54.5406 18.3537 54.5209C18.3537 54.3037 18.3537 54.0668 18.3537 53.8496C18.3537 51.6977 18.3734 49.5458 18.334 47.4136C18.334 47.078 18.1365 46.6634 17.8996 46.4068C16.5374 45.0248 15.116 43.7021 13.734 42.3399C12.9443 41.5699 12.8259 41.1159 13.2997 40.6618C13.734 40.2275 14.2078 40.3459 14.958 41.0566C15.9451 42.0043 16.9125 42.9519 17.8996 43.8995C18.0181 44.018 18.1563 44.0969 18.3734 44.2549C18.3734 43.4652 18.3734 42.794 18.3734 42.1227C18.3734 41.1554 18.3734 40.188 18.3734 39.2206C18.3734 38.6876 18.6498 38.3322 19.2224 38.3125C19.795 38.2927 20.0516 38.6283 20.1108 39.1614C20.1306 39.3983 20.1306 39.6155 20.1306 39.8524C20.1306 42.5176 20.1306 45.163 20.1306 47.8282C20.0911 48.0849 20.1108 48.3218 20.1306 48.6772ZM42.5578 52.4282C38.7673 52.1913 35.3519 50.908 32.43 48.4402C32.351 48.5192 32.2918 48.539 32.2721 48.5784C32.1931 48.7166 32.0944 48.8548 32.0154 48.993C29.4884 53.2376 25.7769 55.7054 20.8808 56.3174C20.249 56.3964 20.0516 56.5741 20.0516 57.2255C20.0714 62.4375 20.0714 67.6692 20.0714 72.8812C20.0714 73.1378 20.0714 73.3747 20.0714 73.6708H42.538V52.4282H42.5578ZM44.4136 50.7698C45.7363 50.4934 46.98 50.3355 48.1646 49.9801C51.8959 48.8351 54.8572 46.6832 56.4761 43.0704C58.3911 38.806 57.6014 34.8576 54.6203 31.3435C54.1267 30.7512 53.9688 30.2774 54.3242 29.5469C56.022 25.8749 55.3902 22.5384 52.804 19.5178C52.3105 18.9255 52.1525 18.4517 52.4881 17.7212C53.7911 14.8389 53.3568 12.1539 51.3628 9.76511C48.6581 6.50764 43.7226 5.40207 39.5767 7.0012C34.9768 8.778 32.3708 13.6346 34.7004 18.0569C34.9373 18.5109 34.7793 18.9058 34.4635 19.2611C31.6601 22.42 31.0086 25.8946 32.8446 29.7641C33.0815 30.2774 33.0025 30.6722 32.6472 31.1065C32.0944 31.758 31.6008 32.449 31.0875 33.1203C31.1862 33.2782 31.2257 33.3769 31.3047 33.4756C33.9896 37.4043 34.6609 41.6489 33.2789 46.2094C33.1605 46.5845 33.2592 46.8016 33.5356 47.0385C36.1218 49.3089 39.1621 50.4145 42.6368 50.6711C42.6368 50.3947 42.6368 50.1578 42.6368 49.9012C42.6762 39.9116 42.7157 29.922 42.7552 19.9522C42.7552 19.7152 42.7552 19.4783 42.7749 19.2611C42.8539 18.7873 43.1501 18.4517 43.6239 18.5504C43.9397 18.6096 44.2754 18.9255 44.453 19.2019C44.5912 19.4191 44.532 19.7942 44.532 20.0904C44.5123 30.0207 44.4728 39.9708 44.453 49.9012C44.4136 50.1183 44.4136 50.3552 44.4136 50.7698ZM75.5076 74.9541C75.172 75.3884 74.7376 75.5266 74.1849 75.5266C51.3826 75.5069 28.6 75.5266 5.79762 75.5069C5.63969 75.5069 5.46201 75.5266 5.30407 75.4871C4.81051 75.4082 4.43541 75.0923 4.51438 74.6185C4.5736 74.2829 4.96845 73.9867 5.26458 73.7696C5.42252 73.6511 5.71865 73.7301 5.93582 73.7301C9.76582 73.7301 13.6156 73.7301 17.4456 73.7301H18.3142V73.0194C18.3142 67.7284 18.3142 62.4375 18.334 57.1466C18.334 56.5938 18.2155 56.3964 17.6232 56.3569C9.39071 55.6264 3.27062 47.6308 4.69206 39.5365C5.85685 32.9031 11.0491 27.9478 17.6825 27.2963C22.1245 26.862 26.0335 28.1847 29.3305 31.225C29.4884 31.3829 29.6661 31.5211 29.8635 31.7186C30.1991 31.2645 30.5545 30.8696 30.8309 30.4353C30.9296 30.2774 30.9296 30.001 30.8704 29.8036C29.291 25.7761 29.9425 22.1238 32.5485 18.7281C32.6867 18.5307 32.7656 18.1556 32.6867 17.9384C30.9098 13.3582 33.0815 8.54109 37.3261 6.13254C38.7278 5.34285 40.2282 4.82955 41.8273 4.63213C41.9655 4.61238 42.084 4.55316 42.2024 4.51367C43.0711 4.51367 43.9595 4.51367 44.8281 4.51367C44.9466 4.55316 45.0848 4.63213 45.2032 4.63213C47.1775 4.88878 48.9938 5.57975 50.6324 6.7248C54.3044 9.27155 55.8641 13.7333 54.4229 17.6423C54.2255 18.1556 54.3044 18.5109 54.6203 18.9453C57.0881 22.2225 57.7001 25.7761 56.1997 29.6456C56.022 30.0799 56.101 30.3563 56.3774 30.692C57.5816 32.1726 58.4503 33.8507 58.8649 35.7262C59.0426 36.5554 59.161 37.3846 59.2992 38.2335C59.5164 38.1545 59.6941 38.115 59.8717 38.0558C65.5575 36.0421 71.7763 38.5691 74.3231 44.0377C74.8956 45.242 75.1128 46.624 75.4879 47.9269V49.9999C75.4484 50.1776 75.3891 50.3552 75.3497 50.5329C74.5205 55.2908 71.8158 58.4496 67.2553 59.9895C66.4262 60.2659 65.5575 60.3843 64.7086 60.5817V73.7301C64.985 73.7301 65.2416 73.7301 65.4785 73.7301C68.3412 73.7301 71.2038 73.7498 74.0862 73.7103C74.6587 73.7103 75.1128 73.8288 75.4879 74.2631L75.5076 74.9541Z"/>
</mask>
<path d="M64.6888 58.6865C69.427 58.3509 73.3754 54.3827 73.6913 49.7037C74.2046 42.1227 66.4064 36.8318 59.5756 40.109C59.3584 40.2077 59.1215 40.5039 59.082 40.7408C58.4898 43.9785 56.8117 46.545 54.3636 48.6772C54.1465 48.8548 53.9885 49.2694 54.0083 49.5458C54.2057 52.6651 55.6272 55.1329 58.1542 56.9492C59.5559 57.956 61.1352 58.5483 62.9318 58.6865C62.9318 58.3706 62.9318 58.1139 62.9318 57.877C62.9318 54.4024 62.9318 50.9475 62.9318 47.4729C62.9318 47.2162 62.8528 46.9003 62.991 46.7227C63.2082 46.4265 63.5833 46.0317 63.8597 46.0317C64.1558 46.0514 64.4519 46.4858 64.6691 46.7819C64.7678 46.9201 64.7086 47.1767 64.7086 47.3939C64.7086 49.3286 64.7086 51.2831 64.7086 53.2179C64.7086 53.3758 64.7481 53.5535 64.7678 53.7114C64.8468 53.7707 64.9258 53.8299 65.0245 53.8891C65.7549 53.0797 66.4459 52.2505 67.1961 51.4608C67.7094 50.9278 68.2622 50.8883 68.657 51.2831C69.0519 51.678 68.9729 52.211 68.4399 52.7243C67.3343 53.8101 66.209 54.8762 65.1034 55.962C64.9455 56.12 64.7481 56.3174 64.7481 56.5148C64.6494 57.2453 64.6888 57.9758 64.6888 58.6865ZM44.3938 73.6708H62.8726V60.5422C56.8907 59.5946 53.3173 56.1989 52.1525 50.1776C49.744 51.5595 47.1775 52.2505 44.3938 52.4282V73.6708ZM20.1306 48.6772C20.407 48.4205 20.6044 48.2823 20.7821 48.1046C21.8087 47.1175 22.8353 46.0909 23.8816 45.1235C24.4739 44.5708 25.3228 44.7287 25.4018 45.4197C25.4412 45.775 25.2438 46.2291 24.9872 46.4858C23.546 47.9467 22.0456 49.3681 20.5649 50.7896C20.407 50.9475 20.1503 51.1252 20.1503 51.3029C20.1108 52.3887 20.1306 53.4943 20.1306 54.5801C26.5271 54.2642 32.3905 48.7759 32.1931 41.4712C31.9957 34.0679 25.5597 28.3031 17.9983 29.0139C11.2662 29.6456 5.7384 35.5288 6.35041 42.8729C7.0019 50.5329 13.655 54.5406 18.3537 54.5209C18.3537 54.3037 18.3537 54.0668 18.3537 53.8496C18.3537 51.6977 18.3734 49.5458 18.334 47.4136C18.334 47.078 18.1365 46.6634 17.8996 46.4068C16.5374 45.0248 15.116 43.7021 13.734 42.3399C12.9443 41.5699 12.8259 41.1159 13.2997 40.6618C13.734 40.2275 14.2078 40.3459 14.958 41.0566C15.9451 42.0043 16.9125 42.9519 17.8996 43.8995C18.0181 44.018 18.1563 44.0969 18.3734 44.2549C18.3734 43.4652 18.3734 42.794 18.3734 42.1227C18.3734 41.1554 18.3734 40.188 18.3734 39.2206C18.3734 38.6876 18.6498 38.3322 19.2224 38.3125C19.795 38.2927 20.0516 38.6283 20.1108 39.1614C20.1306 39.3983 20.1306 39.6155 20.1306 39.8524C20.1306 42.5176 20.1306 45.163 20.1306 47.8282C20.0911 48.0849 20.1108 48.3218 20.1306 48.6772ZM42.5578 52.4282C38.7673 52.1913 35.3519 50.908 32.43 48.4402C32.351 48.5192 32.2918 48.539 32.2721 48.5784C32.1931 48.7166 32.0944 48.8548 32.0154 48.993C29.4884 53.2376 25.7769 55.7054 20.8808 56.3174C20.249 56.3964 20.0516 56.5741 20.0516 57.2255C20.0714 62.4375 20.0714 67.6692 20.0714 72.8812C20.0714 73.1378 20.0714 73.3747 20.0714 73.6708H42.538V52.4282H42.5578ZM44.4136 50.7698C45.7363 50.4934 46.98 50.3355 48.1646 49.9801C51.8959 48.8351 54.8572 46.6832 56.4761 43.0704C58.3911 38.806 57.6014 34.8576 54.6203 31.3435C54.1267 30.7512 53.9688 30.2774 54.3242 29.5469C56.022 25.8749 55.3902 22.5384 52.804 19.5178C52.3105 18.9255 52.1525 18.4517 52.4881 17.7212C53.7911 14.8389 53.3568 12.1539 51.3628 9.76511C48.6581 6.50764 43.7226 5.40207 39.5767 7.0012C34.9768 8.778 32.3708 13.6346 34.7004 18.0569C34.9373 18.5109 34.7793 18.9058 34.4635 19.2611C31.6601 22.42 31.0086 25.8946 32.8446 29.7641C33.0815 30.2774 33.0025 30.6722 32.6472 31.1065C32.0944 31.758 31.6008 32.449 31.0875 33.1203C31.1862 33.2782 31.2257 33.3769 31.3047 33.4756C33.9896 37.4043 34.6609 41.6489 33.2789 46.2094C33.1605 46.5845 33.2592 46.8016 33.5356 47.0385C36.1218 49.3089 39.1621 50.4145 42.6368 50.6711C42.6368 50.3947 42.6368 50.1578 42.6368 49.9012C42.6762 39.9116 42.7157 29.922 42.7552 19.9522C42.7552 19.7152 42.7552 19.4783 42.7749 19.2611C42.8539 18.7873 43.1501 18.4517 43.6239 18.5504C43.9397 18.6096 44.2754 18.9255 44.453 19.2019C44.5912 19.4191 44.532 19.7942 44.532 20.0904C44.5123 30.0207 44.4728 39.9708 44.453 49.9012C44.4136 50.1183 44.4136 50.3552 44.4136 50.7698ZM75.5076 74.9541C75.172 75.3884 74.7376 75.5266 74.1849 75.5266C51.3826 75.5069 28.6 75.5266 5.79762 75.5069C5.63969 75.5069 5.46201 75.5266 5.30407 75.4871C4.81051 75.4082 4.43541 75.0923 4.51438 74.6185C4.5736 74.2829 4.96845 73.9867 5.26458 73.7696C5.42252 73.6511 5.71865 73.7301 5.93582 73.7301C9.76582 73.7301 13.6156 73.7301 17.4456 73.7301H18.3142V73.0194C18.3142 67.7284 18.3142 62.4375 18.334 57.1466C18.334 56.5938 18.2155 56.3964 17.6232 56.3569C9.39071 55.6264 3.27062 47.6308 4.69206 39.5365C5.85685 32.9031 11.0491 27.9478 17.6825 27.2963C22.1245 26.862 26.0335 28.1847 29.3305 31.225C29.4884 31.3829 29.6661 31.5211 29.8635 31.7186C30.1991 31.2645 30.5545 30.8696 30.8309 30.4353C30.9296 30.2774 30.9296 30.001 30.8704 29.8036C29.291 25.7761 29.9425 22.1238 32.5485 18.7281C32.6867 18.5307 32.7656 18.1556 32.6867 17.9384C30.9098 13.3582 33.0815 8.54109 37.3261 6.13254C38.7278 5.34285 40.2282 4.82955 41.8273 4.63213C41.9655 4.61238 42.084 4.55316 42.2024 4.51367C43.0711 4.51367 43.9595 4.51367 44.8281 4.51367C44.9466 4.55316 45.0848 4.63213 45.2032 4.63213C47.1775 4.88878 48.9938 5.57975 50.6324 6.7248C54.3044 9.27155 55.8641 13.7333 54.4229 17.6423C54.2255 18.1556 54.3044 18.5109 54.6203 18.9453C57.0881 22.2225 57.7001 25.7761 56.1997 29.6456C56.022 30.0799 56.101 30.3563 56.3774 30.692C57.5816 32.1726 58.4503 33.8507 58.8649 35.7262C59.0426 36.5554 59.161 37.3846 59.2992 38.2335C59.5164 38.1545 59.6941 38.115 59.8717 38.0558C65.5575 36.0421 71.7763 38.5691 74.3231 44.0377C74.8956 45.242 75.1128 46.624 75.4879 47.9269V49.9999C75.4484 50.1776 75.3891 50.3552 75.3497 50.5329C74.5205 55.2908 71.8158 58.4496 67.2553 59.9895C66.4262 60.2659 65.5575 60.3843 64.7086 60.5817V73.7301C64.985 73.7301 65.2416 73.7301 65.4785 73.7301C68.3412 73.7301 71.2038 73.7498 74.0862 73.7103C74.6587 73.7103 75.1128 73.8288 75.4879 74.2631L75.5076 74.9541Z" fill="#201637" stroke="#201637" stroke-width="2" mask="url(#path-2-inside-1_2384_1561)"/>
<path d="M64.6888 58.6865C69.427 58.3509 73.3754 54.3827 73.6913 49.7037C74.2046 42.1227 66.4064 36.8318 59.5756 40.109C59.3584 40.2077 59.1215 40.5039 59.082 40.7408C58.4898 43.9785 56.8117 46.545 54.3636 48.6772C54.1465 48.8548 53.9885 49.2694 54.0083 49.5458C54.2057 52.6651 55.6272 55.1329 58.1542 56.9492C59.5559 57.956 61.1352 58.5483 62.9318 58.6865C62.9318 58.3706 62.9318 58.1139 62.9318 57.877C62.9318 54.4024 62.9318 50.9475 62.9318 47.4729C62.9318 47.2162 62.8528 46.9003 62.991 46.7227C63.2082 46.4265 63.5833 46.0317 63.8597 46.0317C64.1558 46.0514 64.4519 46.4858 64.6691 46.7819C64.7678 46.9201 64.7086 47.1767 64.7086 47.3939C64.7086 49.3286 64.7086 51.2831 64.7086 53.2179C64.7086 53.3758 64.7481 53.5535 64.7678 53.7114C64.8468 53.7707 64.9258 53.8299 65.0245 53.8891C65.7549 53.0797 66.4459 52.2505 67.1961 51.4608C67.7094 50.9278 68.2622 50.8883 68.657 51.2831C69.0519 51.678 68.9729 52.211 68.4399 52.7243C67.3343 53.8101 66.209 54.8762 65.1034 55.962C64.9455 56.12 64.7481 56.3174 64.7481 56.5148C64.6494 57.2453 64.6888 57.9758 64.6888 58.6865ZM44.3938 73.6708H62.8726V60.5422C56.8907 59.5946 53.3173 56.1989 52.1525 50.1776C49.744 51.5595 47.1775 52.2505 44.3938 52.4282V73.6708ZM20.1306 48.6772C20.407 48.4205 20.6044 48.2823 20.7821 48.1046C21.8087 47.1175 22.8353 46.0909 23.8816 45.1235C24.4739 44.5708 25.3228 44.7287 25.4018 45.4197C25.4412 45.775 25.2438 46.2291 24.9872 46.4858C23.546 47.9467 22.0456 49.3681 20.5649 50.7896C20.407 50.9475 20.1503 51.1252 20.1503 51.3029C20.1108 52.3887 20.1306 53.4943 20.1306 54.5801C26.5271 54.2642 32.3905 48.7759 32.1931 41.4712C31.9957 34.0679 25.5597 28.3031 17.9983 29.0139C11.2662 29.6456 5.7384 35.5288 6.35041 42.8729C7.0019 50.5329 13.655 54.5406 18.3537 54.5209C18.3537 54.3037 18.3537 54.0668 18.3537 53.8496C18.3537 51.6977 18.3734 49.5458 18.334 47.4136C18.334 47.078 18.1365 46.6634 17.8996 46.4068C16.5374 45.0248 15.116 43.7021 13.734 42.3399C12.9443 41.5699 12.8259 41.1159 13.2997 40.6618C13.734 40.2275 14.2078 40.3459 14.958 41.0566C15.9451 42.0043 16.9125 42.9519 17.8996 43.8995C18.0181 44.018 18.1563 44.0969 18.3734 44.2549C18.3734 43.4652 18.3734 42.794 18.3734 42.1227C18.3734 41.1554 18.3734 40.188 18.3734 39.2206C18.3734 38.6876 18.6498 38.3322 19.2224 38.3125C19.795 38.2927 20.0516 38.6283 20.1108 39.1614C20.1306 39.3983 20.1306 39.6155 20.1306 39.8524C20.1306 42.5176 20.1306 45.163 20.1306 47.8282C20.0911 48.0849 20.1108 48.3218 20.1306 48.6772ZM42.5578 52.4282C38.7673 52.1913 35.3519 50.908 32.43 48.4402C32.351 48.5192 32.2918 48.539 32.2721 48.5784C32.1931 48.7166 32.0944 48.8548 32.0154 48.993C29.4884 53.2376 25.7769 55.7054 20.8808 56.3174C20.249 56.3964 20.0516 56.5741 20.0516 57.2255C20.0714 62.4375 20.0714 67.6692 20.0714 72.8812C20.0714 73.1378 20.0714 73.3747 20.0714 73.6708H42.538V52.4282H42.5578ZM44.4136 50.7698C45.7363 50.4934 46.98 50.3355 48.1646 49.9801C51.8959 48.8351 54.8572 46.6832 56.4761 43.0704C58.3911 38.806 57.6014 34.8576 54.6203 31.3435C54.1267 30.7512 53.9688 30.2774 54.3242 29.5469C56.022 25.8749 55.3902 22.5384 52.804 19.5178C52.3105 18.9255 52.1525 18.4517 52.4881 17.7212C53.7911 14.8389 53.3568 12.1539 51.3628 9.76511C48.6581 6.50764 43.7226 5.40207 39.5767 7.0012C34.9768 8.778 32.3708 13.6346 34.7004 18.0569C34.9373 18.5109 34.7793 18.9058 34.4635 19.2611C31.6601 22.42 31.0086 25.8946 32.8446 29.7641C33.0815 30.2774 33.0025 30.6722 32.6472 31.1065C32.0944 31.758 31.6008 32.449 31.0875 33.1203C31.1862 33.2782 31.2257 33.3769 31.3047 33.4756C33.9896 37.4043 34.6609 41.6489 33.2789 46.2094C33.1605 46.5845 33.2592 46.8016 33.5356 47.0385C36.1218 49.3089 39.1621 50.4145 42.6368 50.6711C42.6368 50.3947 42.6368 50.1578 42.6368 49.9012C42.6762 39.9116 42.7157 29.922 42.7552 19.9522C42.7552 19.7152 42.7552 19.4783 42.7749 19.2611C42.8539 18.7873 43.1501 18.4517 43.6239 18.5504C43.9397 18.6096 44.2754 18.9255 44.453 19.2019C44.5912 19.4191 44.532 19.7942 44.532 20.0904C44.5123 30.0207 44.4728 39.9708 44.453 49.9012C44.4136 50.1183 44.4136 50.3552 44.4136 50.7698ZM75.5076 74.9541C75.172 75.3884 74.7376 75.5266 74.1849 75.5266C51.3826 75.5069 28.6 75.5266 5.79762 75.5069C5.63969 75.5069 5.46201 75.5266 5.30407 75.4871C4.81051 75.4082 4.43541 75.0923 4.51438 74.6185C4.5736 74.2829 4.96845 73.9867 5.26458 73.7696C5.42252 73.6511 5.71865 73.7301 5.93582 73.7301C9.76582 73.7301 13.6156 73.7301 17.4456 73.7301H18.3142V73.0194C18.3142 67.7284 18.3142 62.4375 18.334 57.1466C18.334 56.5938 18.2155 56.3964 17.6232 56.3569C9.39071 55.6264 3.27062 47.6308 4.69206 39.5365C5.85685 32.9031 11.0491 27.9478 17.6825 27.2963C22.1245 26.862 26.0335 28.1847 29.3305 31.225C29.4884 31.3829 29.6661 31.5211 29.8635 31.7186C30.1991 31.2645 30.5545 30.8696 30.8309 30.4353C30.9296 30.2774 30.9296 30.001 30.8704 29.8036C29.291 25.7761 29.9425 22.1238 32.5485 18.7281C32.6867 18.5307 32.7656 18.1556 32.6867 17.9384C30.9098 13.3582 33.0815 8.54109 37.3261 6.13254C38.7278 5.34285 40.2282 4.82955 41.8273 4.63213C41.9655 4.61238 42.084 4.55316 42.2024 4.51367C43.0711 4.51367 43.9595 4.51367 44.8281 4.51367C44.9466 4.55316 45.0848 4.63213 45.2032 4.63213C47.1775 4.88878 48.9938 5.57975 50.6324 6.7248C54.3044 9.27155 55.8641 13.7333 54.4229 17.6423C54.2255 18.1556 54.3044 18.5109 54.6203 18.9453C57.0881 22.2225 57.7001 25.7761 56.1997 29.6456C56.022 30.0799 56.101 30.3563 56.3774 30.692C57.5816 32.1726 58.4503 33.8507 58.8649 35.7262C59.0426 36.5554 59.161 37.3846 59.2992 38.2335C59.5164 38.1545 59.6941 38.115 59.8717 38.0558C65.5575 36.0421 71.7763 38.5691 74.3231 44.0377C74.8956 45.242 75.1128 46.624 75.4879 47.9269V49.9999C75.4484 50.1776 75.3891 50.3552 75.3497 50.5329C74.5205 55.2908 71.8158 58.4496 67.2553 59.9895C66.4262 60.2659 65.5575 60.3843 64.7086 60.5817V73.7301C64.985 73.7301 65.2416 73.7301 65.4785 73.7301C68.3412 73.7301 71.2038 73.7498 74.0862 73.7103C74.6587 73.7103 75.1128 73.8288 75.4879 74.2631L75.5076 74.9541Z" fill="#201637" stroke="#201637" stroke-width="0.5" stroke-miterlimit="22.9256"/>
</g>
</svg>
