<?xml version="1.0" encoding="UTF-8"?>
<svg id="_Слой_2" data-name="Слой 2" xmlns="http://www.w3.org/2000/svg" viewBox="0 0 207.15 224.66">
  <defs>
    <style>
      .cls-1 {
        fill: #005130;
      }
    </style>
  </defs>
  <g id="_Слой_1-2" data-name="Слой 1">
    <g>
      <path class="cls-1" d="m207.09,110.91v-.21h0s.05,0,.05,0l-.05-.02h0v-1.79h0,0v-23.27h0s.04,0,.04,0l-.04-.02h0v-2.11h0V25.67s0,0,0,0h0s0,0,0,0h.03-.03v-7s.05-.08.05-.13c0-.1-.08-.18-.18-.18h-17.77c-.05-.05-.12-.09-.2-.09h-40.21s-.07-.09-.12-.12v-10.07c.13-.09.21-.22.21-.39V.48c0-.26-.21-.48-.48-.48h-7.23c-.16,0-.3.09-.39.21H33.39c-.09-.13-.22-.21-.39-.21h-7.23c-.26,0-.48.21-.48.48v7.23c0,.16.09.3.21.39v100.19s-.09.07-.12.12H8.09c-.09-.13-.22-.21-.39-.21H.48c-.26,0-.48.21-.48.48v7.23c0,.16.09.3.21.39v100.29c-.13.09-.21.22-.21.39v7.23c0,.26.21.48.48.48h7.23c.26,0,.48-.21.48-.48v-2.13h17.11v2.13c0,.26.21.48.48.48h7.23c.26,0,.48-.21.48-.48v-2.75h2.08c0,.05.05.09.1.09h10.73c.05,0,.1-.04.1-.09h94.22v2.75c0,.26.21.48.48.48h7.23c.26,0,.48-.21.48-.48v-2.54h39.97c.12,0,.23-.1.23-.23v-4.46c0-.09-.05-.16-.13-.2v-14.25c0-.15-.12-.27-.27-.27h-4.57c-.15,0-.27.12-.27.27v14.19h-35.06c-.09-.13-.22-.21-.39-.21h-3.4v-14.4c0-.12-.1-.21-.21-.21s-.21.1-.21.21v14.4h-3.4c-.16,0-.3.09-.39.21h-11.18l-.12-.13v-19.16h15.09v.64c0,.12.1.21.21.21s.21-.1.21-.21v-.64h38.52l-1.86,1.91h0s.43.44.43.44h0s0,0,0,0l1.9-1.86v1.96c0,.06.05.11.11.11s.11-.05.11-.11v-2.17l.28-.28h2.37c.06,0,.11-.05.11-.11s-.05-.11-.11-.11h-2.15l1.95-1.91h0s-.54-.55-.54-.55h0s-1.91,1.95-1.91,1.95v-2.15c0-.06-.05-.11-.11-.11s-.11.05-.11.11v2.37l-.28.29h-38.72v-15.3c0-.12-.1-.21-.21-.21s-.21.1-.21.21v15.3h-15.09v-65.89h15.09v5.85c0,.12.1.21.21.21s.21-.1.21-.21v-5.85h22.3l-1.9,1.91h0s.43.55.43.55h0s0,0,0,0l1.75-1.7v13.6c0,.15.12.27.27.27h2.23c.15,0,.27-.12.27-.27v-5.15h20.33l.12.13v24.31l-1.91-1.86h0s-.43.43-.43.43h0s1.75,1.76,1.75,1.76h-19.86v-5.15c0-.15-.12-.27-.27-.27h-2.23c-.15,0-.27.12-.27.27v7.55c0,.15.12.27.27.27h15.99v16.53c0,.15.12.27.27.27h4.57c.15,0,.27-.12.27-.27v-14.45h18.12s0-4.46,0-4.46h.01,0v-27.42h0,0v-9.35h0,0v-17.85Zm-16.06,5.83s0,0,.01,0c.1.08.17.2.22.36s.07.47.07.91c0,.75-.03,1.25-.08,1.5-.03.16-.1.28-.2.37,0,0-.02,0-.02.01v-3.17Zm-.21,3.24s-.04,0-.06,0c-.12,0-.23-.05-.32-.14-.09-.1-.16-.24-.18-.42-.04-.24-.05-.5-.05-.78,0-.53.01-.94.04-1.23.03-.3.09-.49.19-.59s.21-.15.34-.15c.01,0,.03,0,.04,0v3.31Zm1.27-.36c.26-.35.39-.78.39-1.3,0-.36-.07-.69-.21-.99-.14-.3-.35-.54-.62-.7-.19-.12-.4-.18-.62-.21v-3.93h11.21v15.99h-11.21v-8.25c.44-.06.79-.25,1.06-.61Zm-183.91-4v-1.86h17.11v1.86H8.18Zm182.85,22.21v-.27c0-.06-.05-.11-.11-.11s-.11.05-.11.11v.27h-1.84l-.06-.06h0s-.07.06-.07.06h-18.38l2.12-4.53,29.23-2.17h.44v6.7h-11.21Zm-2.29-116h-14.83c-.12,0-.21.1-.21.21s.1.21.21.21h14.83v.64h-24.76v-.64h5.9c.12,0,.21-.1.21-.21s-.1-.21-.21-.21h-5.9v-.64h24.76v.64ZM127.42,4.94h-19.29c0-.06-.05-.11-.11-.11s-.11.05-.11.11h-5.26v-.64h1.65c.12,0,.21-.1.21-.21s-.1-.21-.21-.21h-1.65v-.64h24.76v1.7Zm-21.85.74h0s1.75,1.76,1.75,1.76h-4.66v-1.86h2.99l-.08.1Zm.88-.1h1.47v1.47l-1.47-1.47Zm-34.93-1.7h-3.77c-.12,0-.21.1-.21.21s.1.21.21.21h3.77v.64h-24.76v-1.7h24.76v.64ZM25.29,112.07h-.9c-.12,0-.21.1-.21.21s.1.21.21.21h.9v.64H8.18v-.64h12.17c.12,0,.21-.1.21-.21s-.1-.21-.21-.21h-12.17v-.64h17.11v.64ZM46.76,5.58h24.76v1.86h-24.76v-1.86Zm61.55,1.86l-.18-.18v-1.68h19.29v1.86h-19.11Zm55.67,16.1h24.59l-.1.1h0s.28.3.28.3v1.46h-24.76v-1.86Zm24.76-2.98h-24.76v-1.75h24.76v1.75ZM127.42,2.6h-24.76V.74h24.76v1.86Zm-55.9,0h-24.76V.74h24.76v1.86ZM25.29,110.79H8.18v-1.86h17.11v1.86Zm-17.11,106.43h17.11v1.86H8.18v-1.86Zm36.3-2.82h0s-.44.54-.44.54l1.75,1.75h-12.4c-.09-.13-.22-.21-.39-.21h-3.4v-14.4c0-.12-.1-.21-.21-.21s-.21.1-.21.21v14.4h-3.4c-.16,0-.3.09-.39.21H8.09c-.08-.12-.22-.21-.38-.21v-33.54c.05,0,.09-.05.09-.1v-2.23s0-.02-.01-.03l.3-.29h38.29v36.06l-1.9-1.95Zm-36.17-34.32l1.95-1.91h0s-.54-.55-.54-.55h0s-2.01,2.05-2.01,2.05v-12.12h21.46v10.19c0,.12.1.21.21.21s.21-.1.21-.21v-10.19h16.68l.11.11v12.42H8.31Zm38.29-11.9v-.3l1.91,1.91.43-.43h0s-1.8-1.8-1.8-1.8h.92l.43.43.43-.43h48.98v12.1s-.43.43-.43.43h-50.89v-11.9Zm48.77-7.02h0s.54.55.54.55h0s1.75-1.79,1.75-1.79v5.13h-51.07v-5.79h50.72l-1.95,1.91Zm-48.98,3.52v.3l-1.91-1.91-.43.43h0s1.54,1.55,1.54,1.55h-.92l-.18-.18-.18.18h-14.7v-3.45c0-.12-.1-.21-.21-.21s-.21.1-.21.21v3.45H7.97v-5.62l.18-.18h38.24v5.42Zm-38.03-5.63l1.91-1.91h0s-.54-.44-.54-.44h0s-1.75,1.75-1.75,1.75v-42.16s.09-.07.12-.12h17.29c.09.13.22.21.39.21h3.4v.48c0,.12.1.21.21.21s.21-.1.21-.21v-.48h3.4c.16,0,.3-.09.39-.21h12.88l.12.13v42.76H8.36Zm38.03-45.88l-.65-.67h.65v.67Zm-1.07-1.09l-.84-.86h0s-.44.54-.44.54l.46.46s-.01.05-.01.07c0,.12.1.21.21.21h.09l1.01,1.01h-1.24l-.07-.07-.07.07h-10.93v-1.01h7.17c.12,0,.21-.1.21-.21s-.1-.21-.21-.21h-7.17v-3.4c0-.16-.09-.3-.21-.39v-45.4l.12-.12h13.01v49.31h-1.07Zm-11.73-49.52l1.86-1.91h0s-.43-.44-.43-.44h0s0,0,0,0l-1.75,1.7V8.09s.09-.07.12-.12h12.93l.07.07v54.5h-12.8Zm13.01-54.29l1.91,1.91.43-.43h0s-1.71-1.76-1.71-1.76h39.58v54.45l-.13.12h-40.1V8.25Zm59.42,72.67h0s-.43.53-.43.53h0s1.75,1.76,1.75,1.76h-17.84v-20.28l.18-.18h18.26v20.07l-1.9-1.9Zm-16.15-18.38l1.91-1.91h0s-.54-.44-.54-.44h0s-1.75,1.75-1.75,1.75v-1.24l.06-.06h0s-.07-.08-.07-.08V7.97h18.37l.07.07v31.9c-.19.33-.28.7-.28,1.11s.1.76.28,1.09v20.41h-18.05Zm18.26-20.1c.29.35.7.53,1.22.53.56,0,1-.21,1.32-.63.26-.35.39-.78.39-1.3,0-.36-.07-.69-.21-.99-.14-.3-.35-.54-.62-.7-.27-.16-.57-.25-.89-.25-.51,0-.91.18-1.21.54V8.25l1.91,1.9h0s.54-.42.54-.42h.01s-1.75-1.76-1.75-1.76h31.96s.07.09.12.12v10.07c-.13.09-.21.22-.21.39v3.29h-8.24c-.12,0-.21.1-.21.21s.1.21.21.21h8.24v3.4c0,.16.09.3.21.39v36.42l-.07.07h-32.72v-20.1Zm.65-1.09c0-.53.01-.94.04-1.23.03-.3.09-.49.19-.59s.21-.15.34-.15c.11,0,.2.03.27.08.1.08.17.2.22.36s.07.47.07.91c0,.75-.03,1.25-.08,1.5-.03.16-.1.28-.2.37-.08.07-.18.1-.29.1s-.23-.05-.32-.14c-.09-.1-.16-.24-.18-.42-.04-.24-.05-.5-.05-.78Zm35.23,21.19l.58-.59v.59h-.58Zm1-1.03l.86-.88h0s-.43-.44-.43-.44h0s0,0,0,0l-.42.41v-.51c0-.12-.1-.21-.21-.21s-.21.1-.21.21v.92l-.9.88v-1.2l.06-.06h0s-.07-.07-.07-.07V26.14h.9v9.62c0,.12.1.21.21.21s.21-.1.21-.21v-9.62h3.4c.16,0,.3-.09.39-.21h41.89l.12.13v36.49h-45.8v-1.03Zm46.02-35.24l1.9,1.95h0s.44-.54.44-.54l-1.75-1.75h10.61v36.54l-.07.07h-11.14V26.27Zm10.93,36.48l-1.9,1.91h0s.43.55.43.55h0s0,0,0,0l1.74-1.74v19.75h-11.09l-.12-.13v-20.33h10.93Zm-29.41,31.89h0s-.43-.55-.43-.55h0s0,0,0,0l-1.74,1.74v-9.97h20.39l.07.07v6.06c-.02-.28-.06-.52-.11-.72-.09-.37-.23-.68-.39-.94-.17-.26-.38-.45-.63-.59-.26-.14-.55-.2-.89-.2-.46,0-.84.12-1.14.37-.3.25-.53.6-.68,1.05s-.23,1.06-.23,1.8c0,1.19.21,2.04.62,2.57.35.44.83.65,1.43.65.46,0,.84-.12,1.15-.37s.53-.6.68-1.06c.1-.3.16-.66.2-1.08v3.06h-20.18l1.9-1.91Zm17.51-1.87c0,1.03-.12,1.72-.36,2.07-.24.34-.54.52-.9.52s-.66-.17-.9-.51c-.24-.34-.36-1.03-.36-2.07s.13-1.75.4-2.13c.21-.3.5-.45.85-.45s.66.17.91.51c.24.34.36,1.03.36,2.07Zm.98-6.62l1.91,1.91.43-.43h0s-1.75-1.76-1.75-1.76h1.24l.07.07.07-.07h9.23v10.56l-.12.12h-11.09v-10.4Zm10.89,10.61l-1.86,1.91h0s.43.44.43.44h0s0,0,0,0l1.75-1.7v14.66h-11.21v-15.3h10.89ZM8.18,221.42v-.64h11.11c.12,0,.21-.1.21-.21s-.1-.21-.21-.21h-11.11v-.64h17.11v.64h-1.97c-.12,0-.21.1-.21.21s.1.21.21.21h1.97v.64H8.18Zm121.1-24.23h-28.62l1.95-1.91h0s-.54-.55-.54-.55h0s-1.91,1.95-1.91,1.95v-3.22c0-.06-.05-.11-.11-.11s-.11.05-.11.11v3.43l-.28.29h-2.27c-.06,0-.11.05-.11.11s.05.11.11.11h2.06l-1.86,1.91h0s.43.44.43.44h0s0,0,0,0l1.9-1.86v2.06c0,.06.05.11.11.11s.11-.05.11-.11v-2.27l.28-.28h28.83v18.95l-1.9-1.95h0s-.54.53-.54.53h0s1.79,1.76,1.79,1.76h-28.29v-9.72c0-.15-.12-.27-.27-.27h-2.13c-.15,0-.27.12-.27.27v9.72h-50.94l-.12-.13v-36.27h50.68l-1.91,1.91h0s.54.44.54.44h0s1.91-1.91,1.91-1.91v2.11c0,.05.04.09.09.1v7.61c-.14,0-.25.12-.25.26s.12.27.27.27h2.13c.15,0,.27-.12.27-.27v-10.52h.27c.06,0,.11-.05.11-.11s-.05-.11-.11-.11h-.27v-1.84l.06-.06h0s-.07-.09-.07-.09v-18.83h.27c.06,0,.11-.05.11-.11s-.05-.11-.11-.11h-.27v-1.84l.06-.06h0s-.07-.08-.07-.08v-1.63c0-.15-.12-.27-.27-.27h-2.13c-.15,0-.27.12-.27.27v3.49l-.13.12h-50.94v-42.54l1.9,1.95h0s.44-.54.44-.54l-1.75-1.75h1.24l.07.07.07-.07h49.08v14.93h-.27c-.06,0-.11.05-.11.11s.05.11.11.11h.27v1.84l-.06.06h0s.07.09.07.09v5.87c0,.15.12.27.27.27h2.13c.15,0,.27-.12.27-.27v-7.64l.23-.23h28.73v65.89Zm15.73-66.1v-10.1c0-.12-.1-.21-.21-.21s-.21.1-.21.21v10.1h-15.09v-18.6h11.21v3.4c0,.26.21.48.48.48h3.4v.48c0,.12.1.21.21.21s.21-.1.21-.21v-.48h3.4c.26,0,.48-.21.48-.48v-3.4h13.55c.12,0,.21-.1.21-.21s-.1-.21-.21-.21h-13.55v-3.4c0-.26-.21-.48-.48-.48h-3.4v-7.49c0-.12-.1-.21-.21-.21s-.21.1-.21.21v7.49h-3.4c-.26,0-.48.21-.48.48v3.4h-11.21v-25.87l1.9,1.86h0s.43-.42.43-.42h0s-1.91-1.92-1.91-1.92h2.11c.06,0,.11-.05.11-.11s-.05-.11-.11-.11h-2.32l-.23-.23v-2.32c0-.06-.05-.11-.11-.11s-.11.05-.11.11v2.11l-1.9-1.9h0s-.54.42-.54.42h-.01s1.96,1.92,1.96,1.92h-7.47c-.06,0-.11.05-.11.11s.05.11.11.11h7.69l.29.28v26.08h-3.4c-.12,0-.21.1-.21.21s.1.21.21.21h3.4v18.6h-28.51l1.84-1.8h0s-.54-.55-.54-.55h0s-1.75,1.74-1.75,1.74v-18h1.22c.12,0,.21-.1.21-.21s-.1-.21-.21-.21h-1.22v-6.06c0-.15-.12-.27-.27-.27h-2.13c-.15,0-.27.12-.27.27v6.06h-12.38c-.12,0-.21.1-.21.21s.1.21.21.21h12.38v1.01h-50.94l-.12-.13v-.88h14.35c.12,0,.21-.1.21-.21s-.1-.21-.21-.21h-14.35v-49.31h39.88l-1.95,1.91h0s.54.55.54.55h0s1.75-1.79,1.75-1.79v1.18l-.06.06h0s.07.09.07.09v20.85c0,.15.12.27.27.27h10.57v3.88c0,.15.12.27.27.27h2.13c.15,0,.27-.12.27-.27v-3.88h7.6v.27c0,.06.05.11.11.11s.11-.05.11-.11v-.27h1.84l.06.06h0s.09-.06.09-.06h8.52c.15,0,.27-.12.27-.27v-2.13c0-.15-.12-.27-.27-.27h-10.34l-.18-.18v-20.28h32.5l-1.9,1.91h0s.43.55.43.55h0s0,0,0,0l1.74-1.74v1.14l-.06.06h0s.07.08.07.08v18.48h-6c-.15,0-.27.12-.27.27v2.13c0,.15.12.27.27.27h9.67v10.68c0,.12.1.21.21.21s.21-.1.21-.21v-10.68h2.55c.15,0,.27-.12.27-.27v-2.13c0-.15-.12-.27-.27-.27h-2.55v-2.82c0-.12-.1-.21-.21-.21s-.21.1-.21.21v2.82h-.9v-20.34l.12-.12h.78v13.5c0,.12.1.21.21.21s.21-.1.21-.21v-13.5h45.8v20.11l-1.91-1.95h0s-.44.54-.44.54l1.75,1.75h-1.24l-.07-.07-.07.07h-25.12c-.15,0-.27.12-.27.27v2.13c0,.15.12.27.27.27h3.88v10.68h-.27c-.06,0-.11.05-.11.11s.05.11.11.11h.27v1.84l-.06.06h0s.07.07.07.07v10.15c0,.15.12.27.27.27h2.23c.15,0,.27-.12.27-.27v-12.05l.07-.07h20.39v15.3h-2.54c.56-.1,1.01-.27,1.33-.52.44-.35.65-.83.65-1.43,0-.46-.12-.84-.37-1.15-.25-.3-.6-.53-1.06-.68-.46-.15-1.05-.23-1.79-.23-.63,0-1.12.05-1.49.14-.37.09-.68.23-.94.39-.26.17-.45.38-.59.63s-.2.55-.2.89c0,.46.12.84.37,1.14.25.3.6.53,1.05.68.36.12.82.19,1.37.22-.02.03-.04.07-.04.12,0,.12.1.21.21.21h4.04v3.9s-.04,0-.06,0c-.53,0-.95.19-1.25.58-.3.39-.46.85-.46,1.37,0,.45.12.85.35,1.2v1.46c-.14-.09-.28-.19-.42-.33-.1-.09-.26-.27-.48-.53h.05v-.14c-.1-.01-.17-.04-.22-.07-.04-.05-.08-.1-.13-.15-.03-.09-.04-.24-.04-.44v-1.5c0-.21,0-.38-.02-.53h.5v-2.74h1.51v-.77h-1.51v-.85h-.71v.85h-4.09v.63l2.88,2.03c-.05.02-.11.04-.16.06-.19.1-.39.27-.6.51-.09-.22-.21-.39-.37-.5-.16-.11-.36-.16-.59-.16-.2,0-.39.04-.56.13-.17.09-.36.24-.56.46v-.48h-1.49v.14c.16.02.27.07.32.13.05.07.08.24.08.52v2.06c0,.28-.02.45-.07.51-.07.08-.17.13-.33.15v.14h1.44c.04.47.19.87.45,1.17.31.36.76.56,1.36.62l.08-.8c-.4,0-.71-.12-.93-.34-.22-.22-.34-.52-.34-.9,0-.35.11-.64.32-.86.05-.05.1-.09.15-.13v.44c0,.21,0,.35-.03.42s-.06.12-.12.16c-.06.05-.14.07-.24.08v.14h1.89v-.14c-.17-.01-.28-.06-.34-.16-.04-.07-.07-.23-.07-.5v-.54c.15.06.3.15.46.26.16.12.35.29.57.52-.01.11-.03.2-.06.24-.07.1-.18.16-.33.17v.14h.88c.09.1.17.2.27.31.36.44.68.78.96,1.01s.56.4.84.51c.17.07.35.1.54.09v-1.93c.19.07.39.11.62.11.02,0,.03,0,.04,0v8.05l-1.91-1.91-.43.43h0s1.61,1.66,1.61,1.66h-19.71v-5.15c0-.15-.12-.27-.27-.27h-2.23c-.15,0-.27.12-.27.27v7.69l-.07.07h-22.51Zm39.9-20.11c-.3-.21-.45-.5-.45-.85s.17-.66.51-.91,1.03-.36,2.07-.36,1.72.12,2.07.36c.34.24.52.54.52.9s-.17.66-.51.9-1.03.36-2.07.36-1.75-.13-2.13-.4Zm-1.03,8.34v-1.92c.14-.2.27-.33.39-.41.09-.05.18-.08.29-.08.07,0,.14.02.2.07.06.05.1.11.13.2s.04.29.04.62v.25c-.22.09-.43.22-.61.41-.22.23-.36.52-.44.87Zm4.05-2.74l-2.85-1.98h2.85v1.98Zm-.9.59c.03.09.04.3.04.62v.79c-.26-.23-.52-.4-.76-.5-.1-.04-.19-.07-.29-.09v-.59c.12-.16.23-.29.35-.37s.23-.12.34-.12c.08,0,.14.02.2.06.06.04.1.11.12.2Zm4,23.68l1.9,1.95h0s.54-.53.54-.53h0s-1.8-1.76-1.8-1.76h10.55v24.76h-11.09l-.12-.12v-24.3Z"/>
      <path class="cls-1" d="m21.31,220.36c-.12,0-.21.1-.21.21s.1.21.21.21.21-.1.21-.21-.1-.21-.21-.21Z"/>
      <path class="cls-1" d="m22.37,112.49c.12,0,.21-.1.21-.21s-.1-.21-.21-.21-.21.1-.21.21.1.21.21.21Z"/>
      <path class="cls-1" d="m42.67,112.07c-.12,0-.21.1-.21.21s.1.21.21.21.21-.1.21-.21-.1-.21-.21-.21Z"/>
      <path class="cls-1" d="m62.97,112.07c-.12,0-.21.1-.21.21s.1.21.21.21.21-.1.21-.21-.1-.21-.21-.21Z"/>
      <path class="cls-1" d="m81.25,112.07h-16.26c-.12,0-.21.1-.21.21s.1.21.21.21h16.26c.12,0,.21-.1.21-.21s-.1-.21-.21-.21Z"/>
      <path class="cls-1" d="m83.27,112.07c-.12,0-.21.1-.21.21s.1.21.21.21.21-.1.21-.21-.1-.21-.21-.21Z"/>
      <path class="cls-1" d="m103.57,112.07c-.12,0-.21.1-.21.21s.1.21.21.21.21-.1.21-.21-.1-.21-.21-.21Z"/>
      <path class="cls-1" d="m105.37,112.28c0,.12.1.21.21.21h16.26c.12,0,.21-.1.21-.21s-.1-.21-.21-.21h-16.26c-.12,0-.21.1-.21.21Z"/>
      <circle class="cls-1" cx="123.86" cy="112.28" r=".21"/>
      <circle class="cls-1" cx="164.46" cy="112.28" r=".21"/>
      <path class="cls-1" d="m166.48,112.49h16.26c.12,0,.21-.1.21-.21s-.1-.21-.21-.21h-16.26c-.12,0-.21.1-.21.21s.1.21.21.21Z"/>
      <circle class="cls-1" cx="184.76" cy="112.28" r=".21"/>
      <path class="cls-1" d="m47.45,4.3h16.26c.12,0,.21-.1.21-.21s-.1-.21-.21-.21h-16.26c-.12,0-.21.1-.21.21s.1.21.21.21Z"/>
      <path class="cls-1" d="m65.73,4.3c.12,0,.21-.1.21-.21s-.1-.21-.21-.21-.21.1-.21.21.1.21.21.21Z"/>
      <path class="cls-1" d="m106.33,4.3c.12,0,.21-.1.21-.21s-.1-.21-.21-.21-.21.1-.21.21.1.21.21.21Z"/>
      <path class="cls-1" d="m108.35,4.3h16.26c.12,0,.21-.1.21-.21s-.1-.21-.21-.21h-16.26c-.12,0-.21.1-.21.21s.1.21.21.21Z"/>
      <path class="cls-1" d="m126.63,4.3c.12,0,.21-.1.21-.21s-.1-.21-.21-.21-.21.1-.21.21.1.21.21.21Z"/>
      <circle class="cls-1" cx="144.8" cy="37.78" r=".21"/>
      <path class="cls-1" d="m144.8,56.17c.12,0,.21-.1.21-.21v-16.15c0-.12-.1-.21-.21-.21s-.21.1-.21.21v16.15c0,.12.1.21.21.21Z"/>
      <circle class="cls-1" cx="144.8" cy="58.08" r=".21"/>
      <circle class="cls-1" cx="144.8" cy="78.38" r=".21"/>
      <circle class="cls-1" cx="144.8" cy="98.68" r=".21"/>
      <path class="cls-1" d="m144.8,118.66c-.12,0-.21.1-.21.21s.1.21.21.21.21-.1.21-.21-.1-.21-.21-.21Z"/>
      <path class="cls-1" d="m144.8,138.95c-.12,0-.21.1-.21.21s.1.21.21.21.21-.1.21-.21-.1-.21-.21-.21Z"/>
      <path class="cls-1" d="m144.8,157.66c.12,0,.21-.1.21-.21v-16.15c0-.12-.1-.21-.21-.21s-.21.1-.21.21v16.15c0,.12.1.21.21.21Z"/>
      <path class="cls-1" d="m144.8,159.25c-.12,0-.21.1-.21.21s.1.21.21.21.21-.1.21-.21-.1-.21-.21-.21Z"/>
      <path class="cls-1" d="m145.01,177.74v-16.15c0-.12-.1-.21-.21-.21s-.21.1-.21.21v16.15c0,.12.1.21.21.21s.21-.1.21-.21Z"/>
      <path class="cls-1" d="m144.8,179.98c.12,0,.21-.1.21-.21s-.1-.21-.21-.21-.21.1-.21.21.1.21.21.21Z"/>
      <path class="cls-1" d="m144.8,199.85c-.12,0-.21.1-.21.21s.1.21.21.21.21-.1.21-.21-.1-.21-.21-.21Z"/>
      <path class="cls-1" d="m29.39,118.66c-.12,0-.21.1-.21.21s.1.21.21.21.21-.1.21-.21-.1-.21-.21-.21Z"/>
      <path class="cls-1" d="m29.39,137.36c.12,0,.21-.1.21-.21v-16.15c0-.12-.1-.21-.21-.21s-.21.1-.21.21v16.15c0,.12.1.21.21.21Z"/>
      <path class="cls-1" d="m29.39,138.95c-.12,0-.21.1-.21.21s.1.21.21.21.21-.1.21-.21-.1-.21-.21-.21Z"/>
      <path class="cls-1" d="m29.39,141.08c-.12,0-.21.1-.21.21v16.15c0,.12.1.21.21.21s.21-.1.21-.21v-16.15c0-.12-.1-.21-.21-.21Z"/>
      <path class="cls-1" d="m29.39,159.68c.12,0,.21-.1.21-.21s-.1-.21-.21-.21-.21.1-.21.21.1.21.21.21Z"/>
      <path class="cls-1" d="m29.39,179.55c-.12,0-.21.1-.21.21s.1.21.21.21.21-.1.21-.21-.1-.21-.21-.21Z"/>
      <path class="cls-1" d="m29.39,198.26c.12,0,.21-.1.21-.21v-16.15c0-.12-.1-.21-.21-.21s-.21.1-.21.21v16.15c0,.12.1.21.21.21Z"/>
      <path class="cls-1" d="m29.39,199.85c-.12,0-.21.1-.21.21s.1.21.21.21.21-.1.21-.21-.1-.21-.21-.21Z"/>
      <path class="cls-1" d="m171.9,22.26c.12,0,.21-.1.21-.21s-.1-.21-.21-.21-.21.1-.21.21.1.21.21.21Z"/>
      <path class="cls-1" d="m55.25,59.3c.23-.1.4-.24.51-.42.12-.18.17-.37.17-.59,0-.23-.06-.44-.18-.64-.12-.2-.3-.36-.52-.48-.23-.12-.48-.17-.75-.17-.39,0-.72.11-.98.34-.26.22-.43.54-.51.95l.61.11c.04-.3.15-.52.3-.67s.36-.22.59-.22.43.07.59.22c.15.15.23.33.23.56,0,.28-.1.49-.31.63-.21.13-.44.2-.7.2-.02,0-.06,0-.1,0l-.07.53c.17-.04.31-.07.43-.07.28,0,.51.09.7.27.18.18.27.41.27.69s-.1.54-.3.74c-.2.2-.44.3-.73.3-.24,0-.45-.08-.61-.23s-.29-.4-.36-.75l-.61.08c.04.41.2.75.49,1.01.29.26.65.39,1.08.39.48,0,.88-.15,1.2-.45.32-.3.47-.67.47-1.1,0-.32-.08-.59-.24-.8-.16-.21-.39-.35-.68-.42Z"/>
      <path class="cls-1" d="m59.59,57.63c-.13-.2-.3-.36-.5-.46-.2-.11-.43-.16-.7-.16-.36,0-.66.1-.9.29-.24.19-.42.47-.54.83-.12.36-.18.83-.18,1.42,0,.93.16,1.6.49,2.02.27.34.65.51,1.13.51.36,0,.66-.1.9-.29.24-.2.42-.47.54-.83s.18-.83.18-1.41c0-.49-.04-.88-.11-1.17-.07-.29-.18-.54-.31-.74Zm-.49,3.53c-.19.27-.43.41-.71.41s-.51-.13-.71-.4c-.19-.27-.29-.81-.29-1.63s.1-1.37.31-1.67c.17-.24.39-.36.67-.36s.52.13.71.4c.19.27.29.81.29,1.63s-.1,1.35-.29,1.62Z"/>
      <path class="cls-1" d="m63.45,57.63c-.13-.2-.3-.36-.5-.46-.2-.11-.43-.16-.7-.16-.36,0-.66.1-.9.29-.24.19-.42.47-.54.83-.12.36-.18.83-.18,1.42,0,.93.16,1.6.49,2.02.27.34.65.51,1.13.51.36,0,.66-.1.9-.29.24-.2.42-.47.54-.83s.18-.83.18-1.41c0-.49-.04-.88-.11-1.17-.07-.29-.18-.54-.31-.74Zm-.49,3.53c-.19.27-.43.41-.71.41s-.51-.13-.71-.4c-.19-.27-.29-.81-.29-1.63s.1-1.37.31-1.67c.17-.24.39-.36.67-.36s.52.13.71.4c.19.27.29.81.29,1.63s-.1,1.35-.29,1.62Z"/>
      <path class="cls-1" d="m67.3,57.63c-.13-.2-.3-.36-.5-.46-.2-.11-.43-.16-.7-.16-.36,0-.66.1-.9.29-.24.19-.42.47-.54.83-.12.36-.18.83-.18,1.42,0,.93.16,1.6.49,2.02.27.34.65.51,1.13.51.36,0,.66-.1.9-.29.24-.2.42-.47.54-.83s.18-.83.18-1.41c0-.49-.04-.88-.11-1.17-.07-.29-.18-.54-.31-.74Zm-.49,3.53c-.19.27-.43.41-.71.41s-.51-.13-.71-.4c-.19-.27-.29-.81-.29-1.63s.1-1.37.31-1.67c.17-.24.39-.36.67-.36s.52.13.71.4c.19.27.29.81.29,1.63s-.1,1.35-.29,1.62Z"/>
      <path class="cls-1" d="m45.32,44.99c-.33-.26-.72-.39-1.16-.39-.47,0-.86.15-1.16.45-.3.3-.45.66-.45,1.1,0,.33.1.64.31.94l-1.33-.27v-1.98h-.58v2.47l2.55.48.07-.57c-.14-.09-.26-.21-.35-.37s-.13-.33-.13-.53c0-.32.1-.57.3-.77.2-.2.48-.29.82-.29.37,0,.66.1.88.3.22.2.33.45.33.74,0,.24-.08.45-.24.62-.16.17-.39.28-.7.33l.05.64c.42-.04.75-.2,1.01-.49.25-.29.38-.65.38-1.1,0-.55-.2-.98-.6-1.3Z"/>
      <path class="cls-1" d="m44.42,40.77c-.31,0-.57.08-.79.24-.22.16-.38.39-.48.7-.09-.25-.22-.43-.39-.55s-.37-.18-.6-.18c-.36,0-.67.13-.92.4-.25.26-.38.61-.38,1.05s.12.78.37,1.04.55.39.91.39c.24,0,.44-.06.62-.18.17-.12.3-.31.4-.56.08.3.23.54.44.7.22.16.49.25.81.25.43,0,.79-.15,1.08-.45.29-.3.43-.69.43-1.18s-.14-.88-.43-1.18c-.29-.3-.65-.45-1.07-.45Zm-1.73,2.22c-.15.15-.34.23-.58.23-.21,0-.39-.08-.53-.23-.15-.15-.22-.35-.22-.58s.08-.42.23-.58.34-.23.56-.23.4.07.54.22c.15.15.22.34.22.58s-.07.44-.22.59Zm2.6-.07c-.09.16-.21.28-.38.37-.16.08-.33.12-.5.12-.28,0-.52-.09-.71-.28-.19-.19-.28-.43-.28-.71s.1-.54.29-.73c.19-.19.43-.29.73-.29s.53.09.71.28c.19.19.28.43.28.72,0,.19-.04.36-.13.52Z"/>
      <path class="cls-1" d="m44.42,36.91c-.31,0-.57.08-.79.24s-.38.39-.48.7c-.09-.25-.22-.43-.39-.55-.17-.12-.37-.18-.6-.18-.36,0-.67.13-.92.4-.25.26-.38.61-.38,1.05s.12.78.37,1.04.55.39.91.39c.24,0,.44-.06.62-.18.17-.12.3-.31.4-.56.08.3.23.54.44.7.22.16.49.25.81.25.43,0,.79-.15,1.08-.45.29-.3.43-.69.43-1.18s-.14-.88-.43-1.18c-.29-.3-.65-.45-1.07-.45Zm-1.73,2.22c-.15.15-.34.23-.58.23-.21,0-.39-.08-.53-.23-.15-.15-.22-.35-.22-.58s.08-.42.23-.58.34-.23.56-.23.4.07.54.22c.15.15.22.34.22.58s-.07.44-.22.59Zm2.6-.07c-.09.16-.21.29-.38.37-.16.08-.33.12-.5.12-.28,0-.52-.09-.71-.28-.19-.19-.28-.43-.28-.71s.1-.54.29-.73c.19-.19.43-.29.73-.29s.53.09.71.28c.19.19.28.43.28.72,0,.19-.04.36-.13.52Z"/>
      <path class="cls-1" d="m41.97,36.14c.36.12.83.18,1.42.18.93,0,1.6-.16,2.02-.49.34-.27.51-.65.51-1.13,0-.36-.1-.66-.29-.9s-.47-.42-.83-.54c-.36-.12-.83-.18-1.41-.18-.49,0-.88.04-1.17.11-.29.07-.54.18-.74.31-.2.13-.36.3-.46.5s-.16.43-.16.7c0,.36.1.66.29.9s.47.42.83.54Zm-.21-2.14c.27-.19.81-.29,1.63-.29s1.35.1,1.62.29c.27.19.41.43.41.71s-.13.51-.4.71c-.27.19-.81.29-1.63.29s-1.37-.1-1.68-.31c-.24-.17-.36-.39-.36-.67s.13-.52.4-.71Z"/>
      <path class="cls-1" d="m114.99,60.72c.13-.14.43-.4.9-.79.56-.47.96-.84,1.2-1.11.24-.27.41-.53.51-.77.1-.24.16-.49.16-.74,0-.5-.18-.91-.53-1.25-.35-.34-.83-.5-1.44-.5s-1.08.16-1.43.47c-.36.31-.56.76-.62,1.36l.8.08c0-.4.12-.71.34-.93.22-.22.52-.34.9-.34.35,0,.64.11.86.32s.33.47.33.78-.12.6-.36.93c-.24.33-.71.77-1.39,1.34-.44.36-.78.68-1.01.96-.23.28-.4.56-.51.84-.07.17-.1.35-.09.54h4.17v-.75h-3.1c.09-.14.2-.28.33-.42Z"/>
      <path class="cls-1" d="m121.55,58.46c.31-.12.55-.28.7-.5.15-.22.23-.47.23-.76,0-.46-.17-.85-.5-1.17-.34-.32-.78-.48-1.33-.48s-.99.16-1.32.47c-.33.31-.5.7-.5,1.16,0,.3.08.57.23.78s.39.39.71.5c-.38.1-.68.29-.89.57-.21.28-.31.62-.31,1.03,0,.55.19,1.01.57,1.38s.88.55,1.51.55,1.13-.18,1.51-.55c.38-.37.57-.82.57-1.36,0-.39-.1-.73-.3-1.01s-.5-.49-.89-.61Zm-1.93-1.31c0-.26.1-.49.29-.68.2-.19.44-.28.74-.28s.54.1.73.29c.2.19.29.43.29.72s-.1.5-.29.69c-.19.19-.44.28-.73.28s-.56-.1-.75-.28c-.19-.19-.29-.43-.29-.73Zm1.96,3.85c-.24.24-.55.36-.92.36-.24,0-.46-.06-.67-.17s-.36-.27-.47-.48c-.1-.21-.16-.42-.16-.64,0-.36.12-.66.36-.9.24-.24.54-.36.91-.36s.68.12.93.37c.25.24.37.55.37.93s-.12.67-.36.91Z"/>
      <path class="cls-1" d="m126.46,58.46c.31-.12.55-.28.7-.5.15-.22.23-.47.23-.76,0-.46-.17-.85-.5-1.17-.34-.32-.78-.48-1.33-.48s-.99.16-1.32.47c-.33.31-.5.7-.5,1.16,0,.3.08.57.23.78s.39.39.71.5c-.38.1-.68.29-.89.57-.21.28-.31.62-.31,1.03,0,.55.19,1.01.57,1.38s.88.55,1.51.55,1.13-.18,1.51-.55c.38-.37.57-.82.57-1.36,0-.39-.1-.73-.3-1.01s-.5-.49-.89-.61Zm-1.93-1.31c0-.26.1-.49.29-.68.2-.19.44-.28.74-.28s.54.1.73.29c.2.19.29.43.29.72s-.1.5-.29.69c-.19.19-.44.28-.73.28s-.56-.1-.75-.28c-.19-.19-.29-.43-.29-.73Zm1.96,3.85c-.24.24-.55.36-.92.36-.24,0-.46-.06-.67-.17s-.36-.27-.47-.48c-.1-.21-.16-.42-.16-.64,0-.36.12-.66.36-.9.24-.24.54-.36.91-.36s.68.12.93.37c.25.24.37.55.37.93s-.12.67-.36.91Z"/>
      <path class="cls-1" d="m131.99,56.34c-.17-.26-.38-.45-.63-.59-.26-.14-.55-.2-.89-.2-.46,0-.84.12-1.14.37-.3.25-.53.6-.68,1.05-.15.45-.23,1.06-.23,1.8,0,1.19.21,2.04.62,2.57.35.44.83.65,1.43.65.46,0,.84-.12,1.15-.37.3-.25.53-.6.68-1.06.15-.45.23-1.05.23-1.79,0-.63-.05-1.12-.14-1.49-.09-.37-.23-.68-.39-.94Zm-.63,4.5c-.24.34-.54.52-.9.52s-.66-.17-.9-.51c-.24-.34-.36-1.03-.36-2.07s.13-1.75.4-2.13c.21-.3.5-.45.85-.45s.66.17.91.51c.24.34.36,1.03.36,2.07s-.12,1.72-.36,2.07Z"/>
      <path class="cls-1" d="m159.9,58.46c.29-.13.5-.31.65-.53.15-.22.22-.47.22-.74,0-.29-.08-.56-.23-.81-.15-.26-.38-.46-.67-.61-.29-.15-.61-.22-.95-.22-.5,0-.92.14-1.25.43-.34.29-.55.69-.65,1.21l.78.14c.06-.38.19-.66.39-.85.2-.19.45-.28.75-.28s.55.09.75.28c.19.19.29.42.29.71,0,.36-.13.62-.4.8-.26.17-.56.26-.89.26-.03,0-.07,0-.13,0l-.09.68c.22-.06.4-.09.55-.09.36,0,.65.12.89.35.23.23.35.53.35.88,0,.37-.13.69-.38.94-.25.25-.56.38-.92.38-.31,0-.57-.1-.78-.29s-.37-.51-.45-.95l-.78.1c.05.53.26.95.63,1.28s.83.5,1.38.5c.61,0,1.12-.19,1.52-.57.4-.38.6-.85.6-1.4,0-.41-.1-.75-.31-1.02-.21-.27-.5-.45-.87-.54Z"/>
      <path class="cls-1" d="m163.15,60.72c.13-.14.43-.4.9-.79.56-.47.96-.84,1.2-1.11.24-.27.41-.53.51-.77.1-.24.16-.49.16-.74,0-.5-.18-.91-.53-1.25-.35-.34-.83-.5-1.44-.5s-1.08.16-1.43.47c-.36.31-.56.76-.62,1.36l.8.08c0-.4.12-.71.34-.93.22-.22.52-.34.9-.34.35,0,.64.11.86.32s.33.47.33.78-.12.6-.36.93c-.24.33-.71.77-1.39,1.34-.44.36-.78.68-1.01.96-.23.28-.4.56-.51.84-.07.17-.1.35-.09.54h4.17v-.75h-3.1c.09-.14.2-.28.33-.42Z"/>
      <path class="cls-1" d="m169.71,58.46c.31-.12.55-.28.7-.5.15-.22.23-.47.23-.76,0-.46-.17-.85-.5-1.17-.34-.32-.78-.48-1.33-.48s-.99.16-1.32.47c-.33.31-.5.7-.5,1.16,0,.3.08.57.23.78s.39.39.71.5c-.38.1-.68.29-.89.57-.21.28-.31.62-.31,1.03,0,.55.19,1.01.57,1.38s.88.55,1.51.55,1.13-.18,1.51-.55c.38-.37.57-.82.57-1.36,0-.39-.1-.73-.3-1.01s-.5-.49-.89-.61Zm-1.93-1.31c0-.26.1-.49.29-.68.2-.19.44-.28.74-.28s.54.1.73.29c.2.19.29.43.29.72s-.1.5-.29.69c-.19.19-.44.28-.73.28s-.56-.1-.75-.28c-.19-.19-.29-.43-.29-.73Zm1.96,3.85c-.24.24-.55.36-.92.36-.24,0-.46-.06-.67-.17s-.36-.27-.47-.48c-.1-.21-.16-.42-.16-.64,0-.36.12-.66.36-.9.24-.24.54-.36.91-.36s.68.12.93.37c.25.24.37.55.37.93s-.12.67-.36.91Z"/>
      <path class="cls-1" d="m175.24,56.34c-.17-.26-.38-.45-.63-.59-.26-.14-.55-.2-.89-.2-.46,0-.84.12-1.14.37-.3.25-.53.6-.68,1.05-.15.45-.23,1.06-.23,1.8,0,1.19.21,2.04.62,2.57.35.44.83.65,1.43.65.46,0,.84-.12,1.15-.37.3-.25.53-.6.68-1.06.15-.45.23-1.05.23-1.79,0-.63-.05-1.12-.14-1.49-.09-.37-.23-.68-.39-.94Zm-.63,4.5c-.24.34-.54.52-.9.52s-.66-.17-.9-.51c-.24-.34-.36-1.03-.36-2.07s.13-1.75.4-2.13c.21-.3.5-.45.85-.45s.66.17.91.51c.24.34.36,1.03.36,2.07s-.12,1.72-.36,2.07Z"/>
      <path class="cls-1" d="m44.98,149.38c-.14-.09-.28-.19-.42-.33s-.4-.43-.79-.9c-.47-.56-.84-.96-1.11-1.2-.27-.24-.53-.41-.77-.51-.24-.1-.49-.16-.74-.16-.5,0-.91.18-1.25.53s-.5.83-.5,1.44.16,1.08.47,1.43c.31.36.76.56,1.36.62l.08-.8c-.4,0-.71-.12-.93-.34-.22-.22-.34-.52-.34-.9,0-.35.11-.64.32-.86s.47-.33.78-.33.6.12.93.36c.33.24.77.7,1.34,1.39.36.44.68.78.96,1.01s.56.4.84.51c.17.07.35.1.54.09v-4.17h-.75v3.1Z"/>
      <path class="cls-1" d="m41.8,142.51c-.71-.39-1.28-.79-1.71-1.2h-.6v4.09h.75v-3.09c.45.39,1,.76,1.65,1.11.65.35,1.33.62,2.04.8.7.19,1.3.28,1.8.29v-.8c-.63-.04-1.21-.14-1.74-.3-.75-.22-1.48-.52-2.19-.92Z"/>
      <path class="cls-1" d="m45.07,136.86c-.42-.33-.91-.5-1.48-.5-.6,0-1.09.19-1.47.57-.38.38-.57.84-.57,1.4,0,.42.13.81.4,1.19l-1.7-.34v-2.52h-.74v3.14l3.24.61.09-.73c-.18-.12-.33-.27-.44-.47-.11-.2-.17-.43-.17-.68,0-.4.13-.73.38-.98.26-.25.6-.37,1.05-.37.47,0,.84.13,1.12.39s.42.57.42.95c0,.31-.1.57-.3.79s-.5.36-.89.42l.07.81c.53-.05.96-.26,1.28-.62.32-.36.48-.83.48-1.41,0-.7-.26-1.25-.77-1.66Z"/>
      <path class="cls-1" d="m44.41,131.75c-.46-.15-1.05-.23-1.79-.23-.63,0-1.12.05-1.49.14-.37.09-.68.23-.94.39-.26.17-.45.38-.59.63-.14.26-.2.55-.2.89,0,.46.12.84.37,1.14.25.3.6.53,1.05.68.45.15,1.06.23,1.8.23,1.19,0,2.04-.21,2.57-.63.44-.35.65-.83.65-1.43,0-.46-.12-.85-.37-1.15-.25-.3-.6-.53-1.06-.68Zm.28,2.73c-.34.24-1.03.36-2.07.36s-1.75-.13-2.13-.4c-.3-.21-.45-.5-.45-.85s.17-.66.51-.91,1.03-.36,2.07-.36,1.72.12,2.07.36c.34.24.52.54.52.9s-.17.66-.51.9Z"/>
      <path class="cls-1" d="m44.98,200.82c-.14-.09-.28-.19-.42-.33s-.4-.43-.79-.9c-.47-.56-.84-.96-1.11-1.2-.27-.24-.53-.41-.77-.51-.24-.1-.49-.16-.74-.16-.5,0-.91.18-1.25.53s-.5.83-.5,1.44.16,1.08.47,1.43c.31.36.76.56,1.36.62l.08-.8c-.4,0-.71-.12-.93-.34-.22-.22-.34-.52-.34-.9,0-.35.11-.64.32-.86s.47-.33.78-.33.6.12.93.36c.33.24.77.7,1.34,1.39.36.44.68.78.96,1.01s.56.4.84.51c.17.07.35.1.54.09v-4.17h-.75v3.1Z"/>
      <path class="cls-1" d="m41.8,193.95c-.71-.39-1.28-.79-1.71-1.2h-.6v4.09h.75v-3.09c.45.39,1,.76,1.65,1.11.65.35,1.33.62,2.04.8.7.19,1.3.28,1.8.29v-.8c-.63-.04-1.21-.14-1.74-.3-.75-.22-1.48-.52-2.19-.92Z"/>
      <path class="cls-1" d="m45.07,188.3c-.42-.33-.91-.5-1.48-.5-.6,0-1.09.19-1.47.57-.38.38-.57.84-.57,1.4,0,.42.13.81.4,1.19l-1.7-.34v-2.52h-.74v3.14l3.24.61.09-.73c-.18-.12-.33-.27-.44-.47-.11-.2-.17-.43-.17-.68,0-.4.13-.73.38-.98.26-.25.6-.37,1.05-.37.47,0,.84.13,1.12.39s.42.57.42.95c0,.31-.1.57-.3.79s-.5.36-.89.42l.07.81c.53-.05.96-.26,1.28-.62.32-.36.48-.83.48-1.41,0-.7-.26-1.25-.77-1.66Z"/>
      <path class="cls-1" d="m40.81,186.85c.45.15,1.06.23,1.8.23,1.19,0,2.04-.21,2.57-.63.44-.35.65-.83.65-1.43,0-.46-.12-.85-.37-1.15-.25-.3-.6-.53-1.06-.68s-1.05-.23-1.79-.23c-.63,0-1.12.05-1.49.14-.37.09-.68.23-.94.39-.26.17-.45.38-.59.63-.14.26-.2.55-.2.89,0,.46.12.84.37,1.14.25.3.6.53,1.05.68Zm-.27-2.73c.34-.24,1.03-.36,2.07-.36s1.72.12,2.07.36c.34.24.52.54.52.9s-.17.66-.51.9c-.34.24-1.03.36-2.07.36s-1.75-.13-2.13-.4c-.3-.21-.45-.5-.45-.85s.17-.66.51-.91Z"/>
      <path class="cls-1" d="m62.98,154.3c-.42,0-.81.13-1.19.4l.34-1.7h2.52v-.74h-3.14l-.61,3.24.73.1c.11-.18.27-.33.47-.44s.43-.17.68-.17c.4,0,.73.13.98.38.25.26.37.6.37,1.05,0,.47-.13.84-.39,1.12-.26.28-.57.42-.95.42-.31,0-.58-.1-.79-.3s-.36-.5-.42-.89l-.81.07c.05.53.26.96.62,1.28.36.32.83.48,1.41.48.7,0,1.25-.26,1.66-.77.33-.42.5-.91.5-1.48,0-.6-.19-1.09-.57-1.47s-.84-.57-1.4-.57Z"/>
      <path class="cls-1" d="m69.25,152.94c-.17-.26-.38-.45-.63-.59-.26-.14-.55-.2-.89-.2-.46,0-.84.12-1.14.37-.3.25-.53.6-.68,1.05s-.23,1.06-.23,1.8c0,1.19.21,2.04.62,2.57.35.44.83.65,1.43.65.46,0,.84-.12,1.15-.37s.53-.6.68-1.06c.15-.46.23-1.05.23-1.79,0-.63-.05-1.12-.14-1.49s-.23-.68-.39-.94Zm-.63,4.5c-.24.34-.54.52-.9.52s-.66-.17-.9-.51c-.24-.34-.36-1.03-.36-2.07s.13-1.75.4-2.13c.21-.3.5-.45.85-.45s.66.17.91.51c.24.34.36,1.03.36,2.07s-.12,1.72-.36,2.07Z"/>
      <path class="cls-1" d="m74.15,152.94c-.17-.26-.38-.45-.63-.59-.26-.14-.55-.2-.89-.2-.46,0-.84.12-1.14.37-.3.25-.53.6-.68,1.05s-.23,1.06-.23,1.8c0,1.19.21,2.04.62,2.57.35.44.83.65,1.43.65.46,0,.84-.12,1.15-.37s.53-.6.68-1.06c.15-.46.23-1.05.23-1.79,0-.63-.05-1.12-.14-1.49s-.23-.68-.39-.94Zm-.63,4.5c-.24.34-.54.52-.9.52s-.66-.17-.9-.51c-.24-.34-.36-1.03-.36-2.07s.13-1.75.4-2.13c.21-.3.5-.45.85-.45s.66.17.91.51c.24.34.36,1.03.36,2.07s-.12,1.72-.36,2.07Z"/>
      <path class="cls-1" d="m79.06,152.94c-.17-.26-.38-.45-.63-.59-.26-.14-.55-.2-.89-.2-.46,0-.84.12-1.14.37-.3.25-.53.6-.68,1.05s-.23,1.06-.23,1.8c0,1.19.21,2.04.62,2.57.35.44.83.65,1.43.65.46,0,.84-.12,1.15-.37s.53-.6.68-1.06c.15-.46.23-1.05.23-1.79,0-.63-.05-1.12-.14-1.49s-.23-.68-.39-.94Zm-.63,4.5c-.24.34-.54.52-.9.52s-.66-.17-.9-.51c-.24-.34-.36-1.03-.36-2.07s.13-1.75.4-2.13c.21-.3.5-.45.85-.45s.66.17.91.51c.24.34.36,1.03.36,2.07s-.12,1.72-.36,2.07Z"/>
      <path class="cls-1" d="m62.98,175.24c-.42,0-.81.13-1.19.4l.34-1.7h2.52v-.74h-3.14l-.61,3.24.73.09c.11-.18.27-.33.47-.44.2-.11.43-.17.68-.17.4,0,.73.13.98.38.25.26.37.6.37,1.05,0,.46-.13.84-.39,1.12-.26.28-.57.42-.95.42-.31,0-.58-.1-.79-.3s-.36-.5-.42-.89l-.81.07c.05.53.26.96.62,1.28s.83.48,1.41.48c.7,0,1.25-.26,1.66-.77.33-.42.5-.91.5-1.48,0-.6-.19-1.09-.57-1.47-.38-.38-.84-.57-1.4-.57Z"/>
      <path class="cls-1" d="m69.25,173.88c-.17-.26-.38-.45-.63-.59-.26-.14-.55-.2-.89-.2-.46,0-.84.12-1.14.37-.3.25-.53.6-.68,1.05-.15.45-.23,1.06-.23,1.8,0,1.19.21,2.04.62,2.57.35.44.83.65,1.43.65.46,0,.84-.12,1.15-.37.3-.25.53-.6.68-1.06.15-.45.23-1.05.23-1.79,0-.63-.05-1.12-.14-1.49-.09-.37-.23-.68-.39-.94Zm-.63,4.5c-.24.34-.54.52-.9.52s-.66-.17-.9-.51c-.24-.34-.36-1.03-.36-2.07s.13-1.75.4-2.13c.21-.3.5-.45.85-.45s.66.17.91.51c.24.34.36,1.03.36,2.07s-.12,1.72-.36,2.07Z"/>
      <path class="cls-1" d="m74.15,173.88c-.17-.26-.38-.45-.63-.59-.26-.14-.55-.2-.89-.2-.46,0-.84.12-1.14.37-.3.25-.53.6-.68,1.05-.15.45-.23,1.06-.23,1.8,0,1.19.21,2.04.62,2.57.35.44.83.65,1.43.65.46,0,.84-.12,1.15-.37.3-.25.53-.6.68-1.06.15-.45.23-1.05.23-1.79,0-.63-.05-1.12-.14-1.49-.09-.37-.23-.68-.39-.94Zm-.63,4.5c-.24.34-.54.52-.9.52s-.66-.17-.9-.51c-.24-.34-.36-1.03-.36-2.07s.13-1.75.4-2.13c.21-.3.5-.45.85-.45s.66.17.91.51c.24.34.36,1.03.36,2.07s-.12,1.72-.36,2.07Z"/>
      <path class="cls-1" d="m79.45,174.81c-.09-.37-.23-.68-.39-.94s-.38-.45-.63-.59c-.26-.14-.55-.2-.89-.2-.46,0-.84.12-1.14.37-.3.25-.53.6-.68,1.05-.15.45-.23,1.06-.23,1.8,0,1.19.21,2.04.62,2.57.35.44.83.65,1.43.65.46,0,.84-.12,1.15-.37.3-.25.53-.6.68-1.06.15-.45.23-1.05.23-1.79,0-.63-.05-1.12-.14-1.49Zm-1.02,3.56c-.24.34-.54.52-.9.52s-.66-.17-.9-.51c-.24-.34-.36-1.03-.36-2.07s.13-1.75.4-2.13c.21-.3.5-.45.85-.45s.66.17.91.51c.24.34.36,1.03.36,2.07s-.12,1.72-.36,2.07Z"/>
      <path class="cls-1" d="m185.24,107.04c.45.15,1.06.23,1.8.23,1.19,0,2.04-.21,2.57-.63.44-.35.65-.83.65-1.43,0-.46-.12-.85-.37-1.15-.25-.3-.6-.53-1.06-.68s-1.05-.23-1.79-.23c-.63,0-1.12.05-1.49.14-.37.09-.68.23-.94.39-.26.17-.45.38-.59.63-.14.26-.2.55-.2.89,0,.46.12.84.37,1.14.25.3.6.53,1.05.68Zm-.27-2.73c.34-.24,1.03-.36,2.07-.36s1.72.12,2.07.36c.34.24.52.54.52.9s-.17.66-.51.9c-.34.24-1.03.36-2.07.36s-1.75-.13-2.13-.4c-.3-.21-.45-.5-.45-.85s.17-.66.51-.91Z"/>
      <path class="cls-1" d="m183.92,160.48c.27.13.55.36.84.69s.54.7.74,1.14h.75c-.09-.24-.22-.51-.4-.82-.18-.3-.36-.55-.53-.73h4.94v-.78h-6.34v.5Z"/>
      <path class="cls-1" d="m188.04,153.88v.85h-4.09v.63l4.09,2.88h.71v-2.74h1.51v-.77h-1.51v-.85h-.71Zm0,3.6l-2.85-1.98h2.85v1.98Z"/>
      <path class="cls-1" d="m184.29,152.17c.25.3.6.53,1.05.68.45.15,1.06.23,1.8.23,1.19,0,2.04-.21,2.57-.62.44-.35.65-.83.65-1.43,0-.46-.12-.84-.37-1.15-.25-.3-.6-.53-1.06-.68-.46-.15-1.05-.23-1.79-.23-.63,0-1.12.05-1.49.14-.37.09-.68.23-.94.39-.26.17-.45.38-.59.63s-.2.55-.2.89c0,.46.12.84.37,1.14Zm.78-2.04c.34-.24,1.03-.36,2.07-.36s1.72.12,2.07.36c.34.24.52.54.52.9s-.17.66-.51.9-1.03.36-2.07.36-1.75-.13-2.13-.4c-.3-.21-.45-.5-.45-.85s.17-.66.51-.91Z"/>
      <path class="cls-1" d="m185.35,147.95c.45.15,1.06.23,1.8.23,1.19,0,2.04-.21,2.57-.63.44-.35.65-.83.65-1.43,0-.46-.12-.85-.37-1.15-.25-.3-.6-.53-1.06-.68s-1.05-.23-1.79-.23c-.63,0-1.12.05-1.49.14-.37.09-.68.23-.94.39-.26.17-.45.38-.59.63-.14.26-.2.55-.2.89,0,.46.12.84.37,1.14.25.3.6.53,1.05.68Zm-.27-2.73c.34-.24,1.03-.36,2.07-.36s1.72.12,2.07.36c.34.24.52.54.52.9s-.17.66-.51.9c-.34.24-1.03.36-2.07.36s-1.75-.13-2.13-.4c-.3-.21-.45-.5-.45-.85s.17-.66.51-.91Z"/>
      <path class="cls-1" d="m178.65,90.39c-.32.29-.7.54-1.14.74v.75c.24-.09.51-.22.82-.4.3-.18.55-.36.73-.53v4.94h.78v-6.34h-.5c-.13.27-.36.55-.69.84Z"/>
      <path class="cls-1" d="m184.79,92.46c.31-.12.55-.28.7-.5.15-.22.23-.47.23-.76,0-.46-.17-.85-.5-1.17s-.78-.48-1.33-.48-.99.16-1.32.47c-.33.31-.5.7-.5,1.16,0,.3.08.57.23.78.16.22.39.39.71.5-.38.1-.68.29-.89.57-.21.28-.31.62-.31,1.03,0,.55.19,1.01.57,1.38s.88.55,1.51.55,1.13-.18,1.51-.55c.38-.37.57-.82.57-1.36,0-.39-.1-.73-.3-1.01s-.5-.48-.89-.61Zm-1.93-1.31c0-.26.1-.49.29-.68.2-.19.44-.28.74-.28s.54.1.73.29c.2.19.29.43.29.72s-.1.5-.29.69c-.19.19-.44.28-.73.28s-.56-.09-.75-.28c-.19-.19-.29-.43-.29-.73Zm1.96,3.85c-.24.24-.55.36-.92.36-.24,0-.46-.06-.67-.17-.21-.11-.36-.27-.47-.48-.1-.21-.16-.42-.16-.64,0-.36.12-.66.36-.9.24-.24.54-.36.91-.36s.68.12.93.37c.25.24.37.55.37.93s-.12.67-.36.91Z"/>
      <path class="cls-1" d="m195.61,91.28c-.09-.37-.23-.68-.39-.94-.17-.26-.38-.45-.63-.59-.26-.14-.55-.2-.89-.2-.46,0-.84.12-1.14.37-.3.25-.53.6-.68,1.05s-.23,1.06-.23,1.8c0,1.19.21,2.04.62,2.57.35.44.83.65,1.43.65.46,0,.84-.12,1.15-.37s.53-.6.68-1.06c.15-.46.23-1.05.23-1.79,0-.63-.05-1.12-.14-1.49Zm-1.02,3.56c-.24.34-.54.52-.9.52s-.66-.17-.9-.51c-.24-.34-.36-1.03-.36-2.07s.13-1.75.4-2.13c.21-.3.5-.45.85-.45s.66.17.91.51c.24.34.36,1.03.36,2.07s-.12,1.72-.36,2.07Z"/>
      <path class="cls-1" d="m124.7,158.04c-.71-.39-1.28-.79-1.71-1.2h-.6v4.09h.75v-3.09c.45.39,1,.76,1.65,1.11s1.33.62,2.04.8c.7.19,1.3.28,1.8.29v-.8c-.63-.04-1.21-.14-1.74-.3-.75-.22-1.48-.52-2.19-.92Z"/>
      <path class="cls-1" d="m124.11,156.04l.08-.8c-.4,0-.71-.12-.93-.34-.22-.22-.34-.52-.34-.9,0-.35.11-.64.32-.86s.47-.33.78-.33.6.12.93.36c.33.24.77.71,1.34,1.39.36.44.68.78.96,1.01s.56.4.84.51c.17.07.35.1.54.09v-4.17h-.75v3.1c-.14-.09-.28-.2-.42-.33s-.4-.43-.79-.9c-.47-.56-.84-.96-1.11-1.2-.27-.24-.53-.41-.77-.51-.24-.1-.49-.16-.74-.16-.5,0-.91.18-1.25.53-.34.35-.5.83-.5,1.44s.16,1.08.47,1.43c.31.36.76.56,1.36.62Z"/>
      <path class="cls-1" d="m123.91,150.93c.3,0,.57-.08.78-.23.22-.16.39-.39.5-.71.1.38.29.68.57.89.28.21.62.31,1.03.31.55,0,1.01-.19,1.38-.57.37-.38.55-.88.55-1.51s-.18-1.13-.55-1.51c-.37-.38-.82-.57-1.36-.57-.39,0-.73.1-1.01.3-.28.2-.49.5-.61.89-.12-.31-.28-.55-.5-.7-.22-.15-.47-.23-.76-.23-.46,0-.85.17-1.17.5-.32.34-.48.78-.48,1.33s.16.99.47,1.32c.31.33.7.5,1.16.5Zm1.99-2.74c.24-.25.55-.37.93-.37s.67.12.91.36c.24.24.36.55.36.92,0,.24-.06.46-.17.67-.11.21-.27.36-.48.47-.21.1-.42.16-.64.16-.36,0-.66-.12-.9-.36-.24-.24-.36-.54-.36-.91s.12-.68.37-.93Zm-2.69.19c.19-.2.43-.3.72-.3s.5.1.69.29.28.44.28.73-.09.56-.28.75c-.19.19-.43.29-.73.29-.26,0-.49-.1-.68-.29-.19-.2-.28-.44-.28-.74s.1-.54.29-.73Z"/>
      <path class="cls-1" d="m123.71,146.04c.45.15,1.06.23,1.8.23,1.19,0,2.04-.21,2.57-.63.44-.35.65-.83.65-1.43,0-.46-.12-.85-.37-1.15-.25-.3-.6-.53-1.06-.68s-1.05-.23-1.79-.23c-.63,0-1.12.05-1.49.14-.37.09-.68.23-.94.39-.26.17-.45.38-.59.63-.14.26-.2.55-.2.89,0,.46.12.84.37,1.14.25.3.6.53,1.05.68Zm-.27-2.73c.34-.24,1.03-.36,2.07-.36s1.72.12,2.07.36c.34.24.52.54.52.9s-.17.66-.51.9c-.34.24-1.03.36-2.07.36s-1.75-.13-2.13-.4c-.3-.21-.45-.5-.45-.85s.17-.66.51-.91Z"/>
      <path class="cls-1" d="m110.69,127.12c.29-.13.5-.31.65-.53.15-.22.22-.47.22-.75,0-.29-.08-.56-.23-.81-.15-.26-.38-.46-.67-.6-.29-.15-.61-.22-.95-.22-.5,0-.92.14-1.25.43-.34.29-.55.69-.65,1.21l.78.14c.06-.38.19-.66.39-.85.2-.19.45-.28.75-.28s.55.09.75.28c.19.19.29.42.29.71,0,.36-.13.63-.4.8-.26.17-.56.26-.89.26-.03,0-.07,0-.13,0l-.09.68c.22-.06.4-.09.55-.09.36,0,.65.12.89.35s.35.52.35.88-.13.69-.38.94c-.25.25-.56.38-.92.38-.31,0-.57-.1-.78-.29s-.37-.51-.45-.95l-.78.1c.05.53.26.95.63,1.28.37.33.83.5,1.38.5.61,0,1.12-.19,1.52-.57.4-.38.6-.85.6-1.4,0-.41-.1-.75-.31-1.02s-.5-.45-.87-.54Z"/>
      <path class="cls-1" d="m112.69,125.05h3.09c-.39.45-.76,1-1.11,1.65s-.62,1.33-.8,2.04c-.19.7-.28,1.3-.29,1.8h.8c.04-.63.14-1.21.3-1.74.22-.75.52-1.48.92-2.19.39-.71.79-1.28,1.2-1.71v-.6h-4.09v.74Z"/>
      <path class="cls-1" d="m119.81,126.44c-.3,0-.58.07-.85.21s-.5.35-.68.63c0-.63.08-1.12.22-1.46.14-.34.33-.6.58-.78.19-.14.4-.21.65-.21.31,0,.57.11.78.33.13.14.22.36.29.66l.77-.06c-.06-.49-.25-.88-.57-1.15-.32-.28-.72-.42-1.22-.42-.67,0-1.2.24-1.59.72-.45.55-.68,1.44-.68,2.66,0,1.09.2,1.87.61,2.35.41.48.93.71,1.58.71.38,0,.72-.09,1.02-.27.3-.18.53-.44.7-.78.17-.34.26-.71.26-1.11,0-.6-.18-1.09-.54-1.47s-.8-.57-1.32-.57Zm.72,3.17c-.24.26-.52.4-.84.4-.22,0-.44-.06-.64-.19s-.36-.31-.48-.56c-.11-.24-.17-.5-.17-.77,0-.41.12-.74.37-.99.24-.25.54-.38.89-.38s.65.13.88.38c.23.25.35.6.35,1.03s-.12.81-.35,1.08Z"/>
      <path class="cls-1" d="m124.51,130.64c.46,0,.84-.12,1.15-.37s.53-.6.68-1.06c.15-.46.23-1.05.23-1.79,0-.63-.05-1.12-.14-1.49s-.23-.68-.39-.94c-.17-.26-.38-.45-.63-.59-.26-.14-.55-.2-.89-.2-.46,0-.84.12-1.14.37-.3.25-.53.6-.68,1.05s-.23,1.06-.23,1.8c0,1.19.21,2.04.62,2.57.35.44.83.65,1.43.65Zm-.86-5.35c.21-.3.5-.45.85-.45s.66.17.91.51c.24.34.36,1.03.36,2.07s-.12,1.72-.36,2.07c-.24.34-.54.52-.9.52s-.66-.17-.9-.51c-.24-.34-.36-1.03-.36-2.07s.13-1.75.4-2.13Z"/>
      <path class="cls-1" d="m105.86,68.13h-.71v.85h-4.09v.63l4.09,2.88h.71v-2.74h1.51v-.78h-1.51v-.85Zm-.71,3.61l-2.85-1.98h2.85v1.98Z"/>
      <path class="cls-1" d="m106.62,63.27v3.1c-.14-.09-.28-.2-.42-.33s-.4-.43-.79-.9c-.47-.56-.84-.96-1.11-1.2-.27-.24-.53-.41-.77-.51-.24-.1-.49-.16-.74-.16-.5,0-.91.18-1.25.53-.34.35-.5.83-.5,1.44s.16,1.08.47,1.43c.31.36.76.56,1.36.62l.08-.8c-.4,0-.71-.12-.93-.34-.22-.22-.34-.52-.34-.9,0-.35.11-.64.32-.86s.47-.33.78-.33.6.12.93.36c.33.24.77.71,1.34,1.39.36.44.68.78.96,1.01s.56.4.84.51c.17.07.35.1.54.09v-4.17h-.75Z"/>
      <path class="cls-1" d="m106.05,58.55c-.46-.15-1.05-.23-1.79-.23-.63,0-1.12.05-1.49.14-.37.09-.68.23-.94.39-.26.17-.45.38-.59.63s-.2.55-.2.89c0,.46.12.84.37,1.14.25.3.6.53,1.05.68.45.15,1.06.23,1.8.23,1.19,0,2.04-.21,2.57-.62.44-.35.65-.83.65-1.43,0-.46-.12-.84-.37-1.15-.25-.3-.6-.53-1.06-.68Zm.28,2.73c-.34.24-1.03.36-2.07.36s-1.75-.13-2.13-.4c-.3-.21-.45-.5-.45-.85s.17-.66.51-.91,1.03-.36,2.07-.36,1.72.12,2.07.36c.34.24.52.54.52.9s-.17.66-.51.9Z"/>
      <path class="cls-1" d="m106.05,53.64c-.46-.15-1.05-.23-1.79-.23-.63,0-1.12.05-1.49.14-.37.09-.68.23-.94.39-.26.17-.45.38-.59.63-.14.26-.2.55-.2.89,0,.46.12.84.37,1.14.25.3.6.53,1.05.68.45.15,1.06.23,1.8.23,1.19,0,2.04-.21,2.57-.63.44-.35.65-.83.65-1.43,0-.46-.12-.85-.37-1.15-.25-.3-.6-.53-1.06-.68Zm.28,2.73c-.34.24-1.03.36-2.07.36s-1.75-.13-2.13-.4c-.3-.21-.45-.5-.45-.85s.17-.66.51-.91,1.03-.36,2.07-.36,1.72.12,2.07.36c.34.24.52.54.52.9s-.17.66-.51.9Z"/>
      <path class="cls-1" d="m189.69,49.05c-.38-.4-.85-.6-1.4-.6-.41,0-.75.1-1.02.31-.27.21-.45.5-.54.87-.13-.29-.31-.5-.53-.65s-.47-.22-.75-.22c-.29,0-.56.08-.81.23-.26.15-.46.38-.61.67s-.22.61-.22.95c0,.5.14.92.43,1.25.29.34.69.55,1.21.65l.14-.78c-.38-.06-.66-.19-.85-.39-.19-.2-.28-.45-.28-.75s.09-.55.28-.74c.19-.19.42-.29.71-.29.36,0,.62.13.8.4.17.26.26.56.26.89,0,.03,0,.07,0,.12l.68.09c-.06-.22-.09-.4-.09-.55,0-.36.12-.65.35-.89.23-.23.52-.35.88-.35s.69.13.94.38c.25.25.38.56.38.92,0,.31-.1.57-.29.78s-.51.37-.95.45l.1.78c.53-.05.95-.26,1.28-.63.33-.37.5-.83.5-1.38,0-.61-.19-1.12-.57-1.52Z"/>
      <path class="cls-1" d="m185.64,47.63l.08-.8c-.4,0-.71-.12-.93-.34-.22-.22-.34-.52-.34-.9,0-.35.11-.64.32-.86s.47-.33.78-.33.6.12.93.36c.33.24.77.71,1.34,1.39.36.44.68.78.96,1.01s.56.4.84.51c.17.07.35.1.54.09v-4.17h-.75v3.1c-.14-.09-.28-.2-.42-.33s-.4-.43-.79-.9c-.47-.56-.84-.96-1.11-1.2-.27-.24-.53-.41-.77-.51-.24-.1-.49-.16-.74-.16-.5,0-.91.18-1.25.53-.34.35-.5.83-.5,1.44s.16,1.08.47,1.43c.31.36.76.56,1.36.62Z"/>
      <path class="cls-1" d="m185.24,42.55c.45.15,1.06.23,1.8.23,1.19,0,2.04-.21,2.57-.62.44-.35.65-.83.65-1.43,0-.46-.12-.84-.37-1.15-.25-.3-.6-.53-1.06-.68-.46-.15-1.05-.23-1.79-.23-.63,0-1.12.05-1.49.14-.37.09-.68.23-.94.39-.26.17-.45.38-.59.63s-.2.55-.2.89c0,.46.12.84.37,1.14.25.3.6.53,1.05.68Zm-.27-2.73c.34-.24,1.03-.36,2.07-.36s1.72.12,2.07.36c.34.24.52.54.52.9s-.17.66-.51.9-1.03.36-2.07.36-1.75-.13-2.13-.4c-.3-.21-.45-.5-.45-.85s.17-.66.51-.91Z"/>
      <path class="cls-1" d="m185.24,37.64c.45.15,1.06.23,1.8.23,1.19,0,2.04-.21,2.57-.63.44-.35.65-.83.65-1.43,0-.46-.12-.85-.37-1.15-.25-.3-.6-.53-1.06-.68s-1.05-.23-1.79-.23c-.63,0-1.12.05-1.49.14-.37.09-.68.23-.94.39-.26.17-.45.38-.59.63-.14.26-.2.55-.2.89,0,.46.12.84.37,1.14.25.3.6.53,1.05.68Zm-.27-2.73c.34-.24,1.03-.36,2.07-.36s1.72.12,2.07.36c.34.24.52.54.52.9s-.17.66-.51.9c-.34.24-1.03.36-2.07.36s-1.75-.13-2.13-.4c-.3-.21-.45-.5-.45-.85s.17-.66.51-.91Z"/>
      <path class="cls-1" d="m150.53,196.53v-1.51h.85v-.71h-.85v-4.09h-.63l-2.88,4.09v.71h2.74v1.51h.78Zm-2.75-2.22l1.98-2.85v2.85h-1.98Z"/>
      <path class="cls-1" d="m153.71,191.04c.19-.14.4-.21.65-.21.31,0,.57.11.78.33.13.14.22.36.29.66l.77-.06c-.06-.49-.25-.88-.57-1.15-.32-.28-.72-.42-1.22-.42-.67,0-1.2.24-1.59.72-.45.55-.68,1.44-.68,2.66,0,1.09.2,1.87.61,2.35.41.48.93.71,1.58.71.38,0,.72-.09,1.02-.27s.53-.44.7-.78c.17-.34.26-.71.26-1.1,0-.6-.18-1.09-.54-1.47s-.8-.57-1.32-.57c-.3,0-.58.07-.85.21s-.5.35-.68.63c0-.63.08-1.12.22-1.46.14-.34.33-.6.58-.78Zm-.31,2.46c.24-.25.54-.38.89-.38s.65.13.88.38c.23.25.35.6.35,1.03s-.12.81-.35,1.08c-.24.26-.52.4-.84.4-.22,0-.44-.06-.64-.19-.2-.13-.36-.31-.48-.56-.11-.24-.17-.5-.17-.77,0-.41.12-.74.37-.99Z"/>
      <path class="cls-1" d="m158.61,191.04c.19-.14.4-.21.65-.21.31,0,.57.11.78.33.13.14.22.36.29.66l.77-.06c-.06-.49-.25-.88-.57-1.15-.32-.28-.72-.42-1.22-.42-.67,0-1.2.24-1.59.72-.45.55-.68,1.44-.68,2.66,0,1.09.2,1.87.61,2.35.41.48.93.71,1.58.71.38,0,.72-.09,1.02-.27s.53-.44.7-.78c.17-.34.26-.71.26-1.1,0-.6-.18-1.09-.54-1.47s-.8-.57-1.32-.57c-.3,0-.58.07-.85.21s-.5.35-.68.63c0-.63.08-1.12.22-1.46.14-.34.33-.6.58-.78Zm-.31,2.46c.24-.25.54-.38.89-.38s.65.13.88.38c.23.25.35.6.35,1.03s-.12.81-.35,1.08c-.24.26-.52.4-.84.4-.22,0-.44-.06-.64-.19-.2-.13-.36-.31-.48-.56-.11-.24-.17-.5-.17-.77,0-.41.12-.74.37-.99Z"/>
      <path class="cls-1" d="m164.94,190.4c-.26-.14-.55-.2-.89-.2-.46,0-.84.12-1.14.37-.3.25-.53.6-.68,1.05s-.23,1.06-.23,1.8c0,1.19.21,2.04.62,2.57.35.44.83.65,1.43.65.46,0,.84-.12,1.15-.37.3-.25.53-.6.68-1.06.15-.45.23-1.05.23-1.79,0-.63-.05-1.12-.14-1.49s-.23-.68-.39-.94c-.17-.26-.38-.45-.63-.59Zm0,5.09c-.24.34-.54.52-.9.52s-.66-.17-.9-.51c-.24-.34-.36-1.03-.36-2.07s.13-1.75.4-2.13c.21-.3.5-.45.85-.45s.66.17.91.51c.24.34.36,1.03.36,2.07s-.12,1.72-.36,2.07Z"/>
      <path class="cls-1" d="m157.57,41.96c.39-.51.59-1.1.59-1.78,0-.79-.26-1.44-.79-1.97-.53-.52-1.21-.77-2.06-.74-.78-.03-1.44.22-1.98.74-.54.53-.8,1.18-.8,1.97,0,.7.21,1.31.62,1.82.52.65,1.26.97,2.21.97s1.69-.34,2.21-1.02Zm-1.01-.27c-.13.37-.31.63-.54.8-.18.13-.4.2-.67.2-.4,0-.71-.15-.93-.45-.32-.43-.48-1.1-.48-2.01,0-.76.1-1.35.31-1.75.25-.5.62-.74,1.11-.74.26,0,.5.07.7.22.2.14.37.39.5.74.13.35.2.87.2,1.57,0,.59-.06,1.07-.19,1.43Z"/>
      <path class="cls-1" d="m160.34,40.49c-.38-.26-.62-.44-.7-.55-.05-.07-.08-.13-.08-.2,0-.09.04-.18.11-.25s.17-.11.27-.11c.17,0,.34.07.51.2s.34.39.49.76h.13l-.06-1.25h-.13c-.06.09-.11.15-.14.17-.03.02-.07.03-.11.03-.04,0-.1-.02-.17-.06-.19-.1-.38-.14-.57-.14-.37,0-.65.11-.84.34-.19.23-.29.48-.29.76,0,.26.09.49.26.71.12.15.38.36.77.63.27.19.45.32.52.41.08.09.12.2.12.32,0,.11-.04.2-.12.28-.08.08-.18.12-.31.12-.18,0-.38-.09-.58-.26-.2-.17-.37-.43-.48-.77h-.13l.06,1.31h.13c.06-.13.13-.2.22-.2.03,0,.08.01.16.04.29.11.53.16.7.16.22,0,.43-.05.61-.16.19-.1.33-.25.43-.45.1-.2.15-.39.15-.6,0-.22-.06-.43-.18-.61-.12-.18-.37-.4-.76-.66Z"/>
      <path class="cls-1" d="m163.69,42.72c-.15-.02-.26-.08-.31-.16-.04-.07-.06-.23-.06-.49v-1.96c.11-.18.22-.31.32-.38.1-.07.2-.11.31-.11.07,0,.13.02.19.06.06.04.1.1.12.18.02.08.04.27.04.57v1.63c0,.26-.02.43-.07.5-.07.09-.16.14-.29.16v.14h1.85v-.14c-.16-.02-.26-.06-.32-.13s-.08-.24-.08-.52v-1.43c0-.42-.03-.71-.08-.89-.05-.18-.16-.33-.32-.46s-.36-.2-.59-.2c-.18,0-.35.04-.52.13-.17.09-.35.24-.55.45v-2.12h-1.49v.14c.16.02.27.07.32.13s.08.24.08.52v3.71c0,.28-.02.45-.07.5-.07.08-.17.13-.33.15v.14h1.85v-.14Z"/>
      <path class="cls-1" d="m167.63,42.72c-.11,0-.19,0-.24-.03-.04-.02-.08-.05-.1-.09s-.04-.09-.04-.15c0-.04.01-.08.03-.13.02-.03.08-.14.21-.32l.27-.39.32.59c.08.16.13.27.13.34,0,.05-.02.09-.06.12-.04.03-.14.05-.3.06v.14h2.04v-.14c-.12,0-.22-.04-.29-.1-.13-.11-.3-.38-.52-.8l-.63-1.2.38-.59c.17-.27.33-.45.47-.54.14-.09.29-.14.45-.15v-.14h-1.29v.14c.12.01.2.04.24.08.05.04.07.08.07.14,0,.11-.1.32-.31.6l-.15.21-.29-.53c-.07-.12-.1-.19-.11-.21-.01-.04-.02-.08-.02-.12,0-.04.01-.07.03-.09l.2-.07h.11v-.15h-2.03v.14c.13.01.24.06.34.14.1.09.26.32.46.7l.63,1.17-.3.45c-.28.41-.5.67-.64.77-.15.1-.31.15-.49.15v.14h1.43v-.14Z"/>
      <path class="cls-1" d="m173.34,42.33c.26-.35.39-.78.39-1.3,0-.36-.07-.69-.21-.99-.14-.3-.35-.54-.62-.7-.27-.16-.57-.25-.89-.25-.53,0-.95.19-1.25.58-.3.39-.46.85-.46,1.37s.15.96.45,1.34c.3.39.72.58,1.27.58s1-.21,1.32-.63Zm-1.65.22c-.09-.1-.16-.24-.18-.42-.04-.24-.05-.5-.05-.78,0-.53.01-.94.04-1.23.03-.3.09-.49.19-.59s.21-.15.34-.15c.11,0,.2.03.27.08.1.08.17.2.22.36s.07.47.07.91c0,.75-.03,1.25-.08,1.5-.03.16-.1.28-.2.37-.08.07-.18.1-.29.1s-.23-.05-.32-.14Z"/>
      <path class="cls-1" d="m177.85,42.06v-1.42c0-.42-.02-.71-.06-.86-.05-.2-.16-.36-.31-.49-.16-.13-.35-.2-.59-.2-.2,0-.38.05-.56.14-.17.09-.35.24-.54.44v-.47h-1.49v.14c.16.02.27.07.32.13.05.07.08.24.08.52v2.06c0,.28-.02.45-.07.51-.07.08-.17.13-.33.15v.14h1.85v-.14c-.14-.02-.23-.06-.28-.14-.05-.07-.08-.25-.08-.52v-1.96c.19-.32.4-.48.63-.48.07,0,.13.02.19.06.06.04.1.1.12.18.02.08.04.27.04.57v1.63c0,.26-.02.42-.06.48-.06.1-.16.15-.3.17v.14h1.85v-.14c-.16-.02-.27-.06-.32-.13-.05-.07-.08-.24-.08-.53Z"/>
      <path class="cls-1" d="m182.03,42.41s-.06-.01-.09-.03-.05-.05-.06-.1c-.01-.04-.02-.15-.02-.31v-1.42c0-.39-.02-.65-.05-.75-.06-.17-.19-.33-.39-.48-.2-.15-.48-.22-.82-.22-.29,0-.56.05-.83.14-.27.09-.47.22-.62.39-.15.17-.22.35-.22.54,0,.13.06.25.17.35s.25.15.41.15c.15,0,.28-.04.37-.13.1-.09.14-.2.14-.33,0-.1-.05-.21-.15-.32-.07-.08-.11-.15-.11-.2,0-.06.03-.12.1-.16.11-.08.25-.11.42-.11.1,0,.2.03.28.08.08.05.14.12.17.19s.04.25.04.52v.37c-.81.37-1.33.67-1.57.89-.24.22-.36.47-.36.75,0,.21.07.38.21.51.14.14.31.21.52.21.35,0,.75-.2,1.2-.59.03.2.1.35.22.44.12.1.28.15.49.15.18,0,.34-.04.48-.13.14-.09.27-.23.4-.42l-.12-.09c-.07.1-.14.14-.21.14Zm-1.26-.38c-.17.15-.32.22-.45.22-.12,0-.21-.04-.27-.11-.09-.09-.13-.2-.13-.32,0-.14.05-.29.15-.43.15-.21.39-.41.7-.59v1.22Z"/>
      <path class="cls-1" d="m100.46,38.75c.28-.49.49-.79.62-.9.09-.08.23-.13.4-.15v-.14h-1.62v.14c.24.01.4.05.49.12.07.05.1.11.1.18,0,.13-.12.39-.36.78l-.95,1.6-.96-1.76c-.21-.38-.31-.61-.31-.71,0-.05.03-.1.09-.14.06-.04.17-.07.32-.07h.11v-.14h-2.54v.14c.17,0,.31.04.41.12s.28.34.52.79l1.25,2.27v1.06c0,.27-.01.43-.04.49-.04.09-.09.15-.16.19-.09.05-.22.08-.37.08h-.28v.14h2.98v-.14h-.3c-.14,0-.25-.03-.34-.08s-.14-.11-.17-.18c-.03-.07-.04-.24-.04-.51v-1.28l1.15-1.92Z"/>
      <path class="cls-1" d="m102.69,42.97c.56,0,1-.21,1.32-.63.26-.35.39-.78.39-1.3,0-.36-.07-.69-.21-.99-.14-.3-.35-.54-.62-.7-.27-.16-.57-.25-.89-.25-.53,0-.95.19-1.25.58-.3.39-.46.85-.46,1.37s.15.96.45,1.34c.3.39.72.58,1.27.58Zm-.53-2.85c.03-.3.09-.49.19-.59s.21-.15.34-.15c.11,0,.2.03.27.08.1.08.17.2.22.36s.07.47.07.91c0,.75-.03,1.25-.08,1.5-.03.16-.1.28-.2.37-.08.07-.18.1-.29.1s-.23-.05-.32-.14c-.09-.1-.16-.24-.18-.42-.04-.24-.05-.5-.05-.78,0-.53.01-.94.04-1.23Z"/>
      <path class="cls-1" d="m105.31,41.56c0,.39.01.63.04.72.04.16.15.3.31.43s.36.19.59.19c.47,0,.82-.25,1.03-.75l-.12-.09c-.15.26-.31.39-.48.39-.04,0-.09-.02-.14-.06-.05-.04-.08-.09-.1-.15-.02-.06-.03-.2-.03-.41v-2.26h.87v-.39h-.87v-1.34h-.13c-.17.32-.37.6-.6.86s-.51.5-.84.73v.14h.48v1.97Z"/>
      <path class="cls-1" d="m114.04,44.23c-.03.06-.08.11-.15.14s-.19.05-.35.05v.14h2.11v-.14c-.21,0-.34-.05-.41-.15-.04-.06-.06-.21-.06-.45v-4.74h-.13l-.61.43c-.12-.14-.26-.25-.42-.32-.16-.07-.35-.11-.56-.11-.31,0-.61.09-.89.26-.28.18-.5.43-.66.76-.16.33-.24.69-.24,1.07,0,.45.11.84.32,1.17.27.41.63.61,1.09.61.2,0,.39-.05.57-.14.14-.07.29-.19.45-.35v1.38c0,.19-.01.31-.04.37Zm-.3-1.8c-.12.07-.22.1-.32.1-.16,0-.29-.08-.39-.23-.15-.23-.22-.62-.22-1.18,0-.73.09-1.23.26-1.5.11-.17.26-.26.46-.26.1,0,.18.02.24.07.12.1.21.22.25.35s.07.41.07.83v1.51c-.11.14-.22.24-.34.31Z"/>
      <path class="cls-1" d="m117.42,42.72c-.11,0-.19,0-.24-.03-.04-.02-.08-.05-.1-.09s-.04-.09-.04-.15c0-.04.01-.08.03-.13.02-.03.08-.14.21-.32l.27-.39.32.59c.08.16.13.27.13.34,0,.05-.02.09-.06.12-.04.03-.14.05-.3.06v.14h2.04v-.14c-.12,0-.22-.04-.29-.1-.13-.11-.3-.38-.52-.8l-.63-1.2.38-.59c.17-.27.33-.45.47-.54.14-.09.29-.14.45-.15v-.14h-1.29v.14c.12.01.2.04.24.08.05.04.07.08.07.14,0,.11-.1.32-.31.6l-.15.21-.29-.53c-.07-.12-.1-.19-.11-.21-.01-.04-.02-.08-.02-.12,0-.04.01-.07.03-.09l.2-.07h.11v-.15h-2.03v.14c.13.01.24.06.34.14.1.09.26.32.46.7l.63,1.17-.3.45c-.28.41-.5.67-.64.77-.15.1-.31.15-.49.15v.14h1.43v-.14Z"/>
      <path class="cls-1" d="m123.32,40.04c-.14-.3-.35-.54-.62-.7-.27-.16-.57-.25-.89-.25-.53,0-.95.19-1.25.58-.3.39-.46.85-.46,1.37s.15.96.45,1.34c.3.39.72.58,1.27.58s1-.21,1.32-.63c.26-.35.39-.78.39-1.3,0-.36-.07-.69-.21-.99Zm-1.01,2.19c-.03.16-.1.28-.2.37-.08.07-.18.1-.29.1s-.23-.05-.32-.14c-.09-.1-.16-.24-.18-.42-.04-.24-.05-.5-.05-.78,0-.53.01-.94.04-1.23.03-.3.09-.49.19-.59s.21-.15.34-.15c.11,0,.2.03.27.08.1.08.17.2.22.36s.07.47.07.91c0,.75-.03,1.25-.08,1.5Z"/>
      <path class="cls-1" d="m127.64,42.06v-1.42c0-.42-.02-.71-.06-.86-.05-.2-.16-.36-.31-.49-.16-.13-.35-.2-.59-.2-.2,0-.38.05-.56.14-.17.09-.35.24-.54.44v-.47h-1.49v.14c.16.02.27.07.32.13.05.07.08.24.08.52v2.06c0,.28-.02.45-.07.51-.07.08-.17.13-.33.15v.14h1.85v-.14c-.14-.02-.23-.06-.28-.14-.05-.07-.08-.25-.08-.52v-1.96c.19-.32.4-.48.63-.48.07,0,.13.02.19.06.06.04.1.1.12.18.02.08.04.27.04.57v1.63c0,.26-.02.42-.06.48-.06.1-.16.15-.3.17v.14h1.85v-.14c-.16-.02-.27-.06-.32-.13-.05-.07-.08-.24-.08-.53Z"/>
      <path class="cls-1" d="m128.99,41.44c-.24.22-.36.47-.36.75,0,.21.07.38.21.51.14.14.31.21.52.21.35,0,.75-.2,1.2-.59.03.2.1.35.22.44.12.1.28.15.49.15.18,0,.34-.04.48-.13.14-.09.27-.23.4-.42l-.12-.09c-.07.1-.14.14-.21.14-.03,0-.06-.01-.09-.03s-.05-.05-.06-.1c-.01-.04-.02-.15-.02-.31v-1.42c0-.39-.02-.65-.05-.75-.06-.17-.19-.33-.39-.48-.2-.15-.48-.22-.82-.22-.29,0-.56.05-.83.14-.27.09-.47.22-.62.39-.15.17-.22.35-.22.54,0,.13.06.25.17.35s.25.15.41.15c.15,0,.28-.04.37-.13.1-.09.14-.2.14-.33,0-.1-.05-.21-.15-.32-.07-.08-.11-.15-.11-.2,0-.06.03-.12.1-.16.11-.08.25-.11.42-.11.1,0,.2.03.28.08.08.05.14.12.17.19s.04.25.04.52v.37c-.81.37-1.33.67-1.57.89Zm1.57.6c-.17.15-.32.22-.45.22-.12,0-.21-.04-.27-.11-.09-.09-.13-.2-.13-.32,0-.14.05-.29.15-.43.15-.21.39-.41.7-.59v1.22Z"/>
      <path class="cls-1" d="m56.88,128.87c.28-.49.49-.79.62-.9.09-.08.23-.13.4-.15v-.14h-1.62v.14c.24.01.4.05.49.12.07.05.1.11.1.18,0,.13-.12.39-.36.78l-.95,1.6-.96-1.76c-.21-.38-.31-.61-.31-.71,0-.05.03-.1.09-.14.06-.04.17-.07.32-.07h.11v-.14h-2.54v.14c.17,0,.31.04.41.12s.28.34.52.79l1.25,2.27v1.06c0,.27-.01.43-.04.49-.04.09-.09.15-.16.19-.09.05-.22.08-.37.08h-.28v.14h2.98v-.14h-.3c-.14,0-.25-.03-.34-.08-.08-.05-.14-.11-.17-.18-.03-.07-.04-.24-.04-.51v-1.28l1.15-1.92Z"/>
      <path class="cls-1" d="m60.61,130.16c-.14-.3-.35-.54-.62-.7-.27-.16-.57-.25-.89-.25-.53,0-.95.19-1.25.58-.3.39-.46.85-.46,1.37s.15.96.45,1.34.72.58,1.27.58,1-.21,1.32-.63c.26-.35.39-.78.39-1.3,0-.36-.07-.69-.21-.99Zm-1.01,2.19c-.03.16-.1.28-.2.37-.08.07-.18.1-.29.1s-.23-.05-.32-.14c-.09-.1-.16-.24-.18-.42-.04-.24-.05-.5-.05-.78,0-.53.01-.94.04-1.23s.09-.49.19-.59.21-.15.34-.15c.11,0,.2.03.27.08.1.08.17.2.22.36s.07.47.07.91c0,.75-.03,1.25-.08,1.5Z"/>
      <path class="cls-1" d="m61.74,131.69c0,.39.01.63.04.72.04.16.15.3.31.43s.36.19.59.19c.47,0,.82-.25,1.03-.75l-.12-.09c-.15.26-.31.39-.48.39-.04,0-.09-.02-.14-.06-.05-.04-.08-.09-.1-.15s-.03-.2-.03-.41v-2.26h.87v-.39h-.87v-1.34h-.13c-.17.32-.37.6-.6.86s-.51.5-.84.73v.14h.48v1.97Z"/>
      <path class="cls-1" d="m65.78,133.09c.56,0,1-.21,1.32-.63.26-.35.39-.78.39-1.3,0-.36-.07-.69-.21-.99-.14-.3-.35-.54-.62-.7-.27-.16-.57-.25-.89-.25-.53,0-.95.19-1.25.58-.3.39-.46.85-.46,1.37s.15.96.45,1.34.72.58,1.27.58Zm-.53-2.85c.03-.3.09-.49.19-.59s.21-.15.34-.15c.11,0,.2.03.27.08.1.08.17.2.22.36s.07.47.07.91c0,.75-.03,1.25-.08,1.5-.03.16-.1.28-.2.37-.08.07-.18.1-.29.1s-.23-.05-.32-.14c-.09-.1-.16-.24-.18-.42-.04-.24-.05-.5-.05-.78,0-.53.01-.94.04-1.23Z"/>
      <path class="cls-1" d="m70.47,134.35c-.03.06-.08.11-.15.14-.07.04-.19.05-.35.05v.14h2.11v-.14c-.21,0-.34-.05-.41-.15-.04-.06-.06-.21-.06-.45v-4.74h-.13l-.61.43c-.12-.14-.26-.25-.42-.32-.16-.07-.35-.11-.56-.11-.31,0-.61.09-.89.26-.28.18-.5.43-.66.76-.16.33-.24.69-.24,1.07,0,.45.11.84.32,1.17.27.41.63.61,1.09.61.2,0,.39-.05.57-.14.14-.07.29-.19.45-.35v1.38c0,.19-.01.31-.04.37Zm-.3-1.8c-.12.07-.22.1-.32.1-.16,0-.29-.08-.39-.23-.15-.23-.22-.62-.22-1.18,0-.73.09-1.23.26-1.5.11-.17.26-.26.46-.26.1,0,.18.02.24.07.12.1.21.22.25.35s.07.41.07.83v1.51c-.11.14-.22.24-.34.31Z"/>
      <path class="cls-1" d="m73.85,132.84c-.11,0-.19,0-.24-.03-.04-.02-.08-.05-.1-.09s-.04-.09-.04-.15c0-.04.01-.08.03-.13.02-.03.08-.14.21-.32l.27-.39.32.59c.08.16.13.27.13.34,0,.05-.02.09-.06.12s-.14.05-.3.06v.14h2.04v-.14c-.12,0-.22-.04-.29-.1-.13-.11-.3-.38-.52-.8l-.63-1.2.38-.59c.17-.27.33-.45.47-.54.14-.09.29-.14.45-.15v-.14h-1.29v.14c.12.01.2.04.24.08.05.04.07.08.07.14,0,.11-.1.32-.31.6l-.15.21-.29-.53c-.07-.12-.1-.19-.11-.21-.01-.04-.02-.08-.02-.12,0-.04.01-.07.03-.09l.2-.07h.11v-.15h-2.03v.14c.13.01.24.06.34.14.1.09.26.32.46.7l.63,1.17-.3.45c-.28.41-.5.67-.64.77-.15.1-.31.15-.49.15v.14h1.43v-.14Z"/>
      <path class="cls-1" d="m79.12,129.46c-.27-.16-.57-.25-.89-.25-.53,0-.95.19-1.25.58-.3.39-.46.85-.46,1.37s.15.96.45,1.34.72.58,1.27.58,1-.21,1.32-.63c.26-.35.39-.78.39-1.3,0-.36-.07-.69-.21-.99-.14-.3-.35-.54-.62-.7Zm-.39,2.89c-.03.16-.1.28-.2.37-.08.07-.18.1-.29.1s-.23-.05-.32-.14c-.09-.1-.16-.24-.18-.42-.04-.24-.05-.5-.05-.78,0-.53.01-.94.04-1.23s.09-.49.19-.59.21-.15.34-.15c.11,0,.2.03.27.08.1.08.17.2.22.36s.07.47.07.91c0,.75-.03,1.25-.08,1.5Z"/>
      <path class="cls-1" d="m84.07,132.18v-1.42c0-.42-.02-.71-.06-.86-.05-.2-.16-.36-.31-.49s-.35-.2-.59-.2c-.2,0-.38.05-.56.14-.17.09-.35.24-.54.44v-.47h-1.49v.14c.16.02.27.07.32.13.05.07.08.24.08.52v2.06c0,.28-.02.45-.07.51-.07.08-.17.13-.33.15v.14h1.85v-.14c-.14-.02-.23-.06-.28-.14-.05-.07-.08-.25-.08-.52v-1.96c.19-.32.4-.48.63-.48.07,0,.13.02.19.06.06.04.1.1.12.18.02.08.04.27.04.57v1.63c0,.26-.02.42-.06.48-.06.1-.16.15-.3.17v.14h1.85v-.14c-.16-.02-.27-.06-.32-.13-.05-.07-.08-.24-.08-.53Z"/>
      <path class="cls-1" d="m88.25,132.53s-.06-.01-.09-.03c-.03-.02-.05-.05-.06-.1-.01-.04-.02-.15-.02-.31v-1.42c0-.39-.02-.65-.05-.75-.06-.17-.19-.33-.39-.48-.2-.15-.48-.22-.82-.22-.29,0-.56.05-.83.14-.27.09-.47.22-.62.39-.15.17-.22.35-.22.54,0,.13.06.25.17.35.11.1.25.15.41.15.15,0,.28-.04.37-.13.1-.09.14-.2.14-.33,0-.1-.05-.21-.15-.32-.07-.08-.11-.15-.11-.2,0-.06.03-.12.1-.16.11-.08.25-.11.42-.11.1,0,.2.03.28.08.08.05.14.12.17.19.03.07.04.25.04.52v.37c-.81.37-1.33.67-1.57.89-.24.22-.36.47-.36.75,0,.21.07.38.21.51.14.14.31.21.52.21.35,0,.75-.2,1.2-.59.03.2.1.35.22.44.12.1.28.15.49.15.18,0,.34-.04.48-.13.14-.09.27-.23.4-.42l-.12-.09c-.07.1-.14.14-.21.14Zm-1.26-.38c-.17.15-.32.22-.45.22-.12,0-.21-.04-.27-.11-.09-.09-.13-.2-.13-.32,0-.14.05-.29.15-.43.15-.21.39-.41.7-.59v1.22Z"/>
      <path class="cls-1" d="m57.52,196.35c.28-.49.49-.79.62-.9.09-.08.23-.13.4-.15v-.14h-1.62v.14c.24.01.4.05.49.12.07.05.1.11.1.18,0,.13-.12.39-.36.78l-.95,1.6-.96-1.76c-.21-.38-.31-.61-.31-.71,0-.05.03-.1.09-.14.06-.04.17-.07.32-.07h.11v-.14h-2.54v.14c.17,0,.31.04.41.12s.28.34.52.79l1.25,2.27v1.06c0,.27-.01.43-.04.49-.04.09-.09.15-.16.19-.09.05-.22.08-.37.08h-.28v.14h2.98v-.14h-.3c-.14,0-.25-.03-.34-.08s-.14-.11-.17-.18c-.03-.07-.04-.24-.04-.51v-1.28l1.15-1.92Z"/>
      <path class="cls-1" d="m60.63,196.94c-.27-.16-.57-.25-.89-.25-.53,0-.95.19-1.25.58-.3.39-.46.85-.46,1.37s.15.96.45,1.34.72.58,1.27.58,1-.21,1.32-.63c.26-.35.39-.78.39-1.3,0-.36-.07-.69-.21-.99-.14-.3-.35-.54-.62-.7Zm-.39,2.89c-.03.16-.1.28-.2.37-.08.07-.18.1-.29.1s-.23-.05-.32-.14c-.09-.1-.16-.24-.18-.42-.04-.24-.05-.5-.05-.78,0-.53.01-.94.04-1.23s.09-.49.19-.59.21-.15.34-.15c.11,0,.2.03.27.08.1.08.17.2.22.36s.07.47.07.91c0,.75-.03,1.25-.08,1.5Z"/>
      <path class="cls-1" d="m63.47,195.47h-.13c-.17.32-.37.6-.6.86-.23.26-.51.5-.84.73v.14h.48v1.97c0,.39.01.63.04.72.04.16.15.3.31.43.16.13.36.19.59.19.47,0,.82-.25,1.03-.75l-.12-.09c-.15.26-.31.39-.48.39-.04,0-.09-.02-.14-.06-.05-.04-.08-.09-.1-.15s-.03-.2-.03-.41v-2.26h.87v-.39h-.87v-1.34Z"/>
      <path class="cls-1" d="m67.3,196.94c-.27-.16-.57-.25-.89-.25-.53,0-.95.19-1.25.58-.3.39-.46.85-.46,1.37s.15.96.45,1.34.72.58,1.27.58,1-.21,1.32-.63c.26-.35.39-.78.39-1.3,0-.36-.07-.69-.21-.99-.14-.3-.35-.54-.62-.7Zm-.39,2.89c-.03.16-.1.28-.2.37-.08.07-.18.1-.29.1s-.23-.05-.32-.14c-.09-.1-.16-.24-.18-.42-.04-.24-.05-.5-.05-.78,0-.53.01-.94.04-1.23s.09-.49.19-.59.21-.15.34-.15c.11,0,.2.03.27.08.1.08.17.2.22.36s.07.47.07.91c0,.75-.03,1.25-.08,1.5Z"/>
      <path class="cls-1" d="m72.24,201.43v-4.74h-.13l-.61.43c-.12-.14-.26-.25-.42-.32-.16-.07-.35-.11-.56-.11-.31,0-.61.09-.89.26-.28.18-.5.43-.66.76s-.24.69-.24,1.07c0,.45.11.84.32,1.17.27.41.63.61,1.09.61.2,0,.39-.05.57-.14.14-.07.29-.19.45-.35v1.38c0,.19-.01.31-.04.37s-.08.11-.15.14c-.07.04-.19.05-.35.05v.14h2.11v-.14c-.21,0-.34-.05-.41-.15-.04-.06-.06-.21-.06-.45Zm-1.09-1.71c-.11.14-.22.24-.34.31-.12.07-.22.1-.32.1-.16,0-.29-.08-.39-.23-.15-.23-.22-.62-.22-1.18,0-.73.09-1.23.26-1.5.11-.17.26-.26.46-.26.1,0,.18.02.24.07.12.1.21.22.25.35s.07.41.07.83v1.51Z"/>
      <path class="cls-1" d="m75.94,199.43l-.63-1.2.38-.59c.17-.27.33-.45.47-.54.14-.09.29-.14.45-.15v-.14h-1.29v.14c.12.01.2.04.24.08.05.04.07.08.07.14,0,.11-.1.32-.31.6l-.15.21-.29-.53c-.07-.12-.1-.19-.11-.21-.01-.04-.02-.08-.02-.12,0-.04.01-.07.03-.09l.2-.07h.11v-.15h-2.03v.14c.13.01.24.06.34.14.1.09.26.32.46.7l.63,1.17-.3.45c-.28.41-.5.67-.64.77-.15.1-.31.15-.49.15v.14h1.43v-.14c-.11,0-.19,0-.24-.03-.04-.02-.08-.05-.1-.09s-.04-.09-.04-.15c0-.04.01-.08.03-.13.02-.03.08-.14.21-.32l.27-.39.32.59c.08.16.13.27.13.34,0,.05-.02.09-.06.12-.04.03-.14.05-.3.06v.14h2.04v-.14c-.12,0-.22-.04-.29-.1-.13-.11-.3-.38-.52-.8Z"/>
      <path class="cls-1" d="m79.76,196.94c-.27-.16-.57-.25-.89-.25-.53,0-.95.19-1.25.58-.3.39-.46.85-.46,1.37s.15.96.45,1.34.72.58,1.27.58,1-.21,1.32-.63c.26-.35.39-.78.39-1.3,0-.36-.07-.69-.21-.99-.14-.3-.35-.54-.62-.7Zm-.39,2.89c-.03.16-.1.28-.2.37-.08.07-.18.1-.29.1s-.23-.05-.32-.14c-.09-.1-.16-.24-.18-.42-.04-.24-.05-.5-.05-.78,0-.53.01-.94.04-1.23s.09-.49.19-.59.21-.15.34-.15c.11,0,.2.03.27.08.1.08.17.2.22.36s.07.47.07.91c0,.75-.03,1.25-.08,1.5Z"/>
      <path class="cls-1" d="m84.71,199.67v-1.42c0-.42-.02-.71-.06-.86-.05-.2-.16-.36-.31-.49-.16-.13-.35-.2-.59-.2-.2,0-.38.05-.56.14-.17.09-.35.24-.54.44v-.47h-1.49v.14c.16.02.27.07.32.13.05.07.08.24.08.52v2.06c0,.28-.02.45-.07.51-.07.08-.17.13-.33.15v.14h1.85v-.14c-.14-.02-.23-.06-.28-.14-.05-.07-.08-.25-.08-.52v-1.96c.19-.32.4-.48.63-.48.07,0,.13.02.19.06.06.04.1.1.12.18.02.08.04.27.04.57v1.63c0,.26-.02.42-.06.48-.06.1-.16.15-.3.17v.14h1.85v-.14c-.16-.02-.27-.06-.32-.13-.05-.07-.08-.24-.08-.53Z"/>
      <path class="cls-1" d="m88.88,200.01s-.06-.01-.09-.03-.05-.05-.06-.1c-.01-.04-.02-.15-.02-.31v-1.42c0-.39-.02-.65-.05-.75-.06-.17-.19-.33-.39-.48-.2-.15-.48-.22-.82-.22-.29,0-.56.05-.83.14-.27.09-.47.22-.62.39-.15.17-.22.35-.22.54,0,.13.06.25.17.35s.25.15.41.15c.15,0,.28-.04.37-.13.1-.09.14-.2.14-.33,0-.1-.05-.21-.15-.32-.07-.08-.11-.15-.11-.2,0-.06.03-.12.1-.16.11-.08.25-.11.42-.11.1,0,.2.03.28.08.08.05.14.12.17.19.03.07.04.25.04.52v.37c-.81.37-1.33.67-1.57.89-.24.22-.36.47-.36.75,0,.21.07.38.21.51.14.14.31.21.52.21.35,0,.75-.2,1.2-.59.03.2.1.35.22.44.12.1.28.15.49.15.18,0,.34-.04.48-.13s.27-.23.4-.42l-.12-.09c-.07.1-.14.14-.21.14Zm-1.26-.38c-.17.15-.32.22-.45.22-.12,0-.21-.04-.27-.11-.09-.09-.13-.2-.13-.32,0-.14.05-.29.15-.43.15-.21.39-.41.7-.59v1.22Z"/>
      <path class="cls-1" d="m54.54,95.89l-1.49-3.5h-2.17v.14h.17c.15,0,.27.03.36.08.09.05.15.11.18.18.03.07.04.23.04.5v3.36c0,.24,0,.37,0,.4-.03.12-.07.22-.12.29-.05.07-.13.12-.23.16-.1.04-.21.06-.33.06h-.05v.14h1.81v-.14c-.24,0-.42-.04-.53-.12-.11-.08-.19-.19-.22-.32-.01-.06-.02-.22-.02-.48v-3.73l2.06,4.8h.09l2.03-4.84v3.93c0,.27-.01.43-.04.49-.04.09-.09.15-.16.19-.09.05-.22.08-.38.08h-.17v.14h2.77v-.14h-.17c-.15,0-.27-.03-.36-.08-.09-.05-.15-.11-.18-.18-.03-.07-.04-.24-.04-.51v-3.5c0-.26.01-.43.04-.49.04-.09.09-.15.16-.18.09-.05.22-.08.38-.08h.17v-.14h-2.16l-1.44,3.5Z"/>
      <path class="cls-1" d="m61.21,94.39c-.27-.3-.59-.46-.96-.46-.44,0-.83.18-1.16.54-.33.36-.49.85-.49,1.46,0,.5.11.92.34,1.25.28.42.69.63,1.23.63.32,0,.59-.08.83-.25.24-.17.46-.45.66-.86l-.13-.09c-.15.23-.28.38-.41.47-.13.09-.27.13-.43.13-.25,0-.47-.11-.65-.32-.23-.28-.36-.66-.39-1.15h2.01c-.02-.6-.17-1.05-.44-1.35Zm-1.59,1.09v-.14c0-.4.08-.72.23-.95.09-.13.2-.2.33-.2.09,0,.16.02.22.07.1.08.17.2.21.36s.07.44.07.86h-1.06Z"/>
      <path class="cls-1" d="m64.5,97.4c-.07.09-.16.14-.29.16v.14h1.85v-.14c-.16-.02-.26-.06-.32-.13s-.08-.24-.08-.52v-1.43c0-.42-.03-.71-.08-.89-.05-.18-.16-.33-.32-.46s-.36-.2-.59-.2c-.18,0-.35.04-.52.13-.17.09-.35.24-.55.45v-2.12h-1.49v.14c.16.02.27.07.32.13s.08.24.08.52v3.71c0,.28-.02.45-.07.5-.07.08-.17.13-.33.15v.14h1.85v-.14c-.15-.02-.26-.08-.31-.16-.04-.07-.06-.23-.06-.49v-1.96c.11-.18.22-.31.32-.38.1-.07.2-.11.31-.11.07,0,.13.02.19.06.06.04.1.1.12.18.02.08.04.27.04.57v1.63c0,.26-.02.43-.07.5Z"/>
      <path class="cls-1" d="m68.47,97.55c-.16-.02-.27-.06-.32-.15-.05-.08-.08-.25-.08-.51v-1.96c.14-.2.27-.33.39-.41.09-.05.18-.08.29-.08.07,0,.14.02.2.07.06.05.1.11.13.2s.04.29.04.62v1.57c0,.21,0,.35-.03.42s-.06.12-.12.16c-.06.05-.14.07-.24.08v.14h1.89v-.14c-.17-.01-.28-.06-.34-.16-.04-.07-.07-.23-.07-.5v-1.96c.12-.16.23-.29.35-.37s.23-.12.34-.12c.08,0,.14.02.2.06.06.04.1.11.12.2.03.09.04.3.04.62v1.57c0,.25-.02.41-.07.48-.07.1-.18.16-.33.17v.14h1.89v-.14c-.16-.02-.27-.07-.32-.13-.05-.07-.08-.24-.08-.52v-1.5c0-.39-.03-.68-.09-.85-.06-.18-.16-.33-.31-.44s-.35-.17-.6-.17c-.21,0-.41.05-.6.16s-.39.27-.6.51c-.09-.22-.21-.39-.37-.5-.16-.11-.36-.16-.59-.16-.2,0-.39.04-.56.13-.17.09-.36.24-.56.46v-.48h-1.49v.14c.16.02.27.07.32.13.05.07.08.24.08.52v2.06c0,.28-.02.45-.07.51-.07.08-.17.13-.33.15v.14h1.88v-.14Z"/>
      <path class="cls-1" d="m74.97,97.81c.56,0,1-.21,1.32-.63.26-.35.39-.78.39-1.3,0-.36-.07-.69-.21-.99-.14-.3-.35-.54-.62-.7-.27-.16-.57-.25-.89-.25-.53,0-.95.19-1.25.58-.3.39-.46.85-.46,1.37s.15.96.45,1.34c.3.39.72.58,1.27.58Zm-.53-2.85c.03-.3.09-.49.19-.59s.21-.15.34-.15c.11,0,.2.03.27.08.1.08.17.2.22.36s.07.47.07.91c0,.75-.03,1.25-.08,1.5-.03.16-.1.28-.2.37-.08.07-.18.1-.29.1s-.23-.05-.32-.14c-.09-.1-.16-.24-.18-.42-.04-.24-.05-.5-.05-.78,0-.53.01-.94.04-1.23Z"/>
      <path class="cls-1" d="m79.09,97.55c-.14-.02-.23-.06-.28-.14-.05-.07-.08-.25-.08-.52v-1.96c.19-.32.4-.48.63-.48.07,0,.13.02.19.06.06.04.1.1.12.18.02.08.04.27.04.57v1.63c0,.26-.02.42-.06.48-.06.1-.16.15-.3.17v.14h1.85v-.14c-.16-.02-.27-.06-.32-.13-.05-.07-.08-.24-.08-.53v-1.42c0-.42-.02-.71-.06-.86-.05-.2-.16-.36-.31-.49-.16-.13-.35-.2-.59-.2-.2,0-.38.05-.56.14-.17.09-.35.24-.54.44v-.47h-1.49v.14c.16.02.27.07.32.13.05.07.08.24.08.52v2.06c0,.28-.02.45-.07.51-.07.08-.17.13-.33.15v.14h1.85v-.14Z"/>
      <path class="cls-1" d="m84.49,96.66l-.63-1.2.38-.59c.17-.27.33-.45.47-.54.14-.09.29-.14.45-.15v-.14h-1.29v.14c.12.01.2.04.24.08.05.04.07.08.07.14,0,.11-.1.32-.31.6l-.15.21-.29-.53c-.07-.12-.1-.19-.11-.21-.01-.04-.02-.08-.02-.12,0-.04.01-.07.03-.09l.2-.07h.11v-.15h-2.03v.14c.13.01.24.06.34.14.1.09.26.32.46.7l.63,1.17-.3.45c-.28.41-.5.67-.64.77-.15.1-.31.15-.49.15v.14h1.43v-.14c-.11,0-.19,0-.24-.03-.04-.02-.08-.05-.1-.09s-.04-.09-.04-.15c0-.04.01-.08.03-.13.02-.03.08-.14.21-.32l.27-.39.32.59c.08.16.13.27.13.34,0,.05-.02.09-.06.12-.04.03-.14.05-.3.06v.14h2.04v-.14c-.12,0-.22-.04-.29-.1-.13-.11-.3-.38-.52-.8Z"/>
      <path class="cls-1" d="m88.31,94.18c-.27-.16-.57-.25-.89-.25-.53,0-.95.19-1.25.58-.3.39-.46.85-.46,1.37s.15.96.45,1.34c.3.39.72.58,1.27.58s1-.21,1.32-.63c.26-.35.39-.78.39-1.3,0-.36-.07-.69-.21-.99-.14-.3-.35-.54-.62-.7Zm-.39,2.89c-.03.16-.1.28-.2.37-.08.07-.18.1-.29.1s-.23-.05-.32-.14c-.09-.1-.16-.24-.18-.42-.04-.24-.05-.5-.05-.78,0-.53.01-.94.04-1.23.03-.3.09-.49.19-.59s.21-.15.34-.15c.11,0,.2.03.27.08.1.08.17.2.22.36s.07.47.07.91c0,.75-.03,1.25-.08,1.5Z"/>
      <path class="cls-1" d="m93.25,96.9v-1.42c0-.42-.02-.71-.06-.86-.05-.2-.16-.36-.31-.49-.16-.13-.35-.2-.59-.2-.2,0-.38.05-.56.14-.17.09-.35.24-.54.44v-.47h-1.49v.14c.16.02.27.07.32.13.05.07.08.24.08.52v2.06c0,.28-.02.45-.07.51-.07.08-.17.13-.33.15v.14h1.85v-.14c-.14-.02-.23-.06-.28-.14-.05-.07-.08-.25-.08-.52v-1.96c.19-.32.4-.48.63-.48.07,0,.13.02.19.06.06.04.1.1.12.18.02.08.04.27.04.57v1.63c0,.26-.02.42-.06.48-.06.1-.16.15-.3.17v.14h1.85v-.14c-.16-.02-.27-.06-.32-.13-.05-.07-.08-.24-.08-.53Z"/>
      <path class="cls-1" d="m97.43,97.25s-.06-.01-.09-.03-.05-.05-.06-.1c-.01-.04-.02-.15-.02-.31v-1.42c0-.39-.02-.65-.05-.75-.06-.17-.19-.33-.39-.48-.2-.15-.48-.22-.82-.22-.29,0-.56.05-.83.14-.27.09-.47.22-.62.39-.15.17-.22.35-.22.54,0,.13.06.25.17.35s.25.15.41.15c.15,0,.28-.04.37-.13.1-.09.14-.2.14-.33,0-.1-.05-.21-.15-.32-.07-.08-.11-.15-.11-.2,0-.06.03-.12.1-.16.11-.08.25-.11.42-.11.1,0,.2.03.28.08.08.05.14.12.17.19s.04.25.04.52v.37c-.81.37-1.33.67-1.57.89-.24.22-.36.47-.36.75,0,.21.07.38.21.51.14.14.31.21.52.21.35,0,.75-.2,1.2-.59.03.2.1.35.22.44.12.1.28.15.49.15.18,0,.34-.04.48-.13.14-.09.27-.23.4-.42l-.12-.09c-.07.1-.14.14-.21.14Zm-1.26-.38c-.17.15-.32.22-.45.22-.12,0-.21-.04-.27-.11-.09-.09-.13-.2-.13-.32,0-.14.05-.29.15-.43.15-.21.39-.41.7-.59v1.22Z"/>
      <path class="cls-1" d="m168.13,120.01h-.18c-.15,0-.27-.03-.35-.08-.09-.05-.15-.11-.18-.18-.03-.07-.04-.24-.04-.51v-1.64h1.87v1.64c0,.27-.01.43-.04.49-.04.09-.09.15-.16.19-.09.05-.22.08-.37.08h-.17v.14h2.77v-.14h-.17c-.15,0-.27-.03-.36-.08-.09-.05-.15-.11-.18-.18-.03-.07-.04-.24-.04-.51v-3.49c0-.27.01-.43.04-.49.04-.09.09-.15.16-.19.09-.05.22-.08.37-.08h.17v-.14h-2.77v.14h.17c.15,0,.27.03.36.08.09.05.15.11.18.18.03.07.04.24.04.51v1.5h-1.87v-1.5c0-.27.01-.43.04-.49.04-.09.09-.15.16-.19.09-.05.22-.08.37-.08h.18v-.14h-2.77v.14h.18c.15,0,.27.03.35.08.09.05.15.11.17.18.03.07.04.24.04.51v3.49c0,.27-.01.43-.04.49-.04.09-.09.15-.16.19-.09.05-.22.08-.37.08h-.18v.14h2.77v-.14Z"/>
      <path class="cls-1" d="m174.97,119.7s-.06-.01-.09-.03-.05-.05-.06-.1c-.01-.04-.02-.15-.02-.31v-1.42c0-.39-.02-.65-.05-.75-.06-.17-.19-.33-.39-.48-.2-.15-.48-.22-.82-.22-.29,0-.56.05-.83.14-.27.09-.47.22-.62.39-.15.17-.22.35-.22.54,0,.13.06.25.17.35s.25.15.41.15c.15,0,.28-.04.37-.13.1-.09.14-.2.14-.33,0-.1-.05-.21-.15-.32-.07-.08-.11-.15-.11-.2,0-.06.03-.12.1-.16.11-.08.25-.11.42-.11.1,0,.2.03.28.08.08.05.14.12.17.19s.04.25.04.52v.37c-.81.37-1.33.67-1.57.89-.24.22-.36.47-.36.75,0,.21.07.38.21.51.14.14.31.21.52.21.35,0,.75-.2,1.2-.59.03.2.1.35.22.44.12.1.28.15.49.15.18,0,.34-.04.48-.13.14-.09.27-.23.4-.42l-.12-.09c-.07.1-.14.14-.21.14Zm-1.26-.38c-.17.15-.32.22-.45.22-.12,0-.21-.04-.27-.11-.09-.09-.13-.2-.13-.32,0-.14.05-.29.15-.43.15-.21.39-.41.7-.59v1.22Z"/>
      <path class="cls-1" d="m181.49,119.36v-1.5c0-.39-.03-.68-.09-.85-.06-.18-.16-.33-.31-.44s-.35-.17-.6-.17c-.21,0-.41.05-.6.16s-.39.27-.6.51c-.09-.22-.21-.39-.37-.5-.16-.11-.36-.16-.59-.16-.2,0-.39.04-.56.13-.17.09-.36.24-.56.46v-.48h-1.49v.14c.16.02.27.07.32.13.05.07.08.24.08.52v2.06c0,.28-.02.45-.07.51-.07.08-.17.13-.33.15v.14h1.88v-.14c-.16-.02-.27-.06-.32-.15-.05-.08-.08-.25-.08-.51v-1.96c.14-.2.27-.33.39-.41.09-.05.18-.08.29-.08.07,0,.14.02.2.07.06.05.1.11.13.2s.04.29.04.62v1.57c0,.21,0,.35-.03.42s-.06.12-.12.16c-.06.05-.14.07-.24.08v.14h1.89v-.14c-.17-.01-.28-.06-.34-.16-.04-.07-.07-.23-.07-.5v-1.96c.12-.16.23-.29.35-.37s.23-.12.34-.12c.08,0,.14.02.2.06.06.04.1.11.12.2.03.09.04.3.04.62v1.57c0,.25-.02.41-.07.48-.07.1-.18.16-.33.17v.14h1.89v-.14c-.16-.02-.27-.07-.32-.13-.05-.07-.08-.24-.08-.52Z"/>
      <path class="cls-1" d="m194.95,120.01c-.16-.02-.27-.06-.32-.15-.05-.08-.08-.25-.08-.51v-1.96c.14-.2.27-.33.39-.41.09-.05.18-.08.29-.08.07,0,.14.02.2.07.06.05.1.11.13.2s.04.29.04.62v1.57c0,.21,0,.35-.03.42s-.06.12-.12.16c-.06.05-.14.07-.24.08v.14h1.89v-.14c-.17-.01-.28-.06-.34-.16-.04-.07-.07-.23-.07-.5v-1.96c.12-.16.23-.29.35-.37s.23-.12.34-.12c.08,0,.14.02.2.06.06.04.1.11.12.2.03.09.04.3.04.62v1.57c0,.25-.02.41-.07.48-.07.1-.18.16-.33.17v.14h1.89v-.14c-.16-.02-.27-.07-.32-.13-.05-.07-.08-.24-.08-.52v-1.5c0-.39-.03-.68-.09-.85-.06-.18-.16-.33-.31-.44s-.35-.17-.6-.17c-.21,0-.41.05-.6.16s-.39.27-.6.51c-.09-.22-.21-.39-.37-.5-.16-.11-.36-.16-.59-.16-.2,0-.39.04-.56.13-.17.09-.36.24-.56.46v-.48h-1.49v.14c.16.02.27.07.32.13.05.07.08.24.08.52v2.06c0,.28-.02.45-.07.51-.07.08-.17.13-.33.15v.14h1.88v-.14Z"/>
      <path class="cls-1" d="m171.69,155.61c-.38,0-.73-.15-1.06-.44s-.55-.73-.66-1.29h-.14v2h.14c.05-.11.11-.19.18-.24.08-.05.15-.08.22-.08.08,0,.18.03.31.08.22.09.41.16.56.19.15.03.31.05.47.05.53,0,.97-.16,1.32-.48.35-.32.52-.7.52-1.14,0-.35-.11-.66-.32-.93-.22-.27-.63-.56-1.26-.86-.44-.22-.73-.37-.85-.46-.17-.12-.29-.24-.36-.36-.05-.09-.08-.2-.08-.31,0-.19.08-.35.23-.49.16-.14.37-.21.63-.21.34,0,.66.13.96.4s.48.63.56,1.07h.16l-.04-1.77h-.12c-.03.16-.07.26-.11.3-.04.04-.09.06-.16.06s-.19-.04-.37-.13c-.18-.08-.33-.14-.45-.17-.16-.04-.33-.06-.5-.06-.47,0-.86.15-1.17.45-.31.3-.47.66-.47,1.08,0,.25.06.47.17.68.11.21.28.39.49.56.21.17.56.37,1.04.61.34.17.58.31.72.41s.24.22.3.33c.07.12.1.24.1.36,0,.21-.09.4-.26.56-.17.16-.41.24-.7.24Z"/>
      <polygon class="cls-1" points="175.62 150.34 173.88 155.88 174.38 155.88 176.12 150.34 175.62 150.34"/>
      <path class="cls-1" d="m178.29,150.84c.03-.08.09-.13.16-.18.08-.04.22-.06.42-.06h.14v-.14h-2.74v.14c.22,0,.38.02.46.06.08.04.14.1.18.18.03.07.05.26.05.57v2.6c0,.44.07.79.21,1.05s.38.47.72.64c.25.12.6.18,1.06.18.55,0,.98-.12,1.3-.35.32-.23.52-.49.6-.76s.12-.73.12-1.35v-2.01c0-.22.02-.37.05-.45.04-.12.12-.21.22-.27.1-.06.22-.09.37-.09h.11v-.14h-1.83v.14c.21,0,.38.03.5.09.08.04.14.11.19.21.05.1.07.27.07.51v2.16c0,.56-.05.96-.15,1.18s-.25.4-.45.53-.45.19-.73.19c-.25,0-.46-.05-.62-.15s-.28-.23-.35-.38c-.07-.15-.11-.47-.11-.94v-2.6c0-.3.02-.49.05-.57Z"/>
    </g>
  </g>
</svg>