<?xml version="1.0" encoding="UTF-8"?>
<svg id="_Слой_2" data-name="Слой 2" xmlns="http://www.w3.org/2000/svg" viewBox="0 0 173.81 213.27">
  <defs>
    <style>
      .cls-1 {
        fill: #005130;
      }
    </style>
  </defs>
  <g id="_Слой_1-2" data-name="Слой 1">
    <g>
      <path class="cls-1" d="m0,112.86s0,.01.01.01.01,0,.01-.01,0-.01-.01-.01-.01,0-.01.01Z"/>
      <path class="cls-1" d="m57.58,207.25c-.16,0-.3.13-.3.3s.13.3.3.3.3-.13.3-.3-.13-.3-.3-.3Z"/>
      <circle class="cls-1" cx="33.34" cy="131.85" r=".3"/>
      <path class="cls-1" d="m59.22,131.85c0-.16-.13-.3-.3-.3h-22.61c-.16,0-.3.13-.3.3s.13.3.3.3h22.61c.16,0,.3-.13.3-.3Z"/>
      <circle class="cls-1" cx="61.75" cy="131.85" r=".3"/>
      <path class="cls-1" d="m116.03,131.85c0-.16-.13-.3-.3-.3h-22.76c-.16,0-.3.13-.3.3s.13.3.3.3h22.76c.16,0,.3-.13.3-.3Z"/>
      <path class="cls-1" d="m118.56,131.55c-.16,0-.3.13-.3.3s.13.3.3.3.3-.13.3-.3-.13-.3-.3-.3Z"/>
      <path class="cls-1" d="m146.97,131.55c-.16,0-.3.13-.3.3s.13.3.3.3.3-.13.3-.3-.13-.3-.3-.3Z"/>
      <path class="cls-1" d="m173.81,10.63V.67c0-.37-.3-.67-.67-.67h-9.96c-.23,0-.42.12-.54.3H12.17c-.12-.17-.31-.3-.54-.3H1.51c-.37,0-.67.3-.67.67v9.97c0,.36.29.66.65.67v114.82c-.36,0-.65.3-.65.67v10.11c0,.36.29.66.65.67v7.19h0s-.07,0-.07,0l.07.03h0v2.95h-.01v.02s.01.01.01.01v10.07h0s-.06,0-.06,0l.06.03h0v2.95h0v.02s0,.02,0,.02v41.11c-.36,0-.65.3-.65.67v9.96c0,.37.3.67.67.67h10.11c.36,0,.66-.29.67-.65h30.5c0,.2.17.36.37.36s.37-.17.37-.37v-4.76h11.23c.16,0,.3-.13.3-.3s-.13-.3-.3-.3h-11.23v-.89c0-.2-.17-.37-.37-.37H12.29v-3.35c0-.37-.3-.67-.67-.67h-3.35v-41.03l.1-.1h80.44v44.74l-2.67-2.66h-.01s-.76.59-.76.59h-.02s2.51,2.47,2.51,2.47h-19.44c-.21,0-.37.17-.37.37v.89h-7.51c-.16,0-.3.13-.3.3s.13.3.3.3h7.51v4.76c0,.2.17.37.37.37s.36-.16.37-.36h93.71c0,.36.3.65.67.65h9.96c.37,0,.67-.3.67-.67v-9.96c0-.37-.3-.67-.67-.67h-3.7v-64.4s3.7,0,3.7,0c.37,0,.67-.3.67-.67v-10.11c0-.37-.3-.67-.67-.67h-3.7v-11.96h0V11.3s3.7,0,3.7,0c.37,0,.67-.3.67-.67Zm-11.01,115.61c-.07.05-.12.1-.17.17h-39.39l2.94-5.74,36.11-3.03h.51v8.61ZM106.74,7.66h34.5v2.6h-34.5v-2.6Zm34.5-2.38h-9.3c-.16,0-.3.13-.3.3s.13.3.3.3h9.3v.89h-34.5v-.89h19.41c.16,0,.3-.13.3-.3s-.13-.3-.3-.3h-19.41v-.89h34.5v.89Zm-73.17,0h-21.34c-.16,0-.3.13-.3.3s.13.3.3.3h21.34v.89h-34.65v-.89h7.51c.16,0,.3-.13.3-.3s-.13-.3-.3-.3h-7.51v-.89h34.65v.89Zm-43.97,126.86l1.41,1.41h-13.21v-1.41h11.8ZM33.41,7.66h34.65v2.6h-34.65v-2.6Zm57.87,54.58l2.6-2.67h.01s-.61-.62-.61-.62h-.01s-.01,0-.01,0l-2.44,2.39v-1.68l.09-.09h.01s-.1-.09-.1-.09V11.01h58.5l.17.17v51.06h-58.22Zm58.51-50.76l2.67,2.73h.01s.77-.76.77-.76h-.01s-2.5-2.45-2.5-2.45h11.91c.05.07.1.12.17.17v51.07h-13.01V11.48Zm12.98,51.05l-2.73,2.67h-.01s.77.78.77.78h.01s2-2.06,2-2.06v49.85h-12.84l-.17-.17v-51.07h12.98Zm-7.95,69.01h-.12v-.12l.12.12Zm.64-.74h3.84c.08,0,.15-.07.15-.15s-.07-.15-.15-.15h-4.14l-.22-.22h7.56v1.26h-6.3l-.74-.74ZM141.24,3.49h-34.5V1.04h34.5v2.45Zm-73.17,0h-34.65V1.04h34.65v2.45ZM26.89,133.56l-1.41-1.41h1.46v1.41h-.05Zm-2.01-2.01l-.61-.61h-.01s-.75.59-.75.59h-.01s-11.2.01-11.2.01v-4.76c0-.37-.3-.67-.67-.67h-3.35v-63.41l.17-.17h18.5v69.01h-2.06ZM8.74,62.24l2.6-2.67h.01s-.61-.62-.61-.62h-.01s-.01,0-.01,0l-2.44,2.39V11.3h3.35c.23,0,.42-.12.54-.3h14.53l.25.25v50.99H8.74ZM27.24,11.55l2.67,2.66h.01s.61-.74.61-.74h.01s-2.45-2.46-2.45-2.46h58.87v51.14l-.1.1H27.24V11.55Zm64.54,128.93h.01s.61-.75.61-.75h.01s-2.45-2.46-2.45-2.46h3.77c.21,0,.37-.17.37-.37v-2.97c0-.2-.17-.37-.37-.37h-2.9V62.71l.17-.17h58.51v50.78l-2.67-2.6h-.01s-.62.61-.62.61h.01s2.38,2.45,2.38,2.45h-28.85c-.21,0-.37.17-.37.37v19.41h-2.9c-.21,0-.37.17-.37.37v2.97c0,.2.17.37.37.37h2.9v22.29l-.22.22v-5.03c0-.08-.07-.15-.15-.15s-.15.07-.15.15v5.33l-.47.47h-29.28v-22.73l2.67,2.66Zm34.38,17.4h.01s-.6-.76-.6-.76v-.02s-2.47,2.51-2.47,2.51v-27.47h21.05c.16,0,.3-.13.3-.3s-.13-.3-.3-.3h-21.05v-1.26h30.46l.22.22h-2.95c-.08,0-.15.07-.15.15s.07.15.15.15h3.25l.32.32v.42h-4.61c-.16,0-.3.13-.3.3s.13.3.3.3h4.61v28.41h-30.91l2.67-2.67Zm28.54-25.74h.72l1.96,1.96.77-.62h-.02s-1.33-1.34-1.33-1.34h5.7v4.76c0,.23.12.42.3.54v22.86l-.25.25h-7.86v-28.41Zm7.56,28.7l-2.68,2.68.77.62,2.45-2.45v40.41c-.17.12-.3.31-.3.54v3.35h-7.64l-.17-.17v-44.97h7.56Zm-153.59-.3l2.67-2.67h.01s-.6-.76-.6-.76v-.02s-.02.02-.02.02l-2.44,2.44v-21.99h3.35c.23,0,.42-.12.54-.3h14.78v.97c0,.08.07.15.15.15s.15-.07.15-.15v-.97h1.98l.68.68h.01s.55-.68.55-.68h12.68c.21,0,.37-.17.37-.37v-2.97c0-.2-.17-.37-.37-.37h-15.91v-1.41h3.27c.16,0,.3-.13.3-.3s-.13-.3-.3-.3h-3.27V62.54h59.32l-2.67,2.67h-.01s.6.76.6.76v.02s.02-.02.02-.02l2.44-2.44v1.59l-.09.08h-.01s.1.11.1.11v66.23h-22.23c-.16,0-.3.13-.3.3s.13.3.3.3h22.23v1.41h-.72l-.09-.09h-.01s-.12.09-.12.09h-17.58c-.21,0-.37.17-.37.37v2.97c0,.2.17.37.37.37h20.13l.25.25v23.03H8.67Zm80.44.3h28.98l-2.67,2.67h-.01s.76.62.76.62h.01s2.67-2.67,2.67-2.67v2.95c0,.08.07.15.15.15s.15-.07.15-.15v-3.25l.22-.22v2.48l-.09.09h-.01s.1.11.1.11v9.87c0,.2.17.37.37.37h2.97c.21,0,.37-.17.37-.37v-12.54l.1-.1h31.21v44.68l-2.67-2.6h-.01s-.62.61-.62.61h.01s2.44,2.45,2.44,2.45h-30.47v-12.27c0-.2-.17-.37-.37-.37h-2.97c-.21,0-.37.17-.37.37v12.27h-30.17l-.1-.1v-45.04Z"/>
      <path class="cls-1" d="m43.9,5.87c.16,0,.3-.13.3-.3s-.13-.3-.3-.3-.3.13-.3.3.13.3.3.3Z"/>
      <circle class="cls-1" cx="128.97" cy="5.58" r=".3"/>
      <path class="cls-1" d="m39,56.53c.4-.18.71-.43.91-.75.2-.31.31-.66.31-1.04,0-.4-.11-.78-.32-1.14-.22-.36-.53-.64-.93-.85-.41-.21-.85-.31-1.33-.31-.7,0-1.28.2-1.75.6-.47.4-.77.96-.9,1.69l1.09.19c.08-.53.26-.93.54-1.19.28-.26.63-.4,1.05-.4s.77.13,1.04.39c.27.26.4.59.4.99,0,.5-.18.87-.55,1.12s-.79.36-1.25.36c-.04,0-.1,0-.18-.01l-.12.95c.31-.08.56-.12.76-.12.5,0,.92.16,1.24.48.33.32.49.74.49,1.23,0,.52-.18.96-.53,1.31-.35.35-.78.53-1.29.53-.43,0-.79-.14-1.09-.41s-.51-.71-.64-1.33l-1.08.14c.07.74.36,1.33.88,1.8s1.16.69,1.93.69c.86,0,1.57-.27,2.13-.8s.84-1.19.84-1.96c0-.57-.14-1.05-.43-1.43-.29-.38-.69-.63-1.22-.75Z"/>
      <path class="cls-1" d="m44.15,53.63c-.45.41-.98.75-1.59,1.04v1.05c.34-.13.72-.31,1.14-.56.42-.25.77-.5,1.03-.75v6.91h1.08v-8.87h-.7c-.19.38-.51.78-.96,1.18Z"/>
      <path class="cls-1" d="m51.7,55.46c-.58,0-1.14.18-1.67.55l.48-2.37h3.53v-1.04h-4.39l-.86,4.54,1.02.13c.16-.25.38-.46.66-.62.28-.16.6-.24.95-.24.56,0,1.02.18,1.37.54.35.36.52.85.52,1.47,0,.65-.18,1.17-.54,1.57s-.8.59-1.33.59c-.43,0-.81-.14-1.11-.42s-.5-.7-.59-1.25l-1.14.1c.07.74.36,1.34.87,1.79s1.16.68,1.97.68c.98,0,1.75-.36,2.32-1.07.47-.58.7-1.27.7-2.07,0-.84-.26-1.53-.8-2.06-.53-.53-1.18-.8-1.95-.8Z"/>
      <path class="cls-1" d="m60.47,53.56c-.23-.36-.53-.64-.89-.83-.36-.19-.77-.29-1.25-.29-.64,0-1.18.17-1.6.52s-.74.84-.96,1.47c-.21.64-.32,1.48-.32,2.52,0,1.66.29,2.86.87,3.59.49.61,1.16.92,2.01.92.65,0,1.18-.17,1.61-.52.42-.35.74-.84.96-1.48.21-.64.32-1.47.32-2.51,0-.88-.07-1.57-.2-2.09-.13-.52-.32-.95-.55-1.31Zm-.88,6.3c-.34.48-.76.72-1.26.72s-.92-.24-1.26-.72-.51-1.45-.51-2.9.19-2.44.56-2.98c.3-.42.7-.63,1.19-.63s.93.24,1.27.72c.34.48.51,1.44.51,2.9s-.17,2.41-.51,2.89Z"/>
      <path class="cls-1" d="m112.83,59.69c.18-.19.6-.57,1.25-1.11.78-.66,1.34-1.18,1.67-1.55.34-.38.58-.74.72-1.08.14-.34.22-.69.22-1.04,0-.69-.25-1.28-.74-1.75-.49-.47-1.17-.71-2.01-.71s-1.51.22-2.01.65c-.5.44-.79,1.07-.86,1.9l1.12.11c0-.55.16-.99.48-1.3s.73-.47,1.25-.47c.49,0,.9.15,1.2.44s.46.66.46,1.09-.17.84-.51,1.3c-.34.46-.99,1.08-1.95,1.87-.62.51-1.09.95-1.42,1.34-.33.39-.57.78-.71,1.18-.09.24-.13.49-.13.75h5.84v-1.04h-4.33c.12-.2.27-.39.46-.59Z"/>
      <path class="cls-1" d="m122.23,52.91c-.48-.31-1-.46-1.58-.46-.8,0-1.46.27-1.99.82-.53.55-.79,1.27-.79,2.16s.25,1.57.76,2.1c.51.53,1.12.8,1.86.8.44,0,.84-.11,1.22-.32.38-.21.67-.49.89-.84,0,.1,0,.17,0,.22,0,.45-.05.89-.16,1.33-.11.43-.24.78-.4,1.03-.16.25-.37.46-.62.61s-.54.23-.88.23c-.39,0-.71-.11-.96-.33s-.42-.58-.51-1.07l-1.04.1c.09.7.35,1.24.79,1.62.44.38,1,.58,1.69.58.65,0,1.22-.18,1.7-.52.48-.35.85-.86,1.09-1.53s.37-1.57.37-2.7-.12-1.91-.37-2.49c-.25-.57-.61-1.01-1.09-1.32Zm-.23,3.93c-.32.35-.74.53-1.24.53s-.92-.18-1.26-.53-.51-.81-.51-1.37c0-.63.18-1.14.54-1.53.36-.39.78-.59,1.26-.59s.86.18,1.2.55c.33.37.5.86.5,1.48s-.16,1.11-.48,1.46Z"/>
      <path class="cls-1" d="m129.75,53.56c-.23-.36-.53-.64-.89-.83-.36-.19-.77-.29-1.25-.29-.64,0-1.18.17-1.6.52-.42.35-.74.84-.96,1.47-.22.64-.32,1.48-.32,2.52,0,1.66.29,2.86.87,3.59.49.61,1.16.92,2.01.92.65,0,1.18-.17,1.61-.52.42-.35.74-.84.96-1.48.21-.64.32-1.47.32-2.51,0-.88-.07-1.57-.2-2.09-.13-.52-.32-.95-.55-1.31Zm-.88,6.3c-.34.48-.76.72-1.26.72s-.92-.24-1.26-.72c-.34-.48-.51-1.45-.51-2.9s.19-2.44.56-2.98c.3-.42.69-.63,1.19-.63s.93.24,1.27.72c.34.48.51,1.44.51,2.9s-.17,2.41-.51,2.89Z"/>
      <path class="cls-1" d="m136.62,53.56c-.23-.36-.53-.64-.89-.83-.36-.19-.77-.29-1.25-.29-.64,0-1.18.17-1.6.52s-.74.84-.96,1.47c-.21.64-.32,1.48-.32,2.52,0,1.66.29,2.86.87,3.59.49.61,1.16.92,2.01.92.65,0,1.18-.17,1.61-.52.42-.35.74-.84.96-1.48.21-.64.32-1.47.32-2.51,0-.88-.07-1.57-.2-2.09-.13-.52-.32-.95-.55-1.31Zm-.88,6.3c-.34.48-.76.72-1.26.72s-.92-.24-1.26-.72-.51-1.45-.51-2.9.19-2.44.56-2.98c.3-.42.7-.63,1.19-.63s.93.24,1.27.72c.34.48.51,1.44.51,2.9s-.17,2.41-.51,2.89Z"/>
      <path class="cls-1" d="m23.9,93.42h-.99v1.19h-5.73v.89l5.73,4.03h.99v-3.83h2.12v-1.09h-2.12v-1.19Zm-.99,5.05l-3.98-2.77h3.98v2.77Z"/>
      <path class="cls-1" d="m24.12,86.87c-.67-.25-1.57-.37-2.7-.37s-1.91.12-2.49.37c-.57.25-1.01.61-1.32,1.08s-.46,1-.46,1.58c0,.8.27,1.46.82,1.99.55.53,1.27.79,2.16.79s1.57-.25,2.1-.76c.53-.51.8-1.12.8-1.86,0-.44-.11-.84-.32-1.22-.21-.38-.5-.67-.84-.89.1,0,.17,0,.22,0,.45,0,.89.05,1.33.16.43.11.78.24,1.03.4.26.16.46.37.61.62.15.25.23.54.23.88,0,.39-.11.71-.33.96s-.58.42-1.07.51l.1,1.04c.7-.09,1.23-.35,1.62-.79s.58-1,.58-1.69c0-.65-.18-1.22-.52-1.7-.35-.48-.86-.85-1.53-1.09Zm-2.05,2.56c0,.5-.18.92-.53,1.26-.35.34-.81.51-1.37.51-.63,0-1.14-.18-1.53-.54s-.59-.78-.59-1.26.18-.86.55-1.2c.37-.33.86-.5,1.48-.5s1.11.16,1.46.49.53.74.53,1.24Z"/>
      <path class="cls-1" d="m24.17,80c-.64-.21-1.47-.32-2.51-.32-.88,0-1.57.07-2.09.2-.52.13-.95.32-1.31.55-.36.23-.63.53-.83.89s-.29.77-.29,1.25c0,.64.17,1.18.52,1.6.35.42.84.74,1.47.96.64.22,1.48.32,2.52.32,1.66,0,2.86-.29,3.59-.87.61-.49.92-1.16.92-2.01,0-.65-.17-1.18-.52-1.61-.35-.42-.84-.74-1.48-.96Zm.39,3.82c-.48.34-1.45.51-2.9.51s-2.44-.19-2.98-.56c-.42-.3-.63-.69-.63-1.19s.24-.93.72-1.27,1.44-.51,2.9-.51,2.41.17,2.89.51c.48.34.72.76.72,1.26s-.24.92-.72,1.26Z"/>
      <path class="cls-1" d="m19.14,78.26c.64.21,1.48.32,2.52.32,1.66,0,2.86-.29,3.59-.87.61-.49.92-1.15.92-2.01,0-.65-.17-1.18-.52-1.61-.35-.42-.84-.74-1.48-.96s-1.47-.32-2.51-.32c-.88,0-1.57.07-2.09.2-.52.13-.95.32-1.31.55-.36.23-.63.53-.83.89-.19.36-.29.77-.29,1.25,0,.64.17,1.18.52,1.6.35.42.84.74,1.47.96Zm-.38-3.82c.48-.34,1.44-.51,2.9-.51s2.41.17,2.89.51c.48.34.72.76.72,1.26s-.24.92-.72,1.26c-.48.34-1.45.51-2.9.51s-2.44-.19-2.98-.56c-.42-.3-.63-.7-.63-1.19s.24-.93.72-1.27Z"/>
      <path class="cls-1" d="m146.6,41.36h-.99v1.19h-5.73v.89l5.73,4.03h.99v-3.83h2.12v-1.09h-2.12v-1.19Zm-.99,5.05l-3.98-2.77h3.98v2.77Z"/>
      <path class="cls-1" d="m139.85,36.87c.38.19.78.51,1.18.97.41.45.75.98,1.04,1.59h1.05c-.13-.34-.31-.72-.56-1.14-.25-.42-.5-.77-.75-1.03h6.91v-1.08h-8.87v.7Z"/>
      <path class="cls-1" d="m146.87,27.95c-.64-.21-1.47-.32-2.51-.32-.88,0-1.57.07-2.09.2s-.95.32-1.31.55c-.36.23-.64.53-.83.89-.19.36-.29.77-.29,1.25,0,.64.17,1.18.52,1.6.35.42.84.74,1.47.96.64.22,1.48.32,2.52.32,1.66,0,2.86-.29,3.59-.87.61-.49.92-1.16.92-2.01,0-.65-.17-1.18-.52-1.61-.35-.42-.84-.74-1.48-.96Zm.39,3.82c-.48.34-1.45.51-2.9.51s-2.44-.19-2.98-.56c-.42-.3-.63-.69-.63-1.19s.24-.93.72-1.27,1.44-.51,2.9-.51,2.41.17,2.89.51c.48.34.72.76.72,1.26s-.24.92-.72,1.26Z"/>
      <path class="cls-1" d="m141.84,26.2c.64.21,1.48.32,2.52.32,1.66,0,2.86-.29,3.59-.87.61-.49.92-1.15.92-2.01,0-.65-.17-1.18-.52-1.61-.35-.42-.84-.74-1.48-.96-.64-.21-1.47-.32-2.51-.32-.88,0-1.57.07-2.09.2-.52.13-.95.32-1.31.55-.36.23-.64.53-.83.89-.19.36-.29.77-.29,1.25,0,.64.17,1.18.52,1.6.35.42.84.74,1.47.96Zm-.38-3.82c.48-.34,1.44-.51,2.9-.51s2.41.17,2.89.51c.48.34.72.76.72,1.26s-.24.92-.72,1.26c-.48.34-1.45.51-2.9.51s-2.44-.19-2.98-.56c-.42-.3-.63-.7-.63-1.19s.24-.93.72-1.27Z"/>
      <path class="cls-1" d="m55.34,150.79h-.89l-4.03,5.73v.99h3.83v2.12h1.09v-2.12h1.19v-.99h-1.19v-5.73Zm-1.09,5.73h-2.77l2.77-3.98v3.98Z"/>
      <path class="cls-1" d="m62.2,150.79h-.89l-4.03,5.73v.99h3.83v2.12h1.09v-2.12h1.19v-.99h-1.19v-5.73Zm-1.09,5.73h-2.77l2.77-3.98v3.98Z"/>
      <path class="cls-1" d="m69.52,151.86c-.23-.36-.53-.63-.89-.83-.36-.19-.77-.29-1.25-.29-.64,0-1.18.17-1.6.52-.42.35-.74.84-.96,1.47-.21.64-.32,1.48-.32,2.52,0,1.66.29,2.86.87,3.59.49.61,1.16.92,2.01.92.65,0,1.18-.17,1.61-.52.42-.35.74-.84.96-1.48.21-.64.32-1.47.32-2.51,0-.88-.07-1.57-.2-2.09-.13-.52-.32-.95-.55-1.31Zm-.88,6.3c-.34.48-.76.72-1.26.72s-.92-.24-1.26-.72-.51-1.45-.51-2.9.19-2.44.56-2.98c.3-.42.7-.63,1.19-.63s.93.24,1.27.72c.34.48.51,1.45.51,2.9s-.17,2.41-.51,2.89Z"/>
      <path class="cls-1" d="m76.93,153.18c-.13-.52-.32-.95-.55-1.31-.23-.36-.53-.63-.89-.83-.36-.19-.77-.29-1.25-.29-.64,0-1.18.17-1.6.52-.42.35-.74.84-.96,1.47-.22.64-.32,1.48-.32,2.52,0,1.66.29,2.86.87,3.59.49.61,1.16.92,2.01.92.65,0,1.18-.17,1.61-.52.42-.35.74-.84.96-1.48.21-.64.32-1.47.32-2.51,0-.88-.07-1.57-.2-2.09Zm-1.43,4.98c-.34.48-.76.72-1.26.72s-.92-.24-1.26-.72c-.34-.48-.51-1.45-.51-2.9s.19-2.44.56-2.98c.3-.42.69-.63,1.19-.63s.93.24,1.27.72c.34.48.51,1.45.51,2.9s-.17,2.41-.51,2.89Z"/>
      <path class="cls-1" d="m79.67,192.84c.44.5,1.07.79,1.9.86l.11-1.12c-.55,0-.99-.16-1.3-.48-.31-.31-.47-.73-.47-1.25,0-.49.15-.89.44-1.2s.66-.46,1.09-.46.84.17,1.3.51c.46.34,1.08.99,1.87,1.95.51.62.95,1.09,1.34,1.42s.78.57,1.18.71c.24.09.49.13.75.13v-5.84h-1.04v4.33c-.2-.12-.39-.27-.59-.46s-.57-.6-1.11-1.25c-.66-.78-1.18-1.34-1.55-1.67-.38-.34-.74-.58-1.08-.72-.34-.14-.69-.22-1.04-.22-.7,0-1.28.25-1.75.74s-.71,1.17-.71,2.01.22,1.51.65,2.01Z"/>
      <path class="cls-1" d="m82.4,182.78c-.99-.55-1.79-1.11-2.39-1.67h-.84v5.72h1.04v-4.33c.63.55,1.4,1.07,2.31,1.56s1.86.86,2.85,1.12c.98.26,1.82.4,2.52.41v-1.12c-.88-.06-1.69-.2-2.43-.42-1.05-.3-2.07-.73-3.06-1.28Z"/>
      <path class="cls-1" d="m86.97,174.88c-.58-.47-1.27-.7-2.07-.7-.84,0-1.53.27-2.06.8-.53.53-.8,1.18-.8,1.95,0,.58.18,1.14.55,1.67l-2.38-.48v-3.53h-1.04v4.39l4.54.86.13-1.02c-.25-.16-.46-.38-.62-.66-.16-.28-.24-.6-.24-.95,0-.56.18-1.02.54-1.37.36-.35.85-.52,1.46-.52.65,0,1.17.18,1.57.54s.59.8.59,1.33c0,.43-.14.8-.42,1.11s-.7.5-1.25.59l.1,1.14c.74-.07,1.34-.36,1.79-.87.45-.51.68-1.16.68-1.97,0-.98-.36-1.75-1.07-2.32Z"/>
      <path class="cls-1" d="m87.52,168.68c-.35-.42-.84-.74-1.48-.96s-1.47-.32-2.51-.32c-.88,0-1.57.07-2.09.2-.52.13-.95.32-1.31.55-.36.23-.63.53-.83.89-.19.36-.29.77-.29,1.25,0,.64.17,1.18.52,1.6.35.42.84.74,1.47.96.64.21,1.48.32,2.52.32,1.66,0,2.86-.29,3.59-.87.61-.49.92-1.15.92-2.01,0-.65-.17-1.18-.52-1.61Zm-1.09,2.86c-.48.34-1.45.51-2.9.51s-2.44-.19-2.98-.56c-.42-.3-.63-.7-.63-1.19s.24-.93.72-1.27c.48-.34,1.44-.51,2.9-.51s2.41.17,2.89.51c.48.34.72.76.72,1.26s-.24.92-.72,1.26Z"/>
      <path class="cls-1" d="m129.49,151.93c-.45.41-.98.75-1.59,1.04v1.05c.34-.12.72-.31,1.14-.56.42-.25.77-.5,1.03-.75v6.91h1.08v-8.87h-.7c-.19.38-.51.78-.96,1.18Z"/>
      <path class="cls-1" d="m137.11,153.89c-.41,0-.81.1-1.19.29s-.7.49-.96.89c0-.88.11-1.57.31-2.04.2-.48.47-.84.81-1.09.26-.19.56-.29.91-.29.43,0,.79.15,1.08.46.18.19.31.5.41.93l1.08-.08c-.09-.69-.35-1.23-.8-1.62-.44-.39-1.01-.58-1.71-.58-.93,0-1.67.34-2.22,1.01-.63.78-.95,2.02-.95,3.73,0,1.53.29,2.62.86,3.29s1.31,1,2.21,1c.53,0,1-.13,1.42-.38.42-.25.75-.62.99-1.09.24-.48.36-.99.36-1.55,0-.84-.25-1.53-.76-2.06s-1.12-.8-1.85-.8Zm1.01,4.44c-.33.37-.72.55-1.18.55-.31,0-.61-.09-.9-.27-.28-.18-.51-.44-.67-.78-.16-.34-.24-.7-.24-1.07,0-.57.17-1.03.51-1.38.34-.35.76-.53,1.25-.53s.9.18,1.23.53c.33.35.49.83.49,1.44s-.16,1.14-.49,1.51Z"/>
      <path class="cls-1" d="m145.82,151.86c-.23-.36-.53-.63-.89-.83-.36-.19-.77-.29-1.25-.29-.64,0-1.18.17-1.6.52-.42.35-.74.84-.96,1.47-.21.64-.32,1.48-.32,2.52,0,1.66.29,2.86.87,3.59.49.61,1.16.92,2.01.92.65,0,1.18-.17,1.61-.52.42-.35.74-.84.96-1.48.21-.64.32-1.47.32-2.51,0-.88-.07-1.57-.2-2.09-.13-.52-.32-.95-.55-1.31Zm-.88,6.3c-.34.48-.76.72-1.26.72s-.92-.24-1.26-.72c-.34-.48-.51-1.45-.51-2.9s.19-2.44.56-2.98c.3-.42.7-.63,1.19-.63s.93.24,1.27.72c.34.48.51,1.45.51,2.9s-.17,2.41-.51,2.89Z"/>
      <path class="cls-1" d="m153.23,153.18c-.13-.52-.32-.95-.55-1.31-.23-.36-.53-.63-.89-.83-.36-.19-.77-.29-1.25-.29-.64,0-1.18.17-1.6.52-.42.35-.74.84-.96,1.47-.22.64-.32,1.48-.32,2.52,0,1.66.29,2.86.87,3.59.49.61,1.16.92,2.01.92.65,0,1.18-.17,1.61-.52.42-.35.74-.84.96-1.48.21-.64.32-1.47.32-2.51,0-.88-.07-1.57-.2-2.09Zm-1.43,4.98c-.34.48-.76.72-1.26.72s-.92-.24-1.26-.72c-.34-.48-.51-1.45-.51-2.9s.19-2.44.56-2.98c.3-.42.69-.63,1.19-.63s.93.24,1.27.72c.34.48.51,1.45.51,2.9s-.17,2.41-.51,2.89Z"/>
      <path class="cls-1" d="m143.33,198.56l.19-1.09c-.53-.08-.93-.26-1.19-.54-.27-.28-.4-.63-.4-1.05s.13-.77.39-1.04c.26-.27.59-.4.99-.4.5,0,.87.18,1.12.55.24.37.36.79.36,1.25,0,.04,0,.1-.01.17l.95.12c-.08-.31-.12-.56-.12-.77,0-.5.16-.92.49-1.24s.73-.49,1.23-.49c.52,0,.96.18,1.31.53.35.35.53.78.53,1.29,0,.43-.14.79-.41,1.09s-.71.51-1.33.64l.14,1.09c.74-.07,1.33-.36,1.8-.88.46-.51.69-1.16.69-1.93,0-.86-.27-1.57-.8-2.13-.54-.56-1.19-.84-1.96-.84-.57,0-1.05.15-1.42.43-.38.29-.63.7-.75,1.22-.18-.4-.43-.71-.75-.91-.31-.2-.66-.31-1.04-.31-.4,0-.78.11-1.14.32-.36.21-.64.53-.85.93-.21.41-.31.85-.31,1.33,0,.7.2,1.28.6,1.75.4.47.96.77,1.69.9Z"/>
      <path class="cls-1" d="m143.03,191.49c.64.21,1.48.32,2.52.32,1.66,0,2.86-.29,3.59-.87.61-.49.92-1.15.92-2.01,0-.65-.17-1.18-.52-1.61-.35-.42-.84-.74-1.48-.96-.64-.21-1.47-.32-2.51-.32-.88,0-1.57.07-2.09.2-.52.13-.95.32-1.31.55-.36.23-.64.53-.83.89-.19.36-.29.77-.29,1.25,0,.64.17,1.18.52,1.6.35.42.84.74,1.47.96Zm-.38-3.82c.48-.34,1.44-.51,2.9-.51s2.41.17,2.89.51c.48.34.72.76.72,1.26s-.24.92-.72,1.26c-.48.34-1.45.51-2.9.51s-2.44-.19-2.98-.56c-.42-.3-.63-.7-.63-1.19s.24-.93.72-1.27Z"/>
      <path class="cls-1" d="m143.03,184.62c.64.22,1.48.32,2.52.32,1.66,0,2.86-.29,3.59-.87.61-.49.92-1.16.92-2.01,0-.65-.17-1.18-.52-1.61-.35-.42-.84-.74-1.48-.96-.64-.21-1.47-.32-2.51-.32-.88,0-1.57.07-2.09.2s-.95.32-1.31.55c-.36.23-.64.53-.83.89-.19.36-.29.77-.29,1.25,0,.64.17,1.18.52,1.6.35.42.84.74,1.47.96Zm-.38-3.82c.48-.34,1.44-.51,2.9-.51s2.41.17,2.89.51c.48.34.72.76.72,1.26s-.24.92-.72,1.26c-.48.34-1.45.51-2.9.51s-2.44-.19-2.98-.56c-.42-.3-.63-.69-.63-1.19s.24-.93.72-1.27Z"/>
      <path class="cls-1" d="m143.03,177.76c.64.21,1.48.32,2.52.32,1.66,0,2.86-.29,3.59-.87.61-.49.92-1.15.92-2.01,0-.65-.17-1.18-.52-1.61-.35-.42-.84-.74-1.48-.96-.64-.21-1.47-.32-2.51-.32-.88,0-1.57.07-2.09.2-.52.13-.95.32-1.31.55-.36.23-.64.53-.83.89-.19.36-.29.77-.29,1.25,0,.64.17,1.18.52,1.6.35.42.84.74,1.47.96Zm-.38-3.82c.48-.34,1.44-.51,2.9-.51s2.41.17,2.89.51c.48.34.72.76.72,1.26s-.24.92-.72,1.26c-.48.34-1.45.51-2.9.51s-2.44-.19-2.98-.56c-.42-.3-.63-.7-.63-1.19s.24-.93.72-1.27Z"/>
      <path class="cls-1" d="m105.67,85.13c1.33,0,2.36-.47,3.09-1.42.55-.71.83-1.54.83-2.48,0-1.1-.37-2.02-1.11-2.75-.74-.73-1.7-1.08-2.88-1.03-1.09-.04-2.02.3-2.77,1.04-.75.74-1.12,1.65-1.12,2.76,0,.98.29,1.83.86,2.54.73.91,1.76,1.36,3.1,1.36Zm-1.55-6.31c.35-.69.87-1.04,1.55-1.04.37,0,.69.1.98.3.28.2.52.54.7,1.03.18.49.27,1.22.27,2.2,0,.82-.09,1.49-.27,2.01-.18.51-.43.89-.75,1.12-.25.18-.56.27-.94.27-.56,0-.99-.21-1.3-.64-.45-.61-.67-1.54-.67-2.81,0-1.07.14-1.88.43-2.45Z"/>
      <path class="cls-1" d="m111.88,83.12c.38.26.62.45.73.58.11.13.16.28.16.45,0,.15-.06.28-.17.39-.11.11-.25.16-.43.16-.25,0-.53-.12-.81-.36-.29-.24-.51-.6-.68-1.08h-.19l.09,1.84h.18c.08-.18.18-.27.3-.27.04,0,.12.02.22.06.41.15.74.23.98.23.31,0,.6-.07.86-.22s.46-.36.6-.63.21-.55.21-.84c0-.31-.08-.6-.25-.85-.17-.25-.52-.56-1.06-.93s-.86-.62-.98-.77c-.07-.09-.11-.19-.11-.28,0-.13.05-.25.16-.35s.23-.15.38-.15c.24,0,.48.09.71.28s.47.54.69,1.06h.19l-.08-1.75h-.19c-.09.13-.15.21-.19.23-.04.03-.09.04-.16.04s-.14-.03-.24-.08c-.26-.13-.53-.2-.8-.2-.51,0-.91.16-1.18.48-.27.32-.41.68-.41,1.07,0,.36.12.69.36.99.16.2.53.5,1.08.89Z"/>
      <path class="cls-1" d="m117.33,84.77c-.22-.03-.36-.11-.43-.23-.05-.09-.08-.32-.08-.68v-2.74c.16-.25.31-.43.45-.53.14-.1.28-.15.43-.15.1,0,.19.03.27.09.08.06.13.14.17.25.03.11.05.37.05.8v2.28c0,.37-.03.6-.1.7-.09.12-.23.19-.41.22v.2h2.59v-.2c-.22-.03-.37-.09-.44-.18-.07-.1-.11-.34-.11-.73v-2c0-.58-.04-1-.11-1.25-.08-.25-.23-.46-.45-.64-.23-.18-.5-.27-.82-.27-.25,0-.49.06-.73.18-.23.12-.49.33-.77.63v-2.96h-2.09v.2c.23.03.37.09.45.19s.11.34.11.72v5.2c0,.39-.03.63-.09.71-.09.12-.24.19-.46.21v.2h2.59v-.2Z"/>
      <path class="cls-1" d="m122.85,84.77c-.16,0-.27-.01-.33-.04-.06-.03-.11-.07-.14-.13s-.05-.13-.05-.21c0-.05.01-.12.04-.19.02-.05.12-.2.29-.45l.38-.55.44.83c.12.22.18.38.18.48,0,.07-.03.12-.08.16-.05.04-.19.07-.41.09v.2h2.85v-.2c-.17,0-.31-.05-.41-.14-.18-.16-.42-.53-.73-1.12l-.89-1.69.54-.82c.24-.37.46-.62.65-.75.19-.13.4-.2.62-.2v-.2h-1.81v.2c.16.02.28.05.34.11.06.05.1.12.1.19,0,.16-.15.44-.44.84l-.21.3-.4-.74c-.09-.17-.14-.27-.15-.3-.02-.06-.03-.12-.03-.17,0-.06.01-.1.04-.13l.28-.1h.15v-.21h-2.83v.2c.18.01.33.08.48.2.14.12.36.45.65.98l.88,1.63-.42.62c-.39.58-.69.94-.9,1.08-.21.14-.43.2-.68.2v.2h2v-.2Z"/>
      <path class="cls-1" d="m129,85.12c.78,0,1.4-.3,1.84-.89.37-.49.55-1.1.55-1.82,0-.5-.1-.97-.3-1.39-.2-.42-.49-.75-.87-.98s-.8-.34-1.24-.34c-.74,0-1.32.27-1.75.82s-.64,1.18-.64,1.92.21,1.34.62,1.88c.42.54,1.01.81,1.78.81Zm-.74-3.99c.04-.41.13-.69.26-.83s.29-.21.48-.21c.15,0,.28.04.37.12.13.11.24.27.31.51s.1.66.1,1.28c0,1.05-.04,1.75-.11,2.1-.05.22-.14.4-.28.52-.11.09-.25.14-.41.14s-.32-.07-.45-.2c-.13-.13-.22-.33-.26-.59-.05-.34-.08-.7-.08-1.09,0-.74.02-1.31.06-1.73Z"/>
      <path class="cls-1" d="m134.77,84.77c-.19-.03-.33-.09-.4-.19-.07-.1-.11-.35-.11-.73v-2.74c.27-.45.56-.67.88-.67.1,0,.18.03.26.09.08.06.13.15.17.25.03.11.05.37.05.79v2.28c0,.36-.03.59-.09.68-.08.13-.22.22-.42.24v.2h2.59v-.2c-.23-.03-.37-.09-.45-.18-.07-.1-.11-.34-.11-.74v-1.99c0-.59-.03-.99-.09-1.2-.07-.27-.22-.5-.44-.69-.22-.18-.49-.28-.83-.28-.28,0-.54.06-.78.19-.24.13-.49.34-.76.62v-.66h-2.09v.2c.23.03.38.09.45.19.07.1.11.34.11.72v2.89c0,.39-.03.63-.09.71-.09.12-.24.19-.46.21v.2h2.59v-.2Z"/>
      <path class="cls-1" d="m139.04,82.97c-.34.31-.5.66-.5,1.05,0,.29.1.53.29.72.19.19.44.29.73.29.5,0,1.06-.28,1.68-.83.04.28.14.48.3.62.16.14.39.2.68.2.25,0,.47-.06.66-.18.2-.12.38-.32.57-.59l-.16-.13c-.1.14-.2.2-.29.2-.05,0-.09-.01-.13-.04s-.06-.07-.08-.13c-.02-.06-.03-.21-.03-.44v-1.99c0-.55-.03-.9-.08-1.06-.08-.24-.27-.46-.55-.67-.28-.21-.67-.31-1.15-.31-.4,0-.79.06-1.16.19-.37.13-.66.31-.87.55-.21.24-.31.49-.31.75,0,.19.08.35.23.49s.35.21.58.21c.22,0,.39-.06.52-.19.13-.13.2-.28.2-.46,0-.15-.07-.3-.21-.45-.1-.11-.15-.21-.15-.28,0-.09.05-.16.14-.23.15-.11.35-.16.59-.16.15,0,.28.04.39.11.12.08.2.16.24.26s.06.34.06.73v.51c-1.13.52-1.86.93-2.19,1.25Zm2.19.83c-.24.2-.45.31-.64.31-.16,0-.29-.05-.38-.15-.12-.13-.18-.28-.18-.44,0-.2.07-.4.21-.6.22-.3.54-.57.99-.83v1.71Z"/>
      <path class="cls-1" d="m34.19,79.06c.39-.68.68-1.1.86-1.25.13-.11.32-.18.56-.21v-.2h-2.27v.2c.33.02.56.07.68.16.09.07.14.15.14.25,0,.18-.17.54-.5,1.09l-1.34,2.24-1.34-2.46c-.29-.53-.44-.86-.44-.99,0-.07.04-.13.13-.2s.24-.09.45-.09h.16v-.2h-3.56v.2c.24,0,.43.06.57.17.14.11.39.48.73,1.11l1.75,3.18v1.49c0,.37-.02.6-.06.69-.05.12-.13.21-.22.26-.13.08-.3.11-.52.11h-.39v.2h4.16v-.2h-.42c-.2,0-.36-.04-.47-.11s-.2-.15-.24-.25-.06-.33-.06-.71v-1.8l1.61-2.69Z"/>
      <path class="cls-1" d="m39.16,84.08c.37-.49.55-1.1.55-1.82,0-.5-.1-.97-.3-1.39-.2-.42-.49-.75-.87-.98s-.8-.34-1.24-.34c-.74,0-1.32.27-1.75.82-.43.55-.64,1.18-.64,1.92s.21,1.34.62,1.88c.42.54,1.01.81,1.78.81s1.4-.3,1.84-.89Zm-2.31.31c-.13-.13-.22-.33-.26-.59-.05-.34-.08-.7-.08-1.09,0-.74.02-1.31.06-1.73.04-.41.13-.69.26-.83s.29-.21.48-.21c.15,0,.28.04.37.12.13.11.24.27.31.51s.1.66.1,1.28c0,1.05-.04,1.75-.11,2.1-.05.22-.14.4-.28.52-.11.09-.25.14-.41.14s-.32-.07-.45-.2Z"/>
      <path class="cls-1" d="m40.99,83c0,.55.02.88.05,1.01.06.22.21.42.43.61s.5.27.82.27c.66,0,1.14-.35,1.44-1.05l-.16-.12c-.21.36-.44.54-.67.54-.06,0-.12-.03-.19-.08-.07-.05-.12-.12-.15-.21-.03-.09-.04-.28-.04-.57v-3.16h1.22v-.54h-1.22v-1.87h-.18c-.24.44-.52.84-.85,1.2s-.71.7-1.17,1.02v.19h.67v2.76Z"/>
      <path class="cls-1" d="m46.65,84.97c.78,0,1.4-.3,1.84-.89.37-.49.55-1.1.55-1.82,0-.5-.1-.97-.3-1.39-.2-.42-.49-.75-.87-.98-.38-.23-.8-.34-1.24-.34-.74,0-1.32.27-1.75.82-.43.55-.64,1.18-.64,1.92s.21,1.34.62,1.88c.42.54,1.01.81,1.78.81Zm-.74-3.99c.04-.41.13-.69.26-.83s.29-.21.48-.21c.15,0,.28.04.37.12.13.11.24.27.31.51s.1.66.1,1.28c0,1.05-.04,1.75-.11,2.1-.05.22-.14.4-.28.52-.11.09-.25.14-.41.14s-.32-.07-.45-.2c-.13-.13-.22-.33-.26-.59-.05-.34-.08-.7-.08-1.09,0-.74.02-1.31.06-1.73Z"/>
      <path class="cls-1" d="m51.84,84.97c.28,0,.54-.07.8-.2.19-.1.4-.26.62-.49v1.94c0,.26-.02.43-.06.51-.04.08-.11.15-.21.2-.1.05-.27.08-.49.08v.2h2.96v-.2c-.29,0-.48-.07-.57-.21-.06-.08-.09-.29-.09-.63v-6.63h-.19l-.86.6c-.16-.2-.36-.35-.59-.45-.23-.1-.49-.15-.78-.15-.44,0-.85.12-1.25.37-.39.25-.7.6-.92,1.07-.22.47-.34.96-.34,1.49,0,.64.15,1.18.44,1.64.37.57.88.86,1.52.86Zm0-4.69c.15-.24.37-.37.65-.37.13,0,.25.03.33.1.17.14.29.3.35.49s.1.58.1,1.17v2.11c-.15.2-.31.34-.48.43-.17.09-.31.14-.45.14-.23,0-.41-.11-.55-.32-.21-.32-.31-.87-.31-1.65,0-1.02.12-1.72.36-2.1Z"/>
      <path class="cls-1" d="m57.94,84.62c-.16,0-.27-.01-.33-.04-.06-.03-.11-.07-.14-.13s-.05-.13-.05-.21c0-.05.01-.12.04-.19.02-.05.12-.2.29-.45l.38-.55.44.83c.12.22.18.38.18.48,0,.07-.03.12-.08.16-.05.04-.19.07-.41.09v.2h2.85v-.2c-.17,0-.31-.05-.41-.14-.18-.16-.42-.53-.73-1.12l-.89-1.69.54-.82c.24-.37.46-.62.65-.75.19-.13.4-.2.62-.2v-.2h-1.81v.2c.16.02.28.05.34.11.06.05.1.12.1.19,0,.16-.15.44-.44.84l-.21.3-.4-.74c-.09-.17-.14-.27-.15-.3-.02-.06-.03-.12-.03-.17,0-.06.01-.1.04-.13l.28-.1h.15v-.21h-2.83v.2c.18.01.33.08.48.2.14.12.36.45.65.98l.88,1.63-.42.62c-.39.58-.69.94-.9,1.08-.21.14-.43.2-.68.2v.2h2v-.2Z"/>
      <path class="cls-1" d="m65.94,84.08c.37-.49.55-1.1.55-1.82,0-.5-.1-.97-.3-1.39-.2-.42-.49-.75-.87-.98-.38-.23-.8-.34-1.24-.34-.74,0-1.32.27-1.75.82-.43.55-.64,1.18-.64,1.92s.21,1.34.62,1.88c.42.54,1.01.81,1.78.81s1.4-.3,1.84-.89Zm-1.17-.15c-.05.22-.14.4-.28.52-.11.09-.25.14-.41.14s-.32-.07-.45-.2c-.13-.13-.22-.33-.26-.59-.05-.34-.08-.7-.08-1.09,0-.74.02-1.31.06-1.73.04-.41.13-.69.26-.83s.29-.21.48-.21c.15,0,.28.04.37.12.13.11.24.27.31.51s.1.66.1,1.28c0,1.05-.04,1.75-.11,2.1Z"/>
      <path class="cls-1" d="m69.86,84.62c-.19-.03-.33-.09-.4-.19-.07-.1-.11-.35-.11-.73v-2.74c.27-.45.56-.67.88-.67.1,0,.18.03.26.09.08.06.13.15.17.25.03.11.05.37.05.79v2.28c0,.36-.03.59-.09.68-.08.13-.22.22-.42.24v.2h2.59v-.2c-.23-.03-.37-.09-.45-.18-.07-.1-.11-.34-.11-.74v-1.99c0-.59-.03-.99-.09-1.2-.07-.27-.22-.5-.44-.69-.22-.18-.49-.28-.83-.28-.28,0-.54.06-.78.19-.24.13-.49.34-.76.62v-.66h-2.09v.2c.23.03.38.09.45.19.07.1.11.34.11.72v2.89c0,.39-.03.63-.09.71-.09.12-.24.19-.46.21v.2h2.59v-.2Z"/>
      <path class="cls-1" d="m74.13,82.83c-.34.31-.5.66-.5,1.05,0,.29.1.53.29.72.19.19.44.29.73.29.5,0,1.06-.28,1.68-.83.04.28.14.48.3.62.16.14.39.2.68.2.25,0,.47-.06.66-.18.2-.12.38-.32.57-.59l-.16-.13c-.1.14-.2.2-.29.2-.05,0-.09-.01-.13-.04s-.06-.07-.08-.13c-.02-.06-.03-.21-.03-.44v-1.99c0-.55-.03-.9-.08-1.06-.08-.24-.27-.46-.55-.67-.28-.21-.67-.31-1.15-.31-.4,0-.79.06-1.16.19-.37.13-.66.31-.87.55-.21.24-.31.49-.31.75,0,.19.08.35.23.49s.35.21.58.21c.22,0,.39-.06.52-.19.13-.13.2-.28.2-.46,0-.15-.07-.3-.21-.45-.1-.11-.15-.21-.15-.28,0-.09.05-.16.14-.23.15-.11.35-.16.59-.16.15,0,.28.04.39.11.12.08.2.16.24.26s.06.34.06.73v.51c-1.13.52-1.86.93-2.19,1.25Zm2.19.83c-.24.2-.45.31-.64.31-.16,0-.29-.05-.38-.15-.12-.13-.18-.28-.18-.44,0-.2.07-.4.21-.6.22-.3.54-.57.99-.83v1.71Z"/>
    </g>
  </g>
</svg>