<svg width="80" height="80" viewBox="0 0 80 80" fill="none" xmlns="http://www.w3.org/2000/svg">
<path d="M4 28.8467C4.4473 28.5064 4.8946 28.1174 5.38888 27.85C19.4901 20.3633 33.6147 12.8766 47.6923 5.36568C48.5869 4.87941 49.3166 4.87941 50.2112 5.36568C58.0975 9.66813 66.0073 13.9461 73.9172 18.2001C74.6939 18.6132 75 19.148 75 20.0716C74.9764 29.9161 74.9764 39.785 75 49.6297C75 50.5046 74.7175 51.0394 73.9642 51.4284C59.6512 59.0122 45.3382 66.5962 31.0252 74.2044C30.3661 74.5691 29.7775 74.5934 29.0713 74.2287C21.0673 69.8778 13.0634 65.551 5.05941 61.1999C4.65909 60.9812 4.35319 60.6409 4 60.3491M72.6224 21.6274C72.2928 21.7975 72.0574 21.8948 71.8455 21.9919C58.5212 29.0655 45.1734 36.1389 31.8491 43.1881C31.3548 43.4555 31.2135 43.7472 31.2135 44.3062C31.2371 53.0084 31.2371 61.7347 31.2371 70.4369V71.2875C31.5432 71.1417 31.7078 71.0688 31.8962 70.9716C45.2912 63.8738 58.686 56.7517 72.0808 49.6781C72.5281 49.4351 72.6458 49.1677 72.6458 48.6816C72.6224 39.9309 72.6458 31.1559 72.6458 22.4051V21.6274H72.6224ZM6.40116 31.399C6.37759 31.5934 6.37759 31.6907 6.37759 31.788C6.37759 40.7331 6.37759 49.6783 6.35418 58.6234C6.35418 59.0609 6.5424 59.2311 6.87203 59.4255C14.005 63.266 21.1379 67.131 28.2474 70.996C28.4121 71.0931 28.6004 71.1661 28.8124 71.239C28.8124 71.0446 28.836 70.9715 28.836 70.8744C28.836 61.9534 28.8358 53.0327 28.8594 44.1117C28.8594 43.6499 28.6711 43.4555 28.318 43.2611C23.4449 40.6358 18.5955 38.0106 13.746 35.3854C11.2977 34.0485 8.89658 32.7602 6.40116 31.399ZM71.1864 19.5855C70.9744 19.4397 70.8803 19.3911 70.7627 19.3181C63.6296 15.4533 56.4966 11.6126 49.3873 7.74766C48.9635 7.52892 48.7046 7.67484 48.375 7.84494C35.0979 14.8942 21.7971 21.9434 8.51983 28.9925C8.30804 29.0898 8.0961 29.2356 7.83717 29.3815C8.11966 29.5516 8.3316 29.6487 8.51983 29.7703C15.441 33.5137 22.3621 37.2571 29.2831 41.0248C29.8247 41.3165 30.2484 41.3165 30.8134 41.0248C42.066 35.045 53.3186 29.0653 64.5949 23.0858C66.7371 21.9433 68.9029 20.7766 71.1864 19.5855Z" fill="black"/>
<path d="M64.4225 20.4788C64.4466 21.1185 64.0133 21.4385 63.508 21.7092C61.2457 22.8903 58.9833 24.0961 56.721 25.2773C54.4346 26.4831 52.1483 27.6643 49.8619 28.8947C49.164 29.2639 48.5623 29.2639 47.8644 28.8947C43.1713 26.3601 38.4782 23.85 33.7611 21.3646C33.2076 21.0693 32.7262 20.7495 32.7021 20.0358C32.7021 19.3468 33.1834 19.0023 33.7371 18.7069C38.406 16.2707 43.0991 13.8099 47.768 11.3244C48.5142 10.9308 49.164 10.9554 49.886 11.3737C54.3866 13.9575 58.8871 16.5414 63.3876 19.1252C63.9411 19.3959 64.4706 19.7159 64.4225 20.4788ZM47.5756 14.2774C43.9174 16.1969 40.3073 18.0918 36.6251 20.0358C40.3073 22.0045 43.8933 23.9239 47.5756 25.8926V14.2774ZM60.644 20.4049C57.082 18.3625 53.6405 16.3937 50.1268 14.3759V25.9172C53.6405 24.0715 57.058 22.2752 60.644 20.4049Z" fill="black"/>
<path d="M29.9331 21.6182C30.2862 21.7402 30.614 21.8378 30.9165 22.0087C35.7326 24.5962 40.5235 27.2081 45.3394 29.82C45.8438 30.0885 46.2976 30.4302 46.2976 31.0649C46.2976 31.7484 45.8438 32.0901 45.2889 32.3587C40.4982 34.7264 35.7074 37.1187 30.9165 39.5108C30.2609 39.8282 29.681 39.8282 29.0254 39.4863C24.0581 36.9477 19.0656 34.4335 14.0479 31.9192C13.5184 31.6508 13.0644 31.3091 13.0644 30.6743C13.0392 29.9909 13.5184 29.6492 14.0731 29.3806C19.0656 26.9152 24.0329 24.4252 29.0254 21.9354C29.328 21.789 29.6305 21.7158 29.9331 21.6182ZM28.622 24.9379C24.7894 26.842 21.0323 28.7215 17.1493 30.6498C21.0323 32.6271 24.8146 34.5311 28.622 36.4596V24.9379ZM42.3136 31.016C38.5818 28.9899 34.9761 27.0373 31.2948 25.0355V36.4839C35.0013 34.6776 38.5818 32.8712 42.3136 31.016Z" fill="black"/>
</svg>
