<svg width="60" height="60" viewBox="0 0 60 60" fill="none" xmlns="http://www.w3.org/2000/svg">
<path fill-rule="evenodd" clip-rule="evenodd" d="M5.73909 6.73758L53.9932 6.74589L53.994 53.1718L5.74136 53.1574L5.73909 6.73758ZM4 54.9796L4.52883 55L55.1989 54.9962L55.7157 54.9864L55.7285 5.02342L55.1997 5L4.52883 5.00453L4.00151 5.01662L4 54.9804V54.9796Z" fill="#1b3836"/>
<path fill-rule="evenodd" clip-rule="evenodd" d="M42.1111 42.1389L51.2273 42.1434L51.25 50.5088L42.1239 50.5193L42.1111 42.1389ZM32.0641 42.1533L41.1675 42.1419L41.1969 50.5246L32.0694 50.5186L32.0641 42.1533ZM42.1163 9.47844L51.2507 9.49355L51.25 41.3177L42.1095 41.317L42.1163 9.4792V9.47844ZM32.0633 9.47995L41.1977 9.47844L41.1939 41.3162L32.0641 41.3011L32.0633 9.4792V9.47995ZM30.3356 52.2539L53.0775 52.2267L53.0699 7.65625L30.3242 7.67212L30.3363 52.2539H30.3356Z" fill="#1b3836"/>
<path fill-rule="evenodd" clip-rule="evenodd" d="M18.4329 42.1389L27.5491 42.1434L27.5725 50.5088L18.4465 50.5193L18.4336 42.1389H18.4329ZM8.38589 42.1533L17.4893 42.1419L17.5188 50.5246L8.39118 50.5186L8.38589 42.1533ZM18.4382 9.47844L27.5725 9.49355L27.5718 41.3177L18.4314 41.317L18.4382 9.4792V9.47844ZM8.38438 9.47995L17.5188 9.47844L17.515 41.3162L8.38513 41.3011L8.38438 9.4792V9.47995ZM6.65662 52.2539L29.3985 52.2267L29.3902 7.65625L6.64453 7.67212L6.65662 52.2539Z" fill="#1b3836"/>
</svg>
