<svg width="81" height="80" viewBox="0 0 81 80" fill="none" xmlns="http://www.w3.org/2000/svg">
<g clip-path="url(#clip0_2062_4684)">
<path fill-rule="evenodd" clip-rule="evenodd" d="M47.2465 20.1344H15.6811V10.1322C15.6811 7.0196 6.52734 10.1322 6.52734 16.5853V60.5986C6.52734 63.8631 8.39971 66.3115 11.1231 67.64C12.7118 68.4182 14.1303 68.2853 16.362 68.2853C26.1021 68.2853 35.861 68.2853 45.6011 68.2853C44.542 69.8796 39.4545 73.8843 39.4545 75.0041C39.4545 75.5924 40.0029 75.972 40.2677 75.972H75.5211C76.202 75.972 76.4857 75.4026 76.4857 75.1559V39.911C76.4857 39.3226 76.0696 38.8102 75.5211 38.8102C74.462 38.8102 72.9868 41.2396 71.7007 42.0936V22.8864C71.7007 21.425 71.9277 20.3242 70.6038 20.1534C68.7693 19.9256 65.0056 20.1344 62.963 20.1344C64.1735 18.3313 68.826 15.01 69.2232 13.112C69.6582 11.0053 68.2586 9.88547 67.1617 8.78466C65.6108 7.22834 64.8922 6.01367 62.6794 6.01367C61.0529 6.01367 59.3507 8.19633 58.4051 9.12632L49.1756 18.3883C48.8541 18.73 47.7004 20.1344 47.2465 20.1344ZM60.2018 10.4169C60.5611 9.8855 62.2822 8.04449 62.963 8.04449C63.7006 8.04449 64.8354 9.44896 65.3271 9.92344C65.8 10.3979 67.1995 11.5557 67.1995 12.2959C67.1995 12.9791 65.3839 14.7063 64.8732 15.0479L60.2018 10.4169ZM56.9299 13.7193L58.632 11.9353L63.417 16.6801L61.6392 18.3883L56.9299 13.7193ZM38.7736 41.2396C38.1684 40.3286 34.4615 37.2159 34.2724 36.4378C34.8208 35.6216 38.5088 32.49 38.5088 31.9207C38.5088 30.9907 38.2062 30.687 37.2795 30.687C36.6932 30.687 34.5939 33.0404 34.1022 33.5339C33.0809 34.5588 31.9083 35.3939 31.4165 36.8743L29.0525 43.5551C28.939 43.8967 28.7877 44.3522 28.6742 44.6938C28.5229 45.1304 28.3338 45.51 28.2392 45.9085C27.3692 45.9085 26.4992 45.9085 25.6482 45.9085C25.0997 45.9085 24.3243 45.7946 24.0217 46.3261C23.7569 46.7816 23.7191 47.9583 24.8349 47.9583H53.5256C54.3388 47.9583 54.7927 46.364 53.7336 45.9655C53.2419 45.7757 34.0076 45.9085 33.3078 45.9085C33.7239 45.5479 34.8776 45.3012 35.5774 45.0355C39.8327 43.3843 38.5088 44.5989 41.6105 41.4863L57.5918 25.4487C58.1403 24.8982 58.6131 24.4238 59.1616 23.8734C59.4831 23.5507 60.4666 22.336 60.9016 22.336H69.5069V44.1434C69.5069 44.6369 62.4902 51.3936 62.0174 51.8491L56.2868 57.5999C55.814 58.0744 54.6036 58.9854 54.6036 59.7635C54.6036 60.4848 55.2088 60.8643 55.7762 60.7694C56.5327 60.6556 59.0292 57.8656 59.6344 57.2582C60.8448 56.0436 73.7812 42.9098 74.4242 42.4732V51.3936H72.3816C71.5116 51.3936 70.5471 53.5952 73.1949 53.5952H74.4242V56.6129H72.514C71.1523 56.6129 71.1523 58.6627 72.514 58.6627H74.4242V61.6805H72.9301C70.8686 61.6805 71.2279 63.8821 72.6653 63.8821H74.4431V66.8998C73.4218 66.8998 71.1712 66.5961 71.5116 68.1904C71.7575 69.2912 73.2705 69.0825 74.4431 69.0825V73.8843H43.1614C43.5585 73.2769 51.2182 65.7231 52.561 64.3945C52.9771 63.977 53.6958 63.5025 53.6958 62.7813C53.6958 62.1929 53.2797 61.6805 52.7312 61.6805C51.5019 61.6805 48.3624 66.1976 47.5302 66.1976H15.0003C12.012 66.1976 9.95055 64.9449 9.00492 62.4776C8.02145 59.9154 9.2697 57.1444 11.3312 55.7968C11.9742 55.3793 12.7686 55.0566 13.7142 54.8858C16.1729 54.4683 15.6811 55.607 15.6811 46.4399C15.6811 45.8706 15.2272 45.2063 14.7166 45.2063C13.2036 45.2063 13.4872 46.8575 13.4872 48.3569C13.4872 49.8183 13.4872 51.2797 13.4872 52.7411C11.7662 53.1397 10.8962 53.4054 9.5723 54.4493C9.15622 54.7909 8.96709 55.0756 8.56992 55.3603V18.6161C8.56992 16.4524 8.75905 14.8581 9.7236 13.5865C10.4801 12.5806 11.9553 11.3279 13.4872 11.1951V39.8541C13.4872 42.5492 13.2981 43.1375 14.849 43.1375C15.284 43.1375 15.6622 42.5492 15.6622 42.0367V22.2981H45.185C44.2961 23.6266 39.4545 27.4984 39.4545 28.5992C39.4545 29.3774 39.9462 29.7001 40.6838 29.7001C41.0999 29.7001 43.9368 26.6444 44.4096 26.1699L51.6532 18.9008C52.5232 18.0277 54.4712 15.864 55.3034 15.2947C55.8897 15.4465 59.7101 19.4512 59.9559 19.8118C59.7857 20.4381 55.3412 24.6515 54.7927 25.2019C53.5067 26.5305 39.4545 40.7841 38.7736 41.2396ZM33.043 38.5065L36.9013 42.3214L33.9887 43.3083L32.1163 41.3535C32.2865 40.9739 32.4 40.4614 32.5891 39.9679C32.7783 39.4935 32.9863 39.0569 33.043 38.5065Z" fill="#201637"/>
<path fill-rule="evenodd" clip-rule="evenodd" d="M49.7093 55.7043H55.7116C56.0664 55.7043 56.2996 55.4711 56.2996 55.1162V49.185C56.2996 48.5665 55.813 48.5969 55.5696 48.5969C55.3161 48.5969 52.2339 51.8312 52.0007 52.0543L49.3646 54.6904C48.9185 55.1669 49.2227 55.7043 49.7093 55.7043ZM55.1134 50.5639L55.1336 54.6093H51.1085L55.1134 50.5639Z" fill="#201637"/>
</g>
<defs>
<clipPath id="clip0_2062_4684">
<rect width="72" height="72" fill="white" transform="translate(4.5 4)"/>
</clipPath>
</defs>
</svg>
