<?xml version="1.0" encoding="UTF-8"?>
<svg id="_Слой_2" data-name="Слой 2" xmlns="http://www.w3.org/2000/svg" viewBox="0 0 1603.03 333.42">
  <defs>
    <style>
      .cls-1 {
        fill: #fff;
      }
    </style>
  </defs>
  <g id="_Слой_1-2" data-name="Слой 1">
    <g>
      <polygon class="cls-1" points="0 37.44 60.08 37.44 60.08 152.59 97.21 152.59 97.21 37.44 157.29 37.44 157.29 6.57 0 6.57 0 37.44"/>
      <path class="cls-1" d="m345.65,6.57h-45.89l-31.5,37.13c-3.48,4.59-5.94,8.45-7.41,11.58-1.46,3.13-2.19,6.15-2.19,9.07v2.5h-3.55v-2.5c0-2.92-.73-5.94-2.19-9.07-1.46-3.13-3.93-6.99-7.41-11.58l-31.5-37.13h-45.89l61.54,71.97-63.62,74.05h46.73l34-40.05c3.06-4.03,5.22-7.41,6.47-10.12,1.25-2.71,1.88-5.53,1.88-8.45v-1.88h3.55v1.88c0,2.92.63,5.74,1.88,8.45,1.25,2.71,3.41,6.09,6.47,10.12l34,40.05h46.73l-63.62-74.05L345.65,6.57Z"/>
      <polygon class="cls-1" points="416.58 152.59 453.71 152.59 453.71 37.44 513.78 37.44 513.78 6.57 356.5 6.57 356.5 37.44 416.58 37.44 416.58 152.59"/>
      <path class="cls-1" d="m640.61,30.14c10.71-5.01,23.5-7.51,38.38-7.51,13.63,0,25.45,1.84,35.46,5.53,10.01,3.69,17.94,8.62,23.78,14.81,5.84,6.19,9.94,13.18,12.31,20.96h21.9c-2.5-11.27-7.55-21.42-15.12-30.46-7.58-9.04-17.94-16.2-31.08-21.49-13.14-5.28-28.89-7.93-47.25-7.93-19.47,0-36.19,3.27-50.17,9.8-13.98,6.54-24.58,15.54-31.81,27.01-7.23,11.47-10.85,24.37-10.85,38.7s3.55,27.19,10.64,38.59c7.09,11.4,17.38,20.41,30.87,27.01,13.49,6.61,29.34,9.91,47.56,9.91,14.6,0,27.12-2.12,37.55-6.36,10.43-4.24,18.6-9.31,24.51-15.23,5.91-5.91,10.19-12,12.83-18.25h2.71l-4.17,37.34h19.61v-72.8h-104.09v16.48h82.75c-1.25,4.01-3.17,8.11-5.78,12.31-5.01,8.07-12.69,14.91-23.05,20.55-10.36,5.63-23.33,8.45-38.9,8.45s-27.88-2.5-38.59-7.51c-10.71-5.01-18.81-11.89-24.3-20.65-5.5-8.76-8.24-18.7-8.24-29.83s2.74-20.55,8.24-29.1c5.49-8.55,13.59-15.33,24.3-20.34Z"/>
      <path class="cls-1" d="m961.86,152.59l-16.06-34.42c-2.92-6.12-5.7-10.78-8.34-13.98-2.64-3.2-5.74-5.42-9.28-6.67-2.51-.89-5.62-1.45-9.28-1.71v-2.8c5.47-.68,10.54-2.37,15.23-5.08,6.26-3.62,11.16-8.62,14.71-15.02,3.55-6.39,5.32-13.7,5.32-21.9s-2.19-15.89-6.57-22.63c-4.38-6.74-10.81-12.06-19.3-15.96-8.48-3.89-18.64-5.84-30.46-5.84h-94.08v146.02h21.69v-53.61h64.04c6.26,0,11.16.45,14.71,1.36,3.55.91,6.47,2.5,8.76,4.8,2.29,2.29,4.49,5.74,6.57,10.32l16.9,37.13h25.45Zm-64.04-70.92h-73.01V25.14h73.01c7.51,0,13.87,1.18,19.09,3.55,5.22,2.37,9.07,5.67,11.58,9.91,2.5,4.24,3.75,9.15,3.75,14.71s-1.25,10.68-3.75,14.91c-2.5,4.24-6.36,7.55-11.58,9.91-5.21,2.37-11.58,3.55-19.09,3.55Z"/>
      <path class="cls-1" d="m1129.16,13.87c-14.32-6.53-31.5-9.8-51.52-9.8s-37.2,3.27-51.52,9.8c-14.32,6.54-25.14,15.51-32.44,26.91-7.3,11.4-10.95,24.34-10.95,38.8s3.65,27.4,10.95,38.8c7.3,11.4,18.11,20.37,32.44,26.91,14.32,6.54,31.5,9.8,51.52,9.8s37.2-3.27,51.52-9.8c14.32-6.54,25.14-15.51,32.44-26.91,7.3-11.4,10.95-24.33,10.95-38.8s-3.65-27.39-10.95-38.8c-7.3-11.4-18.12-20.37-32.44-26.91Zm13.14,94.81c-5.56,8.55-13.84,15.33-24.82,20.34-10.99,5.01-24.27,7.51-39.84,7.51s-28.86-2.5-39.84-7.51c-10.99-5.01-19.26-11.78-24.82-20.34-5.56-8.55-8.34-18.25-8.34-29.1s2.78-20.55,8.34-29.1c5.56-8.55,13.84-15.33,24.82-20.34,10.98-5.01,24.27-7.51,39.84-7.51s28.86,2.5,39.84,7.51c10.98,5.01,19.26,11.78,24.82,20.34,5.56,8.55,8.34,18.25,8.34,29.1s-2.78,20.55-8.34,29.1Z"/>
      <path class="cls-1" d="m1341.51,84.38c0,16.27-4.9,28.86-14.71,37.76-9.8,8.9-24.37,13.35-43.7,13.35-13.07,0-23.96-2.01-32.65-6.05-8.69-4.03-15.2-9.87-19.5-17.52-4.31-7.65-6.47-16.82-6.47-27.53V6.57h-21.69v78.43c0,14.6,2.99,27.12,8.97,37.55,5.98,10.43,14.95,18.46,26.91,24.09,11.96,5.63,26.77,8.45,44.43,8.45,26.28,0,46.24-6.15,59.87-18.46,13.63-12.31,20.44-29.52,20.44-51.63V6.57h-21.9v77.81Z"/>
      <path class="cls-1" d="m1524.46,12.52c-8.62-3.96-19.26-5.94-31.92-5.94h-91.58v146.02h21.69v-50.27h69.88c12.65,0,23.29-1.98,31.92-5.94,8.62-3.96,15.09-9.56,19.4-16.79,4.31-7.23,6.47-15.64,6.47-25.24s-2.16-17.97-6.47-25.14c-4.31-7.16-10.78-12.72-19.4-16.69Zm0,57.37c-2.64,4.38-6.68,7.75-12.1,10.12-5.42,2.37-12.03,3.55-19.82,3.55h-70.51V25.14h70.51c7.79,0,14.39,1.22,19.82,3.65,5.42,2.44,9.46,5.84,12.1,10.22,2.64,4.38,3.96,9.49,3.96,15.33s-1.32,11.16-3.96,15.54Z"/>
      <path class="cls-1" d="m1601.65,11.08c-.92-2.21-2.21-4.15-3.86-5.82-1.65-1.67-3.6-2.96-5.84-3.89-2.24-.92-4.67-1.38-7.28-1.38s-5.03.47-7.28,1.41c-2.24.94-4.2,2.25-5.87,3.94-1.67,1.69-2.97,3.64-3.91,5.87-.94,2.23-1.41,4.63-1.41,7.2s.46,4.97,1.38,7.2c.92,2.23,2.22,4.18,3.89,5.87,1.67,1.69,3.62,3,5.84,3.94,2.23.94,4.64,1.41,7.25,1.41s5.03-.47,7.25-1.41c2.23-.94,4.18-2.25,5.87-3.94,1.69-1.69,3-3.65,3.94-5.89.94-2.24,1.41-4.67,1.41-7.28s-.46-5.02-1.38-7.23Zm-2.27,13.56c-.8,1.97-1.93,3.68-3.39,5.14-1.46,1.46-3.16,2.61-5.11,3.44-1.95.84-4.05,1.25-6.31,1.25s-4.36-.41-6.31-1.23c-1.95-.82-3.63-1.96-5.06-3.42-1.43-1.46-2.54-3.16-3.34-5.11-.8-1.95-1.2-4.05-1.2-6.31s.4-4.35,1.2-6.29c.8-1.93,1.91-3.63,3.34-5.11,1.43-1.48,3.12-2.62,5.09-3.44,1.96-.82,4.09-1.23,6.39-1.23s4.41.41,6.34,1.23c1.93.82,3.61,1.94,5.03,3.36,1.43,1.43,2.54,3.11,3.34,5.06.8,1.95,1.2,4.05,1.2,6.31s-.4,4.37-1.2,6.34Z"/>
      <path class="cls-1" d="m1591.76,20.29c1.49-1.25,2.24-2.99,2.24-5.22s-.75-3.88-2.24-5.16c-1.5-1.29-3.57-1.93-6.21-1.93h-8.35v20.87h3.55v-6.68h4.8c.3,0,.58-.01.86-.03l4.35,6.7h3.6l-4.76-7.33c.81-.3,1.53-.71,2.15-1.22Zm-6.47-1.04h-4.59v-8.29h4.59c1.67,0,2.96.36,3.89,1.07.92.71,1.38,1.73,1.38,3.05s-.46,2.35-1.38,3.08c-.92.73-2.22,1.1-3.89,1.1Z"/>
      <polygon class="cls-1" points="435.36 271.64 427.53 271.64 401.45 298.51 401.45 271.64 394.58 271.64 394.58 319.69 401.45 319.69 401.45 307.25 410.26 298.32 428.63 319.69 436.66 319.69 414.85 293.28 435.36 271.64"/>
      <path class="cls-1" d="m465.63,285.3c-2.7-1.55-5.81-2.33-9.33-2.33s-6.6.79-9.37,2.37c-2.77,1.58-4.94,3.76-6.52,6.56-1.58,2.79-2.37,5.99-2.37,9.61s.81,6.82,2.44,9.61c1.62,2.79,3.91,4.99,6.86,6.59,2.95,1.6,6.37,2.4,10.26,2.4,3.02,0,5.75-.5,8.2-1.51,2.45-1.01,4.5-2.47,6.14-4.39l-3.64-4.26c-1.33,1.47-2.87,2.56-4.63,3.3-1.76.73-3.72,1.1-5.87,1.1-2.61,0-4.92-.53-6.93-1.58-2.01-1.05-3.58-2.53-4.7-4.43-.83-1.4-1.34-2.95-1.56-4.63h29.53c.05-.32.08-.66.1-1.03.02-.37.03-.69.03-.96,0-3.75-.77-7.04-2.3-9.85-1.53-2.81-3.65-5-6.35-6.56Zm-15.44,4.77c1.78-1.03,3.82-1.54,6.11-1.54s4.38.52,6.14,1.54c1.76,1.03,3.14,2.46,4.15,4.29.76,1.39,1.22,2.92,1.38,4.6h-23.38c.19-1.67.66-3.19,1.41-4.56,1.01-1.85,2.4-3.3,4.19-4.33Z"/>
      <rect class="cls-1" x="483.4" y="268.76" width="6.59" height="50.93"/>
      <path class="cls-1" d="m531.38,319.69v-21.96c0-4.99-1.35-8.69-4.05-11.12-2.7-2.42-6.55-3.64-11.53-3.64-2.88,0-5.64.4-8.27,1.2-2.63.8-4.89,1.96-6.76,3.47l2.75,4.94c1.42-1.19,3.16-2.14,5.22-2.85,2.06-.71,4.16-1.06,6.31-1.06,3.25,0,5.69.77,7.31,2.3,1.62,1.53,2.44,3.7,2.44,6.49v1.3h-10.43c-3.62,0-6.49.48-8.61,1.44-2.13.96-3.66,2.24-4.6,3.85-.94,1.6-1.41,3.39-1.41,5.35s.55,3.9,1.65,5.52c1.1,1.63,2.67,2.89,4.7,3.81,2.04.92,4.4,1.37,7.1,1.37,3.34,0,6.11-.63,8.31-1.89,1.54-.88,2.75-1.99,3.64-3.32v4.79h6.25Zm-10.6-6.31c-1.85,1.1-4.02,1.65-6.49,1.65s-4.49-.54-5.9-1.61c-1.42-1.07-2.13-2.51-2.13-4.29,0-1.56.57-2.88,1.72-3.98,1.14-1.1,3.36-1.65,6.66-1.65h10.16v5.08c-.82,2.1-2.16,3.71-4.01,4.8Z"/>
      <path class="cls-1" d="m543.95,321.47c0,2.1-.47,3.7-1.41,4.77-.94,1.08-2.28,1.61-4.01,1.61-2.2,0-3.98-.58-5.35-1.72l-2.13,5.08c.96.73,2.14,1.28,3.53,1.65,1.4.37,2.85.55,4.36.55,3.75,0,6.62-1.09,8.61-3.26,1.99-2.18,2.99-5.11,2.99-8.82v-38.03h-6.59v38.16Z"/>
      <path class="cls-1" d="m547.24,267.73c-1.28,0-2.35.41-3.19,1.23-.85.82-1.27,1.85-1.27,3.09s.42,2.2,1.27,3.02c.85.82,1.91,1.23,3.19,1.23s2.4-.42,3.23-1.27c.82-.85,1.24-1.89,1.24-3.12s-.42-2.18-1.27-2.99c-.85-.8-1.91-1.2-3.19-1.2Z"/>
      <path class="cls-1" d="m576.34,282.97c-2.88,0-5.64.4-8.27,1.2-2.63.8-4.88,1.96-6.76,3.47l2.75,4.94c1.42-1.19,3.16-2.14,5.22-2.85,2.06-.71,4.16-1.06,6.31-1.06,3.25,0,5.69.77,7.31,2.3,1.62,1.53,2.44,3.7,2.44,6.49v1.3h-10.43c-3.62,0-6.49.48-8.61,1.44-2.13.96-3.66,2.24-4.6,3.85-.94,1.6-1.41,3.39-1.41,5.35s.55,3.9,1.65,5.52c1.1,1.63,2.67,2.89,4.7,3.81,2.04.92,4.4,1.37,7.1,1.37,3.34,0,6.11-.63,8.31-1.89,1.54-.88,2.75-1.99,3.64-3.32v4.79h6.25v-21.96c0-4.99-1.35-8.69-4.05-11.12-2.7-2.42-6.55-3.64-11.53-3.64Zm4.98,30.41c-1.85,1.1-4.02,1.65-6.49,1.65s-4.49-.54-5.9-1.61c-1.42-1.07-2.13-2.51-2.13-4.29,0-1.56.57-2.88,1.72-3.98,1.14-1.1,3.36-1.65,6.66-1.65h10.16v5.08c-.82,2.1-2.16,3.71-4.02,4.8Z"/>
      <polygon class="cls-1" points="638.53 283.31 630.57 283.31 610.73 301.46 610.73 268.76 604.14 268.76 604.14 319.69 610.73 319.69 610.73 309.75 618.26 302.72 631.94 319.69 640.04 319.69 623.23 298.35 638.53 283.31"/>
      <path class="cls-1" d="m673.23,284.68c-2.27-1.14-4.89-1.71-7.86-1.71-3.29,0-6.18.66-8.65,1.99-1.84.99-3.33,2.27-4.46,3.85v-5.5h-6.32v36.38h6.59v-18.74c0-2.65.47-4.87,1.41-6.66.94-1.78,2.28-3.13,4.02-4.05,1.74-.92,3.78-1.37,6.11-1.37,3.11,0,5.53.89,7.24,2.68,1.72,1.78,2.58,4.44,2.58,7.96v20.18h6.59v-20.94c0-3.57-.64-6.52-1.92-8.85-1.28-2.33-3.05-4.07-5.32-5.22Z"/>
      <rect class="cls-1" x="692.69" y="283.31" width="6.59" height="36.38"/>
      <path class="cls-1" d="m695.98,267.73c-1.28,0-2.34.41-3.19,1.23-.85.82-1.27,1.85-1.27,3.09s.42,2.2,1.27,3.02c.85.82,1.91,1.23,3.19,1.23s2.4-.42,3.23-1.27c.82-.85,1.24-1.89,1.24-3.12s-.42-2.18-1.27-2.99c-.85-.8-1.91-1.2-3.19-1.2Z"/>
      <path class="cls-1" d="m759.06,285.3c-2.75-1.55-5.9-2.33-9.47-2.33-3.02,0-5.78.69-8.27,2.06-1.72.95-3.19,2.22-4.43,3.82v-20.08h-6.59v50.93h6.31v-5.75c1.25,1.7,2.77,3.06,4.56,4.07,2.49,1.4,5.3,2.09,8.41,2.09,3.57,0,6.73-.78,9.47-2.33,2.75-1.56,4.92-3.73,6.52-6.52,1.6-2.79,2.4-6.04,2.4-9.75s-.8-6.94-2.4-9.71c-1.6-2.77-3.77-4.93-6.52-6.49Zm.65,22.96c-1.08,1.95-2.54,3.44-4.39,4.5s-3.95,1.58-6.28,1.58-4.36-.53-6.21-1.58c-1.85-1.05-3.32-2.55-4.39-4.5-1.08-1.94-1.61-4.2-1.61-6.76s.54-4.86,1.61-6.76,2.54-3.37,4.39-4.43c1.85-1.05,3.92-1.58,6.21-1.58s4.43.53,6.28,1.58c1.85,1.06,3.32,2.53,4.39,4.43s1.61,4.15,1.61,6.76-.54,4.82-1.61,6.76Z"/>
      <rect class="cls-1" x="777.12" y="283.31" width="6.59" height="36.38"/>
      <path class="cls-1" d="m780.41,267.73c-1.28,0-2.34.41-3.19,1.23-.85.82-1.27,1.85-1.27,3.09s.42,2.2,1.27,3.02c.85.82,1.91,1.23,3.19,1.23s2.4-.42,3.23-1.27c.82-.85,1.24-1.89,1.24-3.12s-.42-2.18-1.27-2.99c-.85-.8-1.91-1.2-3.19-1.2Z"/>
      <path class="cls-1" d="m802.58,289.43v-6.12h-6.31v36.38h6.59v-18.12c0-3.98,1.03-7.02,3.09-9.13,2.06-2.1,4.85-3.16,8.37-3.16h.72c.25,0,.52.02.79.07v-6.38c-3.48,0-6.41.66-8.79,1.99-1.95,1.09-3.43,2.58-4.46,4.47Z"/>
      <path class="cls-1" d="m852.14,288.89c-1.35-1.73-3-3.08-4.94-4.03-2.56-1.26-5.4-1.89-8.51-1.89-3.52,0-6.67.73-9.44,2.2-2.77,1.47-4.97,3.51-6.59,6.14-1.62,2.63-2.44,5.71-2.44,9.23s.81,6.54,2.44,9.2c1.62,2.66,3.82,4.73,6.59,6.21,2.77,1.49,5.91,2.23,9.44,2.23,3.11,0,5.95-.65,8.51-1.96,1.78-.91,3.31-2.14,4.6-3.68v2.89c0,4.12-1.01,7.18-3.02,9.2-2.02,2.01-5.17,3.02-9.47,3.02-2.7,0-5.29-.42-7.76-1.27-2.47-.85-4.55-2-6.25-3.47l-3.16,5.08c1.97,1.74,4.52,3.08,7.65,4.01,3.13.94,6.37,1.41,9.71,1.41,6.18,0,10.87-1.51,14.07-4.53,3.2-3.02,4.81-7.73,4.81-14.14v-31.44h-6.25v5.57Zm-1.82,17.83c-1.08,1.78-2.55,3.18-4.43,4.19-1.88,1.01-4.03,1.51-6.45,1.51s-4.59-.5-6.49-1.51c-1.9-1.01-3.39-2.4-4.46-4.19s-1.61-3.84-1.61-6.18.54-4.39,1.61-6.18,2.56-3.17,4.46-4.15c1.9-.99,4.06-1.48,6.49-1.48s4.57.49,6.45,1.48c1.88.98,3.35,2.37,4.43,4.15,1.07,1.78,1.61,3.85,1.61,6.18s-.54,4.39-1.61,6.18Z"/>
      <path class="cls-1" d="m884.19,282.97c-2.88,0-5.64.4-8.27,1.2-2.63.8-4.89,1.96-6.76,3.47l2.75,4.94c1.42-1.19,3.16-2.14,5.22-2.85,2.06-.71,4.16-1.06,6.31-1.06,3.25,0,5.69.77,7.31,2.3,1.62,1.53,2.44,3.7,2.44,6.49v1.3h-10.43c-3.62,0-6.49.48-8.61,1.44-2.13.96-3.66,2.24-4.6,3.85-.94,1.6-1.41,3.39-1.41,5.35s.55,3.9,1.65,5.52c1.1,1.63,2.67,2.89,4.7,3.81,2.04.92,4.4,1.37,7.1,1.37,3.34,0,6.11-.63,8.31-1.89,1.54-.88,2.75-1.99,3.64-3.32v4.79h6.25v-21.96c0-4.99-1.35-8.69-4.05-11.12-2.7-2.42-6.55-3.64-11.53-3.64Zm4.98,30.41c-1.85,1.1-4.02,1.65-6.49,1.65s-4.49-.54-5.9-1.61c-1.42-1.07-2.13-2.51-2.13-4.29,0-1.56.57-2.88,1.72-3.98,1.14-1.1,3.36-1.65,6.66-1.65h10.16v5.08c-.82,2.1-2.16,3.71-4.02,4.8Z"/>
      <path class="cls-1" d="m958.46,289.06c-1.24-1.7-2.75-3.05-4.53-4.04-2.47-1.37-5.29-2.06-8.44-2.06-3.52,0-6.67.78-9.44,2.33-2.77,1.56-4.95,3.72-6.56,6.49-1.6,2.77-2.4,6-2.4,9.71s.8,6.96,2.4,9.75c1.6,2.79,3.79,4.97,6.56,6.52,2.77,1.56,5.91,2.33,9.44,2.33,3.07,0,5.83-.7,8.31-2.09,1.7-.96,3.16-2.25,4.39-3.84v18.84h6.59v-49.7h-6.31v5.75Zm-1.82,19.2c-1.08,1.95-2.54,3.44-4.39,4.5-1.85,1.05-3.93,1.58-6.21,1.58s-4.42-.53-6.25-1.58c-1.83-1.05-3.3-2.55-4.39-4.5-1.1-1.94-1.65-4.2-1.65-6.76s.55-4.86,1.65-6.76c1.1-1.9,2.56-3.37,4.39-4.43,1.83-1.05,3.91-1.58,6.25-1.58s4.36.53,6.21,1.58c1.85,1.06,3.32,2.53,4.39,4.43,1.08,1.9,1.61,4.15,1.61,6.76s-.54,4.82-1.61,6.76Z"/>
      <path class="cls-1" d="m1004.59,302.12c0,2.56-.46,4.75-1.37,6.56-.92,1.81-2.22,3.18-3.91,4.12-1.69.94-3.68,1.41-5.97,1.41-3.11,0-5.52-.89-7.24-2.68s-2.57-4.46-2.57-8.03v-20.18h-6.59v20.93c0,3.57.65,6.53,1.96,8.89,1.3,2.36,3.13,4.11,5.49,5.25,2.36,1.15,5.09,1.71,8.2,1.71s5.65-.66,8.03-1.99c1.77-.99,3.21-2.28,4.32-3.88v5.46h6.25v-36.38h-6.59v18.81Z"/>
      <path class="cls-1" d="m1030.05,289.43v-6.12h-6.31v36.38h6.59v-18.12c0-3.98,1.03-7.02,3.09-9.13,2.06-2.1,4.85-3.16,8.37-3.16h.72c.25,0,.52.02.79.07v-6.38c-3.48,0-6.41.66-8.79,1.99-1.95,1.09-3.43,2.58-4.46,4.47Z"/>
      <path class="cls-1" d="m1061.97,282.97c-2.88,0-5.64.4-8.27,1.2-2.63.8-4.89,1.96-6.76,3.47l2.75,4.94c1.42-1.19,3.16-2.14,5.22-2.85,2.06-.71,4.16-1.06,6.31-1.06,3.25,0,5.69.77,7.31,2.3,1.62,1.53,2.44,3.7,2.44,6.49v1.3h-10.43c-3.62,0-6.49.48-8.61,1.44-2.13.96-3.66,2.24-4.6,3.85-.94,1.6-1.41,3.39-1.41,5.35s.55,3.9,1.65,5.52c1.1,1.63,2.67,2.89,4.7,3.81,2.04.92,4.4,1.37,7.1,1.37,3.34,0,6.11-.63,8.31-1.89,1.54-.88,2.75-1.99,3.64-3.32v4.79h6.25v-21.96c0-4.99-1.35-8.69-4.05-11.12-2.7-2.42-6.55-3.64-11.53-3.64Zm4.98,30.41c-1.85,1.1-4.02,1.65-6.49,1.65s-4.49-.54-5.9-1.61c-1.42-1.07-2.13-2.51-2.13-4.29,0-1.56.57-2.88,1.72-3.98,1.14-1.1,3.36-1.65,6.66-1.65h10.16v5.08c-.82,2.1-2.16,3.71-4.01,4.8Z"/>
      <path class="cls-1" d="m1143.03,284.68c-2.24-1.14-4.83-1.71-7.76-1.71-3.66,0-6.87.85-9.61,2.54-1.84,1.14-3.3,2.52-4.4,4.16-.89-1.7-2.09-3.08-3.63-4.12-2.52-1.71-5.52-2.57-8.99-2.57-3.16,0-5.93.66-8.31,1.99-1.76.98-3.17,2.25-4.26,3.8v-5.44h-6.31v36.38h6.59v-18.74c0-2.65.46-4.87,1.37-6.66.92-1.78,2.2-3.13,3.84-4.05,1.65-.92,3.55-1.37,5.7-1.37,3.02,0,5.34.89,6.97,2.68,1.62,1.78,2.44,4.44,2.44,7.96v20.18h6.59v-18.74c0-2.65.45-4.87,1.34-6.66s2.16-3.13,3.81-4.05c1.65-.92,3.57-1.37,5.77-1.37,2.97,0,5.29.89,6.93,2.68,1.65,1.78,2.47,4.44,2.47,7.96v20.18h6.59v-20.94c0-3.57-.63-6.52-1.89-8.85-1.26-2.33-3.01-4.07-5.25-5.22Z"/>
      <rect class="cls-1" x="1162.32" y="283.31" width="6.59" height="36.38"/>
      <path class="cls-1" d="m1165.62,267.73c-1.28,0-2.34.41-3.19,1.23-.85.82-1.27,1.85-1.27,3.09s.42,2.2,1.27,3.02c.85.82,1.91,1.23,3.19,1.23s2.4-.42,3.23-1.27c.82-.85,1.24-1.89,1.24-3.12s-.42-2.18-1.27-2.99c-.85-.8-1.91-1.2-3.19-1.2Z"/>
      <polygon class="cls-1" points="1207.9 287.63 1207.9 283.31 1178.38 283.31 1178.38 288.73 1199.48 288.73 1177.97 315.43 1177.97 319.69 1208.45 319.69 1208.45 314.27 1186.39 314.27 1207.9 287.63"/>
    </g>
  </g>
</svg>