<!-- <?xml version="1.0" encoding="UTF-8"?> -->
<svg id="_Слой_2" data-name="Слой 2" xmlns="http://www.w3.org/2000/svg" viewBox="0 0 964.34 96.67">
  <defs>
    <style>
      .cls-1 {
        fill: #ffffff;
      }
    </style>
  </defs>
  <g id="_Слой_1-2" data-name="Слой 1">
    <g>
      <path class="cls-1" d="m560.86,6.26c-9.32-4.17-20.59-6.26-33.82-6.26s-24.5,2.09-33.82,6.26c-9.32,4.17-16.33,9.92-21.04,17.25-4.71,7.32-7.06,15.6-7.06,24.83s2.35,17.51,7.06,24.83c4.7,7.32,11.72,13.07,21.04,17.24,9.32,4.17,20.6,6.26,33.82,6.26s24.5-2.09,33.82-6.26c9.33-4.17,16.33-9.92,21.04-17.24,4.7-7.32,7.06-15.6,7.06-24.83s-2.36-17.51-7.06-24.83c-4.71-7.32-11.72-13.07-21.04-17.25Zm.07,56.93c-2.89,4.39-7.19,7.85-12.91,10.38-5.73,2.53-12.72,3.79-20.98,3.79s-15.24-1.26-20.97-3.79c-5.72-2.53-10.03-5.99-12.91-10.38-2.89-4.4-4.33-9.34-4.33-14.85s1.44-10.46,4.33-14.85c2.89-4.4,7.19-7.86,12.91-10.39,5.73-2.53,12.72-3.79,20.97-3.79s15.25,1.26,20.98,3.79c5.72,2.53,10.03,5.99,12.91,10.39,2.89,4.39,4.33,9.34,4.33,14.85s-1.44,10.45-4.33,14.85Z"/>
      <g>
        <polygon class="cls-1" points="0 21.44 38.35 21.44 38.35 94.94 62.05 94.94 62.05 21.44 100.4 21.44 100.4 1.73 0 1.73 0 21.44"/>
        <path class="cls-1" d="m219.98,1.73h-29.29l-20.11,23.7c-2.22,2.93-3.79,5.39-4.72,7.39-.93,2-1.4,3.93-1.4,5.79v1.6h-2.26v-1.6c0-1.87-.47-3.79-1.4-5.79-.93-2-2.51-4.46-4.72-7.39L135.95,1.73h-29.29l39.28,45.94-40.61,47.27h29.83l21.71-25.57c1.95-2.57,3.33-4.72,4.13-6.46.8-1.73,1.2-3.53,1.2-5.39v-1.2h2.26v1.2c0,1.86.4,3.66,1.2,5.39.8,1.73,2.17,3.88,4.13,6.46l21.71,25.57h29.83l-40.61-47.27L219.98,1.73Z"/>
        <polygon class="cls-1" points="226.24 21.44 264.59 21.44 264.59 94.94 288.29 94.94 288.29 21.44 326.64 21.44 326.64 1.73 226.24 1.73 226.24 21.44"/>
        <polygon class="cls-1" points="364.45 21.44 402.8 21.44 402.8 94.94 426.51 94.94 426.51 21.44 464.86 21.44 464.86 1.73 364.45 1.73 364.45 21.44"/>
        <path class="cls-1" d="m698.69,61.38c-.8,3.38-1.36,6.5-1.67,9.39-.31,2.89-.47,5.92-.47,9.12v.93h-2.26v-.93c0-3.55-.16-6.74-.47-9.59-.31-2.84-.87-5.81-1.66-8.92l-13.18-43.67h-26.37l-13.32,43.67c-.8,3.11-1.35,6.08-1.66,8.92s-.47,6.04-.47,9.59v.93h-2.13v-.93c0-3.2-.17-6.24-.53-9.12-.36-2.89-.93-6.01-1.73-9.39l-15.98-59.66h-25.57l27.3,93.21h29.96l13.18-40.61c1.15-4.08,1.93-7.5,2.33-10.26.4-2.75.6-6.66.6-11.72v-.53h2.26v.53c0,5.06.2,8.97.6,11.72.4,2.75,1.17,6.17,2.33,10.26l13.18,40.61h29.96L740.23,1.73h-25.56l-15.98,59.66Z"/>
        <polygon class="cls-1" points="751.81 94.94 844.36 94.94 844.36 76.3 775.52 76.3 775.52 55.93 835.04 55.93 835.04 39.28 775.52 39.28 775.52 20.37 844.36 20.37 844.36 1.73 751.81 1.73 751.81 94.94"/>
        <path class="cls-1" d="m949.75,66.58c-1.91-2.13-4.11-3.61-6.59-4.46-2.07-.7-4.67-1.04-7.59-1.16v-2.38c3.92-.32,7.59-1.44,10.99-3.45,4.04-2.4,7.21-5.7,9.52-9.92,2.31-4.21,3.46-8.94,3.46-14.18,0-5.68-1.4-10.74-4.2-15.18-2.8-4.44-7.03-7.9-12.71-10.39-5.68-2.48-12.7-3.73-21.04-3.73h-61.65v93.21h23.7v-32.36h26.63c3.02,0,5.5.25,7.46.73s3.57,1.35,4.86,2.59c1.28,1.25,2.42,2.93,3.4,5.06l10.12,23.97h28.23l-8.92-19.18c-1.87-3.99-3.75-7.06-5.66-9.19Zm-30.43-18.91h-36.89v-27.3h36.89c3.55,0,6.57.55,9.05,1.66,2.48,1.11,4.35,2.71,5.6,4.79,1.24,2.09,1.87,4.46,1.87,7.12s-.62,5.15-1.87,7.19c-1.25,2.04-3.11,3.64-5.6,4.79-2.48,1.16-5.51,1.73-9.05,1.73Z"/>
      </g>
    </g>
  </g>
</svg>