<?xml version="1.0" encoding="UTF-8"?>
<svg id="_Слой_2" data-name="Слой 2" xmlns="http://www.w3.org/2000/svg" xmlns:xlink="http://www.w3.org/1999/xlink" viewBox="0 0 113.18 119">
  <defs>
    <style>
      .cls-1 {
        fill: url(#linear-gradient-2);
      }

      .cls-2 {
        fill: #363636;
      }

      .cls-3 {
        fill: url(#linear-gradient);
      }
    </style>
    <linearGradient id="linear-gradient" x1="1021.39" y1="17.94" x2="938.28" y2="101.06" gradientTransform="translate(1036.43) rotate(-180) scale(1 -1)" gradientUnits="userSpaceOnUse">
      <stop offset="0" stop-color="#a77327"/>
      <stop offset=".29" stop-color="#efd67b"/>
      <stop offset=".35" stop-color="#f0d987"/>
      <stop offset=".44" stop-color="#f5e2a9"/>
      <stop offset=".48" stop-color="#f8e7b9"/>
      <stop offset=".54" stop-color="#f6e3ac"/>
      <stop offset=".63" stop-color="#f1da8a"/>
      <stop offset=".67" stop-color="#efd67b"/>
      <stop offset=".73" stop-color="#e5c970"/>
      <stop offset=".85" stop-color="#cda753"/>
      <stop offset="1" stop-color="#a77327"/>
    </linearGradient>
    <linearGradient id="linear-gradient-2" x1="626.28" y1="22.69" x2="699.9" y2="96.31" gradientTransform="translate(719.68) rotate(-180) scale(1 -1)" xlink:href="#linear-gradient"/>
  </defs>
  <g id="objects">
    <polygon class="cls-3" points="56.59 0 40.95 11.36 21.61 11.36 15.64 29.75 0 41.11 5.97 59.5 0 77.89 15.64 89.25 21.61 107.64 40.95 107.64 56.59 119 72.23 107.64 91.56 107.64 97.54 89.25 113.18 77.89 107.2 59.5 113.18 41.11 97.54 29.75 91.56 11.36 72.23 11.36 56.59 0"/>
    <path class="cls-1" d="m42.74,102.14h-17.12l-5.29-16.29-13.85-10.07,5.29-16.29-5.29-16.29,13.85-10.07,5.29-16.29h17.12l13.85-10.07,13.85,10.07h17.12l5.29,16.29,13.85,10.07-5.29,16.29,5.29,16.29-13.85,10.07-5.29,16.29h-17.12l-13.85,10.06-13.85-10.06Zm47.57-18.14l12.88-9.36-4.92-15.14,4.92-15.14-12.88-9.36-4.92-15.14h-15.92l-12.88-9.36-12.88,9.36h-15.92l-4.92,15.14-12.88,9.36,4.92,15.14-4.92,15.14,12.88,9.36,4.92,15.14h15.92l12.88,9.36,12.88-9.36h15.92l4.92-15.14Z"/>
    <g>
      <g>
        <path class="cls-2" d="m38.73,49.47c-.92,0-1.67-.3-2.25-.91-.59-.61-.88-1.35-.88-2.23s.29-1.63.88-2.23c.59-.6,1.34-.9,2.25-.9s1.67.3,2.25.9c.59.6.88,1.35.88,2.23s-.29,1.61-.87,2.21l.85,1.11h-1.43l-.35-.45c-.41.18-.86.27-1.34.27Zm-.55-2.74h1.43l.66.87c.27-.37.4-.79.4-1.27,0-.58-.19-1.07-.55-1.47-.37-.4-.83-.6-1.39-.6s-1.02.2-1.39.6c-.37.4-.55.89-.55,1.47s.18,1.07.55,1.47c.37.4.83.6,1.39.6.23,0,.45-.04.65-.11l-1.19-1.56Z"/>
        <path class="cls-2" d="m42.11,49.77h-1.74l-.33-.43c-.4.16-.84.25-1.3.25-.95,0-1.73-.32-2.34-.95-.61-.63-.92-1.41-.92-2.31s.31-1.7.92-2.32c.61-.62,1.4-.94,2.34-.94s1.73.32,2.34.94c.61.62.92,1.4.92,2.32,0,.86-.28,1.61-.83,2.22l.94,1.23Zm-1.62-.25h1.11l-.77-.99.08-.08c.56-.57.84-1.29.84-2.12s-.28-1.57-.85-2.14c-.56-.57-1.29-.87-2.17-.87s-1.6.29-2.16.87c-.56.58-.85,1.3-.85,2.14s.28,1.56.85,2.14c.56.58,1.29.87,2.16.87.46,0,.89-.09,1.29-.26l.09-.04.38.48Zm-1.75-1c-.59,0-1.09-.22-1.48-.65-.39-.42-.59-.95-.59-1.55s.2-1.14.59-1.56c.39-.42.89-.64,1.48-.64s1.09.21,1.48.64c.39.42.59.95.59,1.56,0,.5-.14.96-.42,1.35l-.1.14-.73-.96h-1.11l1.14,1.5-.16.06c-.21.08-.44.12-.69.12Zm0-4.14c-.53,0-.95.18-1.3.56-.35.38-.52.83-.52,1.39s.18,1.01.52,1.38c.35.38.77.56,1.3.56.15,0,.3-.02.44-.05l-1.24-1.62h1.74l.59.78c.19-.31.28-.67.28-1.06,0-.55-.17-1.01-.52-1.39-.35-.38-.77-.56-1.3-.56Z"/>
      </g>
      <g>
        <path class="cls-2" d="m42.9,46.82v-3.51h1.19v3.5c0,.52.13.91.39,1.18.26.27.62.41,1.08.41s.82-.14,1.07-.41c.25-.27.38-.67.38-1.18v-3.5h1.19v3.51c0,.84-.24,1.49-.72,1.95s-1.12.7-1.93.7-1.46-.23-1.94-.7c-.48-.46-.72-1.11-.72-1.95Z"/>
        <path class="cls-2" d="m45.55,49.59c-.84,0-1.52-.25-2.02-.73-.5-.49-.76-1.17-.76-2.04v-3.63h1.44v3.62c0,.48.12.85.35,1.1.23.25.56.37.99.37s.75-.12.98-.37c.23-.25.35-.62.35-1.1v-3.62h1.44v3.63c0,.87-.25,1.55-.76,2.04-.5.48-1.18.73-2.01.73Zm-2.53-6.15v3.38c0,.8.23,1.42.68,1.86.45.44,1.07.66,1.85.66s1.39-.22,1.84-.66c.45-.44.68-1.06.68-1.86v-3.38h-.94v3.37c0,.55-.14.97-.42,1.27-.28.3-.67.45-1.16.45s-.89-.15-1.17-.45c-.28-.29-.42-.72-.42-1.27v-3.37h-.94Z"/>
      </g>
      <g>
        <path class="cls-2" d="m54.62,45.17c0,.45-.13.84-.38,1.17-.25.33-.62.55-1.11.64l1.81,2.37h-1.48l-1.76-2.32h-.95v2.32h-1.19v-6.04h2.98c.68,0,1.2.18,1.56.53s.53.79.53,1.33Zm-3.88-.79v1.59h1.71c.3,0,.54-.07.72-.22s.26-.34.26-.58-.09-.44-.26-.58c-.17-.14-.41-.21-.72-.21h-1.71Z"/>
        <path class="cls-2" d="m55.19,49.47h-1.8l-.04-.05-1.73-2.27h-.77v2.32h-1.44v-6.29h3.11c.72,0,1.27.19,1.65.56.38.37.57.85.57,1.42,0,.47-.14.89-.41,1.25-.24.31-.57.53-.99.64l1.84,2.42Zm-1.67-.25h1.17l-1.78-2.33.2-.04c.45-.08.8-.28,1.03-.59.24-.31.36-.68.36-1.1,0-.5-.16-.91-.49-1.24-.33-.33-.82-.49-1.47-.49h-2.86v5.79h.94v-2.32h1.14l.04.05,1.73,2.27Zm-1.07-3.13h-1.83v-1.84h1.83c.34,0,.61.08.8.24.2.17.3.39.3.67s-.1.51-.31.68c-.2.16-.47.25-.8.25Zm-1.58-.25h1.58c.27,0,.49-.06.64-.19.15-.12.22-.28.22-.48s-.07-.36-.21-.48c-.15-.12-.37-.19-.64-.19h-1.58v1.34Z"/>
      </g>
      <g>
        <path class="cls-2" d="m57.04,43.31v6.04h-1.19v-6.04h1.19Z"/>
        <path class="cls-2" d="m57.16,49.47h-1.44v-6.29h1.44v6.29Zm-1.19-.25h.94v-5.79h-.94v5.79Z"/>
      </g>
      <g>
        <path class="cls-2" d="m59.63,43.31v4.97h3.04v1.06h-4.24v-6.04h1.19Z"/>
        <path class="cls-2" d="m62.8,49.47h-4.49v-6.29h1.44v4.97h3.04v1.31Zm-4.24-.25h3.99v-.81h-3.04v-4.97h-.94v5.79Z"/>
      </g>
      <g>
        <path class="cls-2" d="m64.81,43.31v6.04h-1.19v-6.04h1.19Z"/>
        <path class="cls-2" d="m64.93,49.47h-1.44v-6.29h1.44v6.29Zm-1.19-.25h.94v-5.79h-.94v5.79Z"/>
      </g>
      <g>
        <path class="cls-2" d="m68.45,49.47c-1.45,0-2.36-.6-2.74-1.79h1.21c.27.49.78.73,1.53.73.38,0,.69-.07.92-.21.23-.14.35-.33.35-.57,0-.22-.08-.38-.24-.5s-.42-.19-.78-.23l-1.04-.1c-.61-.05-1.05-.24-1.35-.54-.29-.31-.44-.7-.44-1.17,0-.56.22-1.02.65-1.37.44-.35,1.02-.52,1.75-.52s1.28.17,1.74.52c.45.35.76.77.93,1.27h-1.21c-.1-.22-.29-.39-.56-.53-.27-.13-.58-.2-.91-.2-.38,0-.68.08-.88.23s-.31.34-.31.56c0,.39.29.62.86.69l1.11.11c.58.06,1.04.25,1.37.55.33.31.5.7.5,1.17,0,.53-.22.97-.65,1.34-.43.37-1.04.55-1.81.55Z"/>
        <path class="cls-2" d="m68.45,49.59c-1.5,0-2.46-.63-2.85-1.88l-.05-.16h1.45l.04.06c.25.45.71.66,1.42.66.36,0,.65-.07.86-.2.19-.12.29-.27.29-.46,0-.18-.06-.31-.19-.4-.14-.1-.38-.17-.72-.21l-1.04-.1c-.63-.06-1.11-.25-1.42-.58-.31-.33-.47-.75-.47-1.25,0-.6.24-1.09.7-1.47.46-.37,1.07-.55,1.82-.55s1.34.18,1.81.54c.47.36.8.81.97,1.33l.05.16h-1.46l-.03-.07c-.09-.19-.26-.35-.51-.47-.25-.12-.54-.19-.85-.19-.35,0-.62.07-.81.2-.17.13-.26.28-.26.46,0,.12,0,.48.75.57l1.11.11c.61.06,1.09.26,1.44.59.35.33.54.76.54,1.26,0,.56-.23,1.05-.69,1.44-.46.38-1.09.58-1.89.58Zm-2.56-1.79c.39,1.04,1.23,1.54,2.56,1.54.74,0,1.32-.17,1.73-.52.41-.34.61-.75.61-1.25,0-.44-.15-.79-.46-1.08-.31-.29-.74-.46-1.3-.52l-1.11-.11c-.81-.09-.98-.49-.98-.81,0-.27.12-.49.36-.66.23-.17.55-.25.96-.25.35,0,.68.07.96.21.27.13.46.3.58.51h.95c-.17-.41-.44-.76-.82-1.05-.43-.33-.99-.49-1.66-.49s-1.26.17-1.67.5c-.41.33-.61.74-.61,1.27,0,.44.14.8.4,1.08.27.28.69.45,1.27.5l1.04.1c.38.04.66.12.84.25.19.14.29.34.29.6,0,.28-.14.51-.41.67-.25.15-.58.23-.99.23-.76,0-1.3-.25-1.6-.73h-.96Z"/>
      </g>
      <g>
        <path class="cls-2" d="m77.25,49.35h-1.19v-2.49h-2.93v2.49h-1.19v-6.04h1.19v2.48h2.93v-2.48h1.19v6.04Z"/>
        <path class="cls-2" d="m77.38,49.47h-1.44v-2.49h-2.68v2.49h-1.44v-6.29h1.44v2.48h2.68v-2.48h1.44v6.29Zm-1.19-.25h.94v-5.79h-.94v2.48h-3.18v-2.48h-.94v5.79h.94v-2.49h3.18v2.49Z"/>
      </g>
      <g>
        <path class="cls-2" d="m25.7,56.08c0,.45-.13.84-.38,1.17-.25.33-.62.55-1.11.64l1.81,2.37h-1.48l-1.76-2.32h-.95v2.32h-1.19v-6.04h2.98c.68,0,1.2.18,1.56.53s.53.79.53,1.33Zm-3.88-.79v1.59h1.71c.3,0,.54-.07.72-.22s.26-.34.26-.58-.09-.44-.26-.58c-.17-.14-.41-.21-.72-.21h-1.71Z"/>
        <path class="cls-2" d="m26.27,60.38h-1.8l-.04-.05-1.73-2.27h-.77v2.32h-1.44v-6.29h3.11c.72,0,1.27.19,1.65.56.38.37.57.85.57,1.42,0,.47-.14.89-.41,1.25-.24.31-.57.53-.99.64l1.84,2.42Zm-1.67-.25h1.17l-1.78-2.33.2-.04c.45-.08.8-.28,1.03-.59.24-.31.36-.68.36-1.1,0-.5-.16-.91-.49-1.24-.33-.33-.82-.49-1.47-.49h-2.86v5.79h.94v-2.32h1.14l.04.05,1.73,2.27Zm-1.07-3.13h-1.83v-1.84h1.83c.34,0,.61.08.8.24.2.17.3.39.3.67s-.1.51-.31.68c-.2.16-.47.25-.8.25Zm-1.58-.25h1.58c.27,0,.49-.06.64-.19.15-.12.22-.28.22-.48s-.07-.36-.21-.48c-.15-.12-.37-.19-.64-.19h-1.58v1.34Z"/>
      </g>
      <g>
        <path class="cls-2" d="m26.89,57.73v-3.51h1.19v3.5c0,.52.13.91.39,1.18.26.27.62.41,1.08.41s.82-.14,1.07-.41c.25-.27.38-.67.38-1.18v-3.5h1.19v3.51c0,.84-.24,1.49-.72,1.95s-1.12.7-1.93.7-1.46-.23-1.94-.7c-.48-.46-.72-1.11-.72-1.95Z"/>
        <path class="cls-2" d="m29.54,60.5c-.84,0-1.52-.25-2.02-.73-.5-.49-.76-1.17-.76-2.04v-3.63h1.44v3.62c0,.48.12.85.35,1.1.23.25.56.37.99.37s.75-.12.98-.37c.23-.25.35-.62.35-1.1v-3.62h1.44v3.63c0,.87-.25,1.55-.76,2.04-.5.48-1.18.73-2.01.73Zm-2.53-6.15v3.38c0,.8.23,1.42.68,1.86.45.44,1.07.66,1.85.66s1.39-.22,1.84-.66c.45-.44.68-1.06.68-1.86v-3.38h-.94v3.37c0,.55-.14.97-.42,1.27-.28.3-.67.45-1.16.45s-.89-.15-1.17-.45c-.28-.29-.42-.72-.42-1.27v-3.37h-.94Z"/>
      </g>
      <g>
        <path class="cls-2" d="m32.97,60.26l2.15-3-2.15-3.04h1.37l1.46,2.07,1.48-2.07h1.33l-2.15,3,2.15,3.04h-1.36l-1.48-2.08-1.49,2.08h-1.31Z"/>
        <path class="cls-2" d="m38.85,60.38h-1.67l-1.42-1.99-1.43,1.99h-1.62l2.23-3.12-2.23-3.16h1.68l1.4,1.98,1.42-1.98h1.63l-2.24,3.12,2.24,3.16Zm-1.54-.25h1.06l-2.07-2.91,2.06-2.87h-1.02l-1.55,2.16-1.53-2.16h-1.07l2.06,2.91-2.06,2.87h1l1.56-2.17,1.55,2.17Z"/>
      </g>
      <g>
        <path class="cls-2" d="m41.68,60.37c-1.45,0-2.36-.6-2.74-1.79h1.21c.27.49.78.73,1.53.73.38,0,.69-.07.92-.21.23-.14.35-.33.35-.57,0-.22-.08-.38-.24-.5s-.42-.19-.78-.23l-1.04-.1c-.61-.05-1.05-.24-1.35-.54-.29-.31-.44-.7-.44-1.17,0-.56.22-1.02.65-1.37.44-.35,1.02-.52,1.75-.52s1.28.17,1.74.52c.45.35.76.77.93,1.27h-1.21c-.1-.22-.29-.39-.56-.53-.27-.13-.58-.2-.91-.2-.38,0-.68.08-.88.23s-.31.34-.31.56c0,.39.29.62.86.69l1.11.11c.58.06,1.04.25,1.37.55.33.31.5.7.5,1.17,0,.53-.22.97-.65,1.34-.43.37-1.04.55-1.81.55Z"/>
        <path class="cls-2" d="m41.68,60.5c-1.5,0-2.46-.63-2.85-1.88l-.05-.16h1.45l.04.06c.25.45.71.66,1.42.66.36,0,.65-.07.86-.2.19-.12.29-.27.29-.46,0-.18-.06-.31-.19-.4-.14-.1-.38-.17-.72-.21l-1.04-.1c-.63-.06-1.11-.25-1.42-.58-.31-.33-.47-.75-.47-1.25,0-.6.24-1.09.7-1.47.46-.37,1.07-.55,1.82-.55s1.34.18,1.81.54c.47.36.8.81.97,1.33l.05.16h-1.46l-.03-.07c-.09-.19-.26-.35-.51-.47-.25-.12-.54-.19-.85-.19-.35,0-.62.07-.81.2-.17.13-.26.28-.26.46,0,.12,0,.48.75.57l1.11.11c.61.06,1.09.26,1.44.59.35.33.54.76.54,1.26,0,.56-.23,1.05-.69,1.44-.46.38-1.09.58-1.89.58Zm-2.56-1.79c.39,1.04,1.23,1.54,2.56,1.54.74,0,1.32-.17,1.73-.52.41-.34.61-.75.61-1.25,0-.44-.15-.79-.46-1.08-.31-.29-.74-.46-1.3-.52l-1.11-.11c-.81-.09-.98-.49-.98-.81,0-.27.12-.49.36-.66.23-.17.55-.25.96-.25.35,0,.68.07.96.21.27.13.46.3.58.51h.95c-.17-.41-.44-.76-.82-1.05-.43-.33-.99-.49-1.66-.49s-1.26.17-1.67.5c-.41.33-.61.74-.61,1.27,0,.44.14.8.4,1.08.27.28.69.45,1.27.5l1.04.1c.38.04.66.12.84.25.19.14.29.34.29.6,0,.28-.14.51-.41.67-.25.15-.58.23-.99.23-.76,0-1.3-.25-1.6-.73h-.96Z"/>
      </g>
      <g>
        <path class="cls-2" d="m48.26,54.22l2.63,6.04h-1.26l-.59-1.34h-2.75l-.59,1.34h-1.22l2.63-6.04h1.16Zm-.6,1.58l-.91,2.05h1.81l-.9-2.05Z"/>
        <path class="cls-2" d="m51.08,60.38h-1.54l-.59-1.34h-2.59l-.59,1.34h-1.49l2.74-6.29h1.33l2.74,6.29Zm-1.37-.25h.99l-2.52-5.79h-1l-2.52,5.79h.95l.59-1.34h2.92l.59,1.34Zm-.95-2.15h-2.19l1.1-2.49,1.09,2.49Zm-1.81-.25h1.43l-.71-1.62-.72,1.62Z"/>
      </g>
      <g>
        <path class="cls-2" d="m50.69,54.22h5.13v1.06h-1.96v4.97h-1.19v-4.97h-1.97v-1.06Z"/>
        <path class="cls-2" d="m53.98,60.38h-1.44v-4.97h-1.97v-1.31h5.38v1.31h-1.96v4.97Zm-1.19-.25h.94v-4.97h1.96v-.81h-4.88v.81h1.97v4.97Z"/>
      </g>
      <g>
        <path class="cls-2" d="m61.02,54.22h1.19v6.04h-1.29l-3-4.24v4.24h-1.19v-6.04h1.29l3,4.24v-4.24Z"/>
        <path class="cls-2" d="m62.33,60.38h-1.48l-2.81-3.97v3.97h-1.44v-6.29h1.48l2.81,3.97v-3.97h1.44v6.29Zm-1.35-.25h1.1v-5.79h-.94v4.5l-3.19-4.5h-1.1v5.79h.94v-4.5l3.19,4.5Z"/>
      </g>
      <g>
        <path class="cls-2" d="m68.67,59.47c-.59.61-1.34.91-2.25.91s-1.67-.3-2.25-.91c-.59-.61-.88-1.35-.88-2.23s.29-1.63.88-2.23c.59-.6,1.34-.9,2.25-.9s1.67.3,2.25.9c.59.6.88,1.35.88,2.23s-.29,1.62-.88,2.23Zm-3.65-.76c.37.4.83.6,1.39.6s1.02-.2,1.39-.6c.37-.4.55-.89.55-1.47s-.19-1.07-.55-1.47c-.37-.4-.83-.6-1.39-.6s-1.02.2-1.39.6c-.37.4-.55.89-.55,1.47s.18,1.07.55,1.47Z"/>
        <path class="cls-2" d="m66.41,60.5c-.95,0-1.73-.32-2.34-.95-.61-.63-.92-1.41-.92-2.31s.31-1.7.92-2.32c.61-.62,1.4-.94,2.34-.94s1.73.32,2.34.94c.61.62.92,1.4.92,2.32s-.31,1.69-.92,2.31h0c-.61.63-1.4.95-2.34.95Zm0-6.27c-.88,0-1.6.29-2.16.87-.56.58-.85,1.3-.85,2.14s.28,1.56.85,2.14c.56.58,1.29.87,2.16.87s1.6-.29,2.16-.87h0c.56-.58.85-1.3.85-2.14s-.28-1.57-.85-2.14c-.56-.57-1.29-.87-2.17-.87Zm0,5.21c-.59,0-1.09-.22-1.48-.64h0c-.39-.42-.59-.95-.59-1.55s.2-1.14.59-1.56c.39-.42.89-.64,1.48-.64s1.09.21,1.48.64c.39.42.59.95.59,1.56s-.2,1.13-.59,1.55c-.39.43-.89.64-1.48.64Zm0-4.14c-.53,0-.95.18-1.3.56-.35.38-.52.83-.52,1.39s.18,1.01.52,1.38h0c.35.38.77.56,1.3.56s.95-.18,1.3-.56c.35-.38.52-.84.52-1.38s-.17-1.01-.52-1.39c-.35-.38-.77-.56-1.3-.56Z"/>
      </g>
      <g>
        <path class="cls-2" d="m72.01,54.22l2.22,4.75,2.22-4.75h1.35v6.04h-1.19v-3.78l-1.75,3.78h-1.29l-1.75-3.78v3.78h-1.19v-6.04h1.39Z"/>
        <path class="cls-2" d="m77.93,60.38h-1.44v-3.34l-1.55,3.34h-1.45l-1.55-3.34v3.34h-1.44v-6.29h1.6l2.14,4.58,2.14-4.58h1.56v6.29Zm-1.19-.25h.94v-5.79h-1.15l-2.3,4.92-2.3-4.92h-1.19v5.79h.94v-4.22l1.96,4.22h1.13l1.96-4.22v4.22Z"/>
      </g>
      <g>
        <path class="cls-2" d="m82.29,54.22l2.63,6.04h-1.26l-.59-1.34h-2.75l-.59,1.34h-1.22l2.63-6.04h1.16Zm-.6,1.58l-.91,2.05h1.81l-.9-2.05Z"/>
        <path class="cls-2" d="m85.11,60.38h-1.54l-.59-1.34h-2.59l-.59,1.34h-1.49l2.74-6.29h1.33l2.74,6.29Zm-1.37-.25h.99l-2.52-5.79h-1l-2.52,5.79h.95l.59-1.34h2.92l.59,1.34Zm-.95-2.15h-2.19l1.1-2.49,1.09,2.49Zm-1.81-.25h1.43l-.71-1.62-.72,1.62Z"/>
      </g>
      <g>
        <path class="cls-2" d="m87.86,60.37c-1.45,0-2.36-.6-2.74-1.79h1.21c.27.49.78.73,1.53.73.38,0,.69-.07.92-.21.23-.14.35-.33.35-.57,0-.22-.08-.38-.24-.5s-.42-.19-.78-.23l-1.04-.1c-.61-.05-1.05-.24-1.35-.54-.29-.31-.44-.7-.44-1.17,0-.56.22-1.02.65-1.37.44-.35,1.02-.52,1.75-.52s1.28.17,1.74.52c.45.35.76.77.93,1.27h-1.21c-.1-.22-.29-.39-.56-.53-.27-.13-.58-.2-.91-.2-.38,0-.68.08-.88.23s-.31.34-.31.56c0,.39.29.62.86.69l1.11.11c.58.06,1.04.25,1.37.55.33.31.5.7.5,1.17,0,.53-.22.97-.65,1.34-.43.37-1.04.55-1.81.55Z"/>
        <path class="cls-2" d="m87.86,60.5c-1.5,0-2.46-.63-2.85-1.88l-.05-.16h1.45l.04.06c.25.45.71.66,1.42.66.36,0,.65-.07.86-.2.19-.12.29-.27.29-.46,0-.18-.06-.31-.19-.4-.14-.1-.38-.17-.72-.21l-1.04-.1c-.63-.06-1.11-.25-1.42-.58-.31-.33-.47-.75-.47-1.25,0-.6.24-1.09.7-1.47.46-.37,1.07-.55,1.82-.55s1.34.18,1.81.54c.47.36.8.81.97,1.33l.05.16h-1.46l-.03-.07c-.09-.19-.26-.35-.51-.47-.25-.12-.54-.19-.85-.19-.35,0-.62.07-.81.2-.17.13-.26.28-.26.46,0,.12,0,.48.75.57l1.11.11c.61.06,1.09.26,1.44.59.35.33.54.76.54,1.26,0,.56-.23,1.05-.69,1.44-.46.38-1.09.58-1.89.58Zm-2.56-1.79c.39,1.04,1.23,1.54,2.56,1.54.74,0,1.32-.17,1.73-.52.41-.34.61-.75.61-1.25,0-.44-.15-.79-.46-1.08-.31-.29-.74-.46-1.3-.52l-1.11-.11c-.81-.09-.98-.49-.98-.81,0-.27.12-.49.36-.66.23-.17.55-.25.96-.25.35,0,.68.07.96.21.27.13.46.3.58.51h.95c-.17-.41-.44-.76-.82-1.05-.43-.33-.99-.49-1.66-.49s-1.26.17-1.67.5c-.41.33-.61.74-.61,1.27,0,.44.14.8.4,1.08.27.28.69.45,1.27.5l1.04.1c.38.04.66.12.84.25.19.14.29.34.29.6,0,.28-.14.51-.41.67-.25.15-.58.23-.99.23-.76,0-1.3-.25-1.6-.73h-.96Z"/>
      </g>
      <g>
        <path class="cls-2" d="m92.55,54.22v6.04h-1.19v-6.04h1.19Z"/>
        <path class="cls-2" d="m92.67,60.38h-1.44v-6.29h1.44v6.29Zm-1.19-.25h.94v-5.79h-.94v5.79Z"/>
      </g>
      <g>
        <path class="cls-2" d="m40.07,65.13l2.22,4.75,2.22-4.75h1.35v6.04h-1.19v-3.78l-1.75,3.78h-1.29l-1.75-3.78v3.78h-1.19v-6.04h1.39Z"/>
        <path class="cls-2" d="m45.99,71.29h-1.44v-3.34l-1.55,3.34h-1.45l-1.55-3.34v3.34h-1.44v-6.29h1.6l2.14,4.58,2.14-4.58h1.56v6.29Zm-1.19-.25h.94v-5.79h-1.15l-2.3,4.92-2.3-4.92h-1.19v5.79h.94v-4.22l1.96,4.22h1.13l1.96-4.22v4.22Z"/>
      </g>
      <g>
        <path class="cls-2" d="m50.35,65.13l2.63,6.04h-1.26l-.59-1.34h-2.75l-.59,1.34h-1.22l2.63-6.04h1.16Zm-.6,1.58l-.91,2.05h1.81l-.9-2.05Z"/>
        <path class="cls-2" d="m53.17,71.29h-1.54l-.59-1.34h-2.59l-.59,1.34h-1.49l2.74-6.29h1.33l2.74,6.29Zm-1.37-.25h.99l-2.52-5.79h-1l-2.52,5.79h.95l.59-1.34h2.92l.59,1.34Zm-.95-2.15h-2.19l1.1-2.49,1.09,2.49Zm-1.81-.25h1.43l-.71-1.62-.72,1.62Z"/>
      </g>
      <g>
        <path class="cls-2" d="m55.18,71.16l-2.54-6.04h1.26l1.88,4.45,1.89-4.45h1.23l-2.54,6.04h-1.17Z"/>
        <path class="cls-2" d="m56.44,71.29h-1.34l-2.65-6.29h1.54l1.8,4.26,1.81-4.26h1.5l-2.65,6.29Zm-1.17-.25h1.01l2.44-5.79h-.96l-1.97,4.65-1.96-4.65h-.99l2.44,5.79Z"/>
      </g>
      <g>
        <path class="cls-2" d="m60.29,65.13h1.19v4.3c0,.56-.16.99-.49,1.29s-.78.45-1.35.45h-1.21v-1.06h1.21c.43,0,.65-.22.65-.67v-4.3Z"/>
        <path class="cls-2" d="m59.64,71.29h-1.33v-1.31h1.33c.36,0,.52-.17.52-.55v-4.42h1.44v4.42c0,.59-.18,1.06-.53,1.38-.35.32-.83.48-1.43.48Zm-1.08-.25h1.08c.53,0,.96-.14,1.26-.42.3-.27.45-.68.45-1.19v-4.17h-.94v4.17c0,.51-.27.8-.77.8h-1.08v.81Z"/>
      </g>
      <g>
        <path class="cls-2" d="m62.79,68.64v-3.51h1.19v3.5c0,.52.13.91.39,1.18.26.27.62.41,1.08.41s.82-.14,1.07-.41c.25-.27.38-.67.38-1.18v-3.5h1.19v3.51c0,.84-.24,1.49-.72,1.95s-1.12.7-1.93.7-1.46-.23-1.94-.7c-.48-.46-.72-1.11-.72-1.95Z"/>
        <path class="cls-2" d="m65.44,71.41c-.84,0-1.52-.25-2.02-.73-.5-.49-.76-1.17-.76-2.04v-3.63h1.44v3.62c0,.48.12.85.35,1.1.23.25.56.37.99.37s.75-.12.98-.37c.23-.25.35-.62.35-1.1v-3.62h1.44v3.63c0,.87-.25,1.55-.76,2.04-.5.48-1.18.73-2.01.73Zm-2.53-6.15v3.38c0,.8.23,1.42.68,1.86.45.44,1.07.66,1.85.66s1.39-.22,1.84-.66c.45-.44.68-1.06.68-1.86v-3.38h-.94v3.37c0,.55-.14.97-.42,1.27-.28.3-.67.45-1.16.45s-.89-.15-1.17-.45c-.28-.29-.42-.72-.42-1.27v-3.37h-.94Z"/>
      </g>
      <g>
        <path class="cls-2" d="m69.44,65.13h2.09c1.01,0,1.81.29,2.4.87.59.58.89,1.29.89,2.15s-.3,1.57-.89,2.15c-.59.58-1.39.87-2.4.87h-2.09v-6.04Zm1.19,4.97h.86c.65,0,1.17-.18,1.55-.54.39-.36.58-.83.58-1.41s-.19-1.04-.58-1.41c-.39-.36-.91-.54-1.55-.54h-.86v3.91Z"/>
        <path class="cls-2" d="m71.53,71.29h-2.22v-6.29h2.22c1.04,0,1.88.3,2.49.9.61.6.92,1.35.92,2.24s-.31,1.64-.92,2.24c-.61.6-1.45.9-2.49.9Zm-1.97-.25h1.97c.97,0,1.75-.28,2.32-.83.56-.55.85-1.24.85-2.06s-.29-1.51-.85-2.06c-.56-.55-1.34-.83-2.32-.83h-1.97v5.79Zm1.93-.81h-.99v-4.16h.99c.68,0,1.23.19,1.64.58.41.39.62.89.62,1.5s-.21,1.11-.62,1.5c-.41.38-.96.58-1.64.58Zm-.74-.25h.74c.61,0,1.11-.17,1.47-.51.37-.34.54-.77.54-1.32s-.18-.97-.54-1.32c-.36-.34-.86-.51-1.47-.51h-.74v3.66Z"/>
      </g>
    </g>
    <g>
      <polygon class="cls-2" points="56.59 16.55 58.18 19.78 61.74 20.3 59.17 22.81 59.77 26.35 56.59 24.68 53.4 26.35 54.01 22.81 51.43 20.3 55 19.78 56.59 16.55"/>
      <polygon class="cls-2" points="40.79 24.99 43.52 27.34 47 26.42 45.61 29.74 47.55 32.77 43.96 32.47 41.69 35.26 40.86 31.75 37.51 30.45 40.58 28.58 40.79 24.99"/>
      <polygon class="cls-2" points="72.39 24.99 69.66 27.34 66.18 26.42 67.57 29.74 65.63 32.77 69.21 32.47 71.49 35.26 72.32 31.75 75.67 30.45 72.59 28.58 72.39 24.99"/>
    </g>
    <g>
      <path class="cls-2" d="m50.31,95.75c-.28-.07-.55-.14-.78-.32-.49-.36-.74-.84-.74-1.45,0-1.3,0-2.6,0-3.9,0-2.72,0-5.44,0-8.16,0-.86.52-1.54,1.34-1.74.14-.03.28-.05.42-.05,2.84,0,5.67,0,8.51,0,.04,0,.08,0,.13,0v1.73h-8.65v12.14h12.12v-6.88s.03-.03.04-.03c.57,0,1.14,0,1.7,0v7.14s-.02.07-.03.1c-.09.47-.32.86-.73,1.11-.23.14-.51.21-.76.31h-12.56Z"/>
      <path class="cls-2" d="m64.39,82.76s-.09.08-.14.12c-2.8,2.8-5.6,5.6-8.4,8.41-.04.04-.07.09-.09.12-1.32-1.32-2.61-2.61-3.89-3.89.38-.38.78-.78,1.19-1.19.87.87,1.76,1.77,2.66,2.66,2.49-2.49,4.97-4.97,7.46-7.46.41.41.82.81,1.22,1.2v.03Z"/>
    </g>
  </g>
</svg>