    <svg className="about_icon_text_img" viewBox="15 15 75 65" fill="none" xmlns="http://www.w3.org/2000/svg">
                    <rect width="90" height="90" fill="white" />
                    <path d="M31.7552 27.5685C31.4702 23.1201 32.7293 19.3319 35.998 16.3518C38.4225 14.142 41.3105 13.0127 44.5937 13.0001C48.4703 12.9857 51.7408 14.4378 54.3402 17.3115C56.9469 20.1923 57.8849 23.6522 57.627 27.5631C58.0707 27.5631 58.4441 27.5559 58.8176 27.5631C60.3455 27.5992 61.895 27.4837 63.3941 27.711C66.2677 28.1476 68.4234 30.5594 68.5984 33.4529C68.8708 37.9212 69.053 42.3949 69.2658 46.8668C69.6122 54.1258 69.9676 61.3847 70.2832 68.6437C70.3446 70.0291 70.4294 71.456 70.184 72.8053C69.6699 75.6194 67.0903 77.6759 64.2311 77.7913C64.0507 77.7986 63.8703 77.8004 63.6917 77.8004C51.0228 77.8004 38.3539 77.804 25.685 77.8004C22.3225 77.8004 19.6311 75.6844 19.1098 72.4752C18.9077 71.2287 19.0358 69.9173 19.0917 68.6401C19.3262 63.2915 19.5896 57.9429 19.8458 52.5943C20.1524 46.1904 20.4266 39.7828 20.7892 33.3825C20.9678 30.2185 23.7585 27.6443 26.9243 27.5757C28.4955 27.5415 30.0667 27.5703 31.7534 27.5703L31.7552 27.5685ZM44.6568 73.4836C51.003 73.4836 57.3492 73.4854 63.6953 73.4836C65.2467 73.4836 66.1126 72.5762 66.0603 71.0249C66.0368 70.3051 66.0116 69.5853 65.9773 68.8656C65.6345 61.6066 65.29 54.3459 64.9473 47.0869C64.7434 42.7719 64.5558 38.4552 64.3321 34.142C64.2491 32.5365 63.3977 31.7897 61.8157 31.7969C58.5524 31.8131 55.2891 31.8276 52.0276 31.8366C43.836 31.8582 35.6463 31.8763 27.4547 31.8961C25.9809 31.8997 25.1529 32.652 25.0609 34.1384C24.9508 35.9116 24.8931 37.6885 24.8101 39.4654C24.3195 49.9172 23.8252 60.3673 23.3363 70.8192C23.2515 72.6466 24.0633 73.4836 25.8889 73.4836C32.1449 73.4836 38.4008 73.4836 44.6568 73.4836ZM53.2976 27.5325C53.6096 23.7027 52.4606 20.5585 49.1197 18.5616C46.026 16.7108 42.8294 16.8154 39.8386 18.834C36.7827 20.894 35.7725 23.9318 36.0954 27.5343H53.2994L53.2976 27.5325Z" fill="#000" stroke="#fff" stroke-width="1" />
                    <path d="M44.7181 49.3213C38.6588 49.3177 33.4779 45.2336 32.0619 39.3546C31.8328 38.404 31.9572 37.5561 32.7528 36.9157C33.4455 36.3565 34.2374 36.2988 35.0401 36.6361C35.8122 36.9608 36.1315 37.6247 36.3389 38.4058C37.2571 41.8603 39.4471 44.0701 42.9395 44.8782C47.3717 45.9046 51.8887 43.1374 53.0684 38.7431C53.1388 38.4833 53.1947 38.2182 53.2795 37.9638C53.6475 36.8382 54.7208 36.2375 55.8934 36.4936C56.9685 36.7281 57.7081 37.796 57.5025 38.9451C57.3762 39.6469 57.1633 40.3432 56.9072 41.0106C54.977 46.0652 50.1804 49.3249 44.7199 49.3231L44.7181 49.3213Z" fill="#000" stroke="#fff" stroke-width="1" />
                  </svg>