<?xml version="1.0" encoding="UTF-8"?>
<svg id="_Слой_2" data-name="Слой 2" xmlns="http://www.w3.org/2000/svg" viewBox="0 0 503.03 163.42">
  <defs>
    <style>
      .cls-1 {
        fill: #fff;
      }
    </style>
  </defs>
  <g id="_Слой_1-2" data-name="Слой 1">
    <g>
      <polygon class="cls-1" points="0 37.44 60.08 37.44 60.08 152.59 97.21 152.59 97.21 37.44 157.29 37.44 157.29 6.57 0 6.57 0 37.44"/>
      <path class="cls-1" d="m345.65,6.57h-45.89l-31.5,37.13c-3.48,4.59-5.94,8.45-7.41,11.58-1.46,3.13-2.19,6.15-2.19,9.07v2.5h-3.55v-2.5c0-2.92-.73-5.94-2.19-9.07-1.46-3.13-3.93-6.99-7.41-11.58l-31.5-37.13h-45.89l61.54,71.97-63.62,74.05h46.73l34-40.05c3.06-4.03,5.22-7.41,6.47-10.12,1.25-2.71,1.88-5.53,1.88-8.45v-1.88h3.55v1.88c0,2.92.63,5.74,1.88,8.45,1.25,2.71,3.41,6.09,6.47,10.12l34,40.05h46.73l-63.62-74.05L345.65,6.57Z"/>
      <polygon class="cls-1" points="416.58 152.59 453.71 152.59 453.71 37.44 513.78 37.44 513.78 6.57 356.5 6.57 356.5 37.44 416.58 37.44 416.58 152.59"/>
      
    </g>
  </g>
</svg>